<mxfile host="app.diagrams.net" modified="2020-11-17T06:17:05.362Z" agent="5.0 (Windows NT 10.0; Win64; x64) AppleWebKit/537.36 (KHTML, like Gecko) Chrome/86.0.4240.193 Safari/537.36" etag="Gf9Tj2ltGWueODgcxRs3" version="13.9.6" type="github">
  <diagram name="页-1" id="页-1">
    <mxGraphModel dx="782" dy="649" grid="1" gridSize="10" guides="1" tooltips="1" connect="1" arrows="1" fold="1" page="1" pageScale="1" pageWidth="827" pageHeight="1169" math="0" shadow="0">
      <root>
        <mxCell id="0" />
        <mxCell id="1" value="容器" parent="0" />
        <mxCell id="21" style="vsdxID=1668;fillColor=none;gradientColor=none;strokeColor=none;spacingLeft=1;spacingRight=1;labelBackgroundColor=none;rounded=0;html=1;whiteSpace=wrap;" parent="1" vertex="1">
          <mxGeometry x="700.44" y="510.46000000000004" width="225" height="191" as="geometry" />
        </mxCell>
        <mxCell id="22" style="vsdxID=1669;fillColor=#FFFFFF;gradientColor=none;shape=stencil(UzV2Ls5ILEhVNTIoLinKz04tz0wpyVA1dlE1MsrMy0gtyiwBslSNXVWNndPyi1LTi/JL81Ig/IJEkEoQKze/DGRCBUSfAUiHkUElhGdoAOG7QZTmZOYhKTWlkVqYJFmKiXcDVVSSqRDNS0AGIj7SMnNyINGJLI8ef0AhSNwbuwIA);labelBackgroundColor=none;rounded=0;html=1;whiteSpace=wrap;" parent="21" vertex="1">
          <mxGeometry width="225" height="191" as="geometry" />
        </mxCell>
        <mxCell id="23" value="&lt;p style=&quot;align:center;margin-left:0;margin-right:0;margin-top:0px;margin-bottom:0px;text-indent:0;valign:middle;direction:ltr;&quot;&gt;&lt;/p&gt;" style="text;vsdxID=1669;fillColor=none;gradientColor=none;labelBackgroundColor=none;rounded=0;html=1;whiteSpace=wrap;verticalAlign=middle;align=center;strokeColor=none;;html=1;" parent="22" vertex="1">
          <mxGeometry y="-0.46" width="225.6" height="191.46" as="geometry" />
        </mxCell>
        <mxCell id="24" style="vsdxID=1671;fillColor=none;gradientColor=none;gradientDirection=north;strokeColor=none;spacingLeft=1;spacingRight=1;labelBackgroundColor=none;rounded=0;html=1;whiteSpace=wrap;" parent="21" vertex="1">
          <mxGeometry width="225" height="36" as="geometry" />
        </mxCell>
        <mxCell id="26" value="&lt;p style=&quot;margin-left: 0 ; margin-right: 0 ; margin-top: 0px ; margin-bottom: 0px ; text-indent: 0 ; direction: ltr&quot;&gt;&lt;font style=&quot;font-size: 16px ; font-family: &amp;#34;simsun&amp;#34; ; color: #000000 ; direction: ltr ; letter-spacing: 0px ; line-height: 120% ; opacity: 1&quot;&gt;CBroker-FxOption数据库&lt;/font&gt;&lt;font style=&quot;font-size: 16px ; font-family: &amp;#34;themed&amp;#34; ; color: #000000 ; direction: ltr ; letter-spacing: 0px ; line-height: 120% ; opacity: 1&quot;&gt;&lt;br&gt;&lt;/font&gt;&lt;/p&gt;" style="text;vsdxID=1671;fillColor=none;gradientColor=none;gradientDirection=north;strokeColor=none;spacingLeft=1;spacingRight=1;labelBackgroundColor=none;rounded=0;html=1;whiteSpace=wrap;verticalAlign=middle;align=left;;html=1;" parent="24" vertex="1">
          <mxGeometry width="225.6" height="36" as="geometry" />
        </mxCell>
        <mxCell id="27" style="vsdxID=16;fillColor=none;gradientColor=none;labelBackgroundColor=none;rounded=0;strokeColor=none;html=1;whiteSpace=wrap;" parent="1" vertex="1">
          <mxGeometry x="444.22" y="27" width="100" height="100" as="geometry" />
        </mxCell>
        <mxCell id="28" style="vsdxID=17;fillColor=#FF00FF;gradientColor=none;fillOpacity=0;strokeOpacity=0;shape=stencil(lVTLcsMgDPwaH60BxPOcpv/BNDhm6toZ7DbO3xeXpg1pTJObLO0KtF5U4WZs7cFVjIxTGF7d0e+mtsKnijHfty74KUYVbivcNENw+zC897v0fbALconeho+lw5x4WgOKhcXIKWVQAcWvzHMidL4vEqgAydcJEkFdEaDQXzDgmME5CLmO5xykzPBkHYzxqvmwIPQjcFXEMwWE5XdnINUjBBHlpZcEG15iNZzVjwSTCOH0k5Lf+p4V56Dyrpqc/ymZazv7sQ7DZCc/9JeSkc6GvavjiXXT2X1WGo/OHf6kbw5FCclHMiDp/XCOYAqS3WHY3OF5d4XAzHr3K7ACLQr20EBN7mxS0EUIMDlcm6KdbhDiWypJGZXItZEUWOFt/qNNDH73RuO7Lq2dy/r1nomptKNw+wk=);labelBackgroundColor=none;rounded=0;html=1;whiteSpace=wrap;" parent="27" vertex="1">
          <mxGeometry width="100" height="100" as="geometry" />
        </mxCell>
        <mxCell id="29" style="vsdxID=18;fillColor=#ffffff;gradientColor=#a7a7a7;shape=stencil(jZBdCoMwEIRPs68l3aX2AGrvIRjN0phITH+8vQmLtAQsfZtJvh12B6heTDdrQLXE4O/6xX00QA0gsjM6cEwKqAWqBx/0GPzD9eLnLpNZTf6ZE94yp/IEqlXcWYm/CWrZHaJXPOHlGN6TdvxHbolS9e8OxbpJfM4c2Fpp6fu/rCU9SaXUbg==);strokeColor=#ffffff;spacingTop=-3;spacingBottom=-3;spacingLeft=-3;spacingRight=-3;labelBackgroundColor=none;rounded=0;html=1;whiteSpace=wrap;" parent="27" vertex="1">
          <mxGeometry x="38" y="83" width="17" height="16" as="geometry" />
        </mxCell>
        <mxCell id="30" style="vsdxID=19;fillColor=#ffffff;gradientColor=#dfdfdf;gradientDirection=north;shape=stencil(fZDBDsIgEES/hivZ7lrivdb/aFJqiQgNxap/L7gxFmO9zS5vJssIauaxm7RAmGPwZ30zfRwFHQSicaMOJiYlqBXUDD7oU/BX1/M8dZnM6uKXnHBnH2QHwoMnqiW+FkdmrXErlkCqXcHDNlxBGa1qqWgbV3uJVWF4B/zE/5+dxOe/g7GW61q/f/eTVtwttU8=);strokeColor=#ffffff;spacingTop=-3;spacingBottom=-3;spacingLeft=-3;spacingRight=-3;labelBackgroundColor=none;rounded=0;html=1;whiteSpace=wrap;" parent="27" vertex="1">
          <mxGeometry y="61" width="55" height="34" as="geometry" />
        </mxCell>
        <mxCell id="31" style="vsdxID=20;fillColor=#ffffff;gradientColor=#dfdfdf;gradientDirection=north;shape=stencil(hVHNEoIgEH4ajjgI5sjZ6j2YRGUicRZKe/sgdJKa6rb7/e3CIlbbXowSUWIdmLOcVON6xPaIUjX0EpTzFWIHxOrWgOzAXIcm9qMIylBdzC0kzNG3y7OyDC5K7hHJCXn2xyjXatjIV3IVezsvvsuLKstpYviRnSZ7a1VtxQJOnoV1EeonL9GwWCjhGecR+/s8MmMxK4vBOOGUGZIdtIBOYj8Rt1p0CWUnKccPeNnRF6+PbpXW8U5b/v0wHopHZYcH);strokeColor=#ffffff;spacingTop=-3;spacingBottom=-3;spacingLeft=-3;spacingRight=-3;labelBackgroundColor=none;rounded=0;html=1;whiteSpace=wrap;" parent="27" vertex="1">
          <mxGeometry x="27" y="21" width="72" height="42" as="geometry" />
        </mxCell>
        <mxCell id="32" value="" style="verticalAlign=middle;align=center;vsdxID=21;fillColor=#ffffff;gradientColor=#a7a7a7;shape=stencil(jZDNDoMgEISfZq9kyxq1Z2vfw0QspBQMYn/eXsjGtDap6W1m99sJDFAz6W5UIHGKwV/Vw/RRA51ASuO0CiYmBdQCNYMP6hL87Hr2Y5fJrG7+nhOefIf5QuKL3QHZnxm1xu2goqTf8Jq04ju5x1JgtYHrQtTF/w/ZZCfx/utgrOWqPvff3aQR90rtAg==);strokeColor=#ffffff;spacingTop=-3;spacingBottom=-3;spacingLeft=-3;spacingRight=-3;labelBackgroundColor=none;rounded=0;html=1;whiteSpace=wrap;" parent="27" vertex="1">
          <mxGeometry x="67" y="17" width="7" height="40" as="geometry" />
        </mxCell>
        <mxCell id="33" style="vsdxID=22;fillColor=#ffffff;gradientColor=#a7a7a7;shape=stencil(UzV2Ls5ILEhVNTIoLinKz04tz0wpyVA1dlE1MsrMy0gtyiwBslSNXVWNndPyi1LTi/JL81Ig/IJEkEoQKze/DGRCBUSfoZ6FJUiTkUElVMAMzHWDKM7JzENWbGCAotaAeKVmpnrGpriVoyqGacZuMn4XAxkIv6Zl5uRAggpZHj1sgEKQcDV2BQA=);strokeColor=#ffffff;spacingTop=-3;spacingBottom=-3;spacingLeft=-3;spacingRight=-3;labelBackgroundColor=none;rounded=0;html=1;whiteSpace=wrap;" parent="27" vertex="1">
          <mxGeometry x="74" y="15" width="13" height="32" as="geometry" />
        </mxCell>
        <mxCell id="34" style="vsdxID=23;fillColor=#ffffff;gradientColor=#dfdfdf;gradientDirection=north;shape=stencil(hZHdDoMgDIWfhlsC7US9du49TMRB5sAg+3v7wYiZLNHdnZbvNKeFYDOrbpIE2OydvciH7r0ieCQA2ijptA+KYEuwGayTZ2dvpk/11EUyqqu9xwnP5BOc1nV0AXulDmfsU58SPmqzxoGyMsMroEW1bWD5bEEFbMPIaYGZYSfKknNBS6T8sJP836JBfI806HFMN16//x41tNKHYPsG);strokeColor=#ffffff;spacingTop=-3;spacingBottom=-3;spacingLeft=-3;spacingRight=-3;labelBackgroundColor=none;rounded=0;html=1;whiteSpace=wrap;" parent="27" vertex="1">
          <mxGeometry x="52" y="1" width="35" height="19" as="geometry" />
        </mxCell>
        <mxCell id="35" style="vsdxID=24;fillColor=#ffffff;gradientColor=#a7a7a7;shape=stencil(jZDdDoIwDIWfprekrkDiNeJ7kDBc49zImH9vz2ZjBI0Jd6ftd5r2ADWT6UYNCqcY/FnfuY8G6ABKsTM6cEwKqAVqBh/0Kfir66Ueu0xmdfG3vOEhPswOhU+pqrqo96/OUWDLbgHvcI3jdrSkQpX/8TX8Nm9Afy5O4vPrwNZKVMv5dzapJblSOwM=);strokeColor=#ffffff;spacingTop=-3;spacingBottom=-3;spacingLeft=-3;spacingRight=-3;labelBackgroundColor=none;rounded=0;html=1;whiteSpace=wrap;" parent="27" vertex="1">
          <mxGeometry x="64" y="43" width="35" height="36" as="geometry" />
        </mxCell>
        <mxCell id="36" style="vsdxID=25;fillColor=#ffffff;gradientColor=#dfdfdf;gradientDirection=north;shape=stencil(hZLREoIgEEW/hkeZBczyuew/mERlInFWSvv7MHSSZqy3Zffcyx0WIo59IztFOPQO7VUNunQNESfCuW4bhdr5ioiCiGNlUdVo720Zzp2cyKm62cfkMAYdTAoOz3BiGU35u3MOsNHtCuaCsiwSwDacCgr7COZA8x/uDOIwB6As38YPjEIcZjGYcYkXP8MlO89oPufBWZBCTnezx5/3gDGRo+4TtE46bduINhJrlfj7ksrIOhr1g1Ldqs3WCX3x2UuljQlrXc+/9+hb4Q+I4gU=);strokeColor=#ffffff;spacingTop=-3;spacingBottom=-3;spacingLeft=-3;spacingRight=-3;labelBackgroundColor=none;rounded=0;html=1;whiteSpace=wrap;" parent="27" vertex="1">
          <mxGeometry x="35" width="39" height="21" as="geometry" />
        </mxCell>
        <mxCell id="37" style="vsdxID=26;fillColor=#ffffff;gradientColor=#c0c0c0;shape=stencil(jZCxDoMwDES/xisy8QA7pf+BRGispgkKaUv/vomsioA6sN3Z7yz5gLrFDLMGhUsM/q7fPEYDdAGl2BkdOCYF1AN1kw/6FvzTjeLnIZNZPfwrX1glhzmh8FO6q4CWXQHWuEdbqrA9j//8X/iANhU2Z+Hd1SS2Pye2Vmoq98de0kg6pf4L);strokeColor=#000000;spacingTop=-3;spacingBottom=-3;spacingLeft=-3;spacingRight=-3;labelBackgroundColor=none;rounded=0;html=1;whiteSpace=wrap;" parent="27" vertex="1">
          <mxGeometry y="73" width="38" height="26" as="geometry" />
        </mxCell>
        <mxCell id="38" style="vsdxID=27;fillColor=none;gradientColor=none;labelBackgroundColor=none;rounded=0;strokeColor=none;html=1;whiteSpace=wrap;" parent="27" vertex="1">
          <mxGeometry x="4" y="63" width="46" height="29" as="geometry" />
        </mxCell>
        <mxCell id="39" value="" style="verticalAlign=middle;align=center;vsdxID=28;fillColor=#FFFFFF;gradientColor=none;shape=stencil(lVnbUlsxDPyavGpsy9dnSv+DGULJlBIm0NvfV2lGp8dysj59C8HyamVJXjk7vnt/fnjb74J7/zgdv+5/Hh4/nnf8aRfC4fV5fzp8yKcd3+/47ul42n85Hb+/Pl7+fns4rzx/+nb8cd7h18XOnS2C+335KzSK/Pebz5fFL4fX1eJErXXrOZGvt9d7R61agNpuG0QLIN/4eHv9xPueaqEY+vWeGHnPFH1vUMiD8PhK0QJU4L0PFsBnciA8cwY9Yx8VfwFgYuBRcFS5N2jkQIwkJWqwCAVQkP0MQiWXwPo5hZ5zCBRyZ5AoAIcEP6QewJMDp8xMIRqAAhjIqRkABxZPve/ZijPcV9gkhbgRl/9J0hitgSAkwJfrYCBZBeM5o9BzFo+SqctMgHJy1MefA2XAOCWKpgsV4gxC1AyAhDR7GNIJgZ6wOJT7jONC5fb+WeD7GovSysCR5Uy5r2I5RA8YZ2cReOllt2I6oWB6ddF7YqkDSVwAUJlqn0U5wcZSK9ViEQqIag0WIUVyAXTrOYeedG26nxoURx6QbkKxT6Qi/Ricm3fO7p8A5Rbt/jlqv78eozkDQ1lStV+PE68WSn1M5eAbClGgVC1CRhSyRShBM+W6wZSCSW1HsU+8jNtLyRQNAhMqBa/FvgKowECSxgDkQA5Q3kCh5ywNpvQIsWoPvI4Q9E5dFVsA5SzFZgwEoaGo+sEludhBYmzgYNp2U6GycMA3p3QsZnsOQInIMZj1qWjBXgeIg0de9cb1tj2nYO7mqjFcgoTV0flYvXUpotu8kQHIusP19WwBotN0v347zykYDVZUrix3m8wxSFKxauqVSxmNRVXLcTV4IYBgAWQ0yoDzBgpGZSctro2TGntqybqERkHOg0EkRMFZj2Qcq0iXzymYaapq6q9Ej0ejhei8QfQ0UNASkjTIqow4sEXAUngDBXPOkjd95kluNXRsSRNt1SULylU3GGCxKplpDLAa3kDB9DAdV5aOxGh+kf5TBpmX0HwhN88gJNHddu4/zcYU3Z5TBuai8pqVK5mHbgXJ4kHloWcFucaa0ZGiXBFCtggT+T+nYAQJ63CwUs6IgQjbvtBEZXmkR6I1mEjzXAcDLP7nFIzujPpWt1DAN2cV/L5w2tLErxskFb4rhIx0ZLMIgtmABtvAYSY8ZaZBimcUnjoz3ZSd0e5fkLD1dn8ZRBsa5ucMxtcC88I2mf69nf6raqyNrwWTGWx8LZhMeRsojI9+ZlzwWk7b3oTEI0aqc3gTOs9ggPP46jcRwhsoGDni9TF6pSIDem4u5Adh29DjblCKG3WqzxbhLCPR6+6cg3z499vF0+Hl5fLTx/r/9rcO+eryOwnf/wE=);strokeColor=none;labelBackgroundColor=none;rounded=0;html=1;whiteSpace=wrap;" parent="38" vertex="1">
          <mxGeometry width="46" height="29" as="geometry" />
        </mxCell>
        <mxCell id="40" value="" style="verticalAlign=middle;align=center;vsdxID=29;fillColor=#969696;gradientColor=none;shape=stencil(nVvLchw3DPyavaKGb87Zcf7DVZYjVRTJJSuJ/ffBZsPxEMA2ydykFVtEk0QDILiX8OHb46evDxe/fXt/e/394e+nz++Pl/DLxfunl8eHt6d3/ukSPl7Chy+vbw+/vb3++fL59vvXT9eR15/+eP3r+h++33Dek89XlN9+/PcJhfLvB7/exj8/vZzHV/KpG18prAxPtKPxypxtZbC0vecaAoXajXeBkrs/Qdjb/zsAO8W4BCi0geU0THLk0AxjDj3pGNufj0WKlMEMaaN+xwJ/ACio8dc9vz/csIe3Efz/CQI945Tanw8GiUq9P0N2lEMHiI4KOBcacN14tKbapEARzDDBoSedM5XeF2KmHexD8VSEZ3qqgIMB2CiCjTNM4q1MSwDJoSddCtW9N6nSlu/PUAPV3ntyoB0cDQPAew82zjCJt3JfAkgOQrHZvfqjkeBGW4rtgUF8MsX/x+dCj8fHYmy/UG1TU8Em26oNgg4fy9CfO4dPxRUgZsCnYoKD0LA1UV3W7ESxP3S8CQ5NoAGHHPy/qCDky1RUsGe2ZkNtyb6fIDe/mAWE5qkLQSHc57wsqOuSXSQgFgpYjCQg0bYWRSSHnvSyoK5LdqXa+xoLagJHyQBkcmtRRHIQpPe2iAdgJwf2YedV73Oegv3TAGD/NEzKVMEMExx60ssmLZN22yYNysB91PCCKpcJ83u+LjZfPDR+g/ZwnKy9YLhMCZwKAxDJowVSJuHQP0FB5CIcukUF5qiiQOgUgCUHbIMBSC1a24ukTBrUbBMcRELCobuPhcHTDmaIgbZeLwJLDuBgADIBzzEswvF/goKoIms7aKdcfgMqnPhk9u6TQCWvR3Ogyihl0/bA8D9hv0jAjoLulMd7VBMmCci4ktcAjlMFJW3aJBz+JziIjOSI3aegEMDBK5li7zsskh4cCw1g0d5RPaVNwuF/goPQsFVVXdft1CLr5CWPBuCTMUFBSBirqkjPE9xoA8C6DRaJBUsC8DWPBjh8MiY4CA2zVDWCfVvX7dou+yaveQyAo20tlEgOQsdWlXVRuHdSsoquePR4T24pjCjzRSGZWs01qaoaMNBtFhg5w+CGRwMCBeA7ExyEbpuquirbYJGqo9j72qha0IDYPlkIDPcp8wSCQYG+XEuT6ENSsWsaAOya2iKuXtAEQwaC8bJBq5R3T6lKk3agdwYgwUg4wUGcbIoiclZokTsYHkEhwlsbA8CkwMnWFuHgP2YgysjaBPSUy4NNY35JdAoybajFpgGBMlpTZdGgZhtTEBnYUbefknmPisLUDD5FBXRjYwAiFZSyKZMGoX+Cg8hGOGfrNR43XmNuBp+CAqqQ9HjcetUGgbg/tl6kIa7NfUrjUes1ldYUOMUDdIlvAHCb4GqSAODAP8FB5CKcrPV+UCJldOe8NzE85BHX8RpQYJ/AsAjXaxMUhHyZego22lZsYBKri7ijwgdDj8fnYoKBkK/YrpfPggq22QBkeMvO4iIB+FxoAO4fTVAQBeSqoC5LNitMFq0I3JTXgEFTfoKDkGxTUsGympqNLmBZYorSVXjFowEbRdS6HHMQyr2sq6vKnX2r8yeveAwA7iFNcBDKvaqrq8LNKionwL0OA4C7KWMKItOOrRA/KOBXM8zQ9RnPjh1UAyp2UMMkXMBMcBA11apJ66RTU7ljhtxerc0CcN95gkNPuu+CcS6PzGFxEI2CgC9s1PgNNoSEMTj0DywXmQhncyKmtUzAjvulOeApHKBrGgNwXEnaAG0RjvtjCvoxp4iZO2x9q1caBVd2evygGacNwlF/goF+7NcvUcXNuGuo6HftZ/9/FgCbcYZFw8c4IwqC86KPrfqw21r4nS34NQCfizED4cumqy07M7pG8e2ybrbg1wB4LCYoDJ6ADXxt2ZfVk65BLagBg97dmIF+BKY8DV3q2r4M1kg/6hpkFAYAX7pOcBg93N0jfDKun1y1hy2Tw3fcADIMGr2sGxEYvXsbWLTKmM99lAahppQBwF2pCQb8w8+vXHx5en6+fWPj/Hf5FQ3+6Pb1jvDxHw==);strokeColor=none;labelBackgroundColor=none;rounded=0;html=1;whiteSpace=wrap;" parent="38" vertex="1">
          <mxGeometry y="1" width="46" height="28" as="geometry" />
        </mxCell>
        <mxCell id="41" style="vsdxID=30;fillColor=#808080;gradientColor=none;shape=stencil(lZLdDoMgDIWfhtsGW0B37bb3MBEnmROD7u/tJyPLZMZF70o538kplFHe10WnGfJ+cPas76YcakZ7hmjaWjszjBWjA6O8sk6fnL22ZTh3hVf66mJv3uEROClASE8hf4ZOkoBK351jABrTToCE80jO10tTBfTHeR4ly4CLLcAsezxsHAcJFC27owQUsXsKSm4BdgI4LgNxnM9rrZDOko/F94Mr0zRhP6b3vwsxtsIy0eEF);strokeColor=#808080;labelBackgroundColor=none;rounded=0;html=1;whiteSpace=wrap;" parent="27" vertex="1">
          <mxGeometry x="91" y="48" width="4" height="10" as="geometry" />
        </mxCell>
        <mxCell id="42" style="vsdxID=31;fillColor=#ffffff;gradientColor=#c0c0c0;shape=stencil(xVbbUoMwEP0aHtnJPeS51v9gbNoyYukEtPXvDYbbQgEdnfYt7JWzZ3eTiG/KY3q2ESNl5YpXe8l21THiTxFj2eloXVb5U8S3Ed/sC2cPrng/7cL3Oa0t69Nb8VFHuAY/LUDr2ouRz0ZCQZhvyXNwSN2L17rGgXIOCQ8ernExAhIWRK2VBMNQWJEAMY1NnF6zMnZFlVZZcQp6EnR56g429injfZ4ekKq8WHseiOnwJ/PsZJfSkwVEigHFgCj1iCRCNC0U6wvxT4jIPKIf8ISJJb8iVVGQ0xIITKoyYPA/UELuVYBpcm1AymVa1YRXCU3f3K6TpEDUvbp0hSJ/6Kd2n+V5GPpOPzfSEijFoHyh9HyhjAQucJ2UApWgMjECGk+USkDShVKZP9K/Asqzu8S+ByXkBJRWK6B6Eh4DSoLki6AaIoegErEGyk+yfiCorlHmQLW9NgDVru95ULoj+A6g6v2oUH5/QaCZwqOdGKAGr0oFVC8kkK26T0DVfALDQI8S+I5XCwmS8QXCR/ajBAoEji/a8bkZXzPgo/sRtJyP310dfXiCzNH6G60+fxg/cLwoPI749gs=);strokeColor=#000000;spacingTop=-3;spacingBottom=-3;spacingLeft=-3;spacingRight=-3;labelBackgroundColor=none;rounded=0;html=1;whiteSpace=wrap;" parent="27" vertex="1">
          <mxGeometry x="27" y="3" width="53" height="76" as="geometry" />
        </mxCell>
        <mxCell id="43" style="vsdxID=32;fillColor=#ffffff;gradientColor=#a7a7a7;shape=stencil(dVDREoIgEPwaHmEUpNFnq/9gEpXJwDko7e+DOaa0prfd2927myWi9aOaNeGFD+CuejFdGIk4Es6NHTWYEBERJyLa3oEewN1th3xWyZnQzT3ShhVzRUrw4rllZzROxv41HiRr5Nas4BJVyGbBKyYrTECOlLVkZYOzbCuL/dY3X6lajafgggrGWVTrhtU5PykYNI03aT+pYfegX7Sef8b5ywg+RWCHW+27tDjCwsXpBQ==);strokeColor=#ffffff;spacingTop=-3;spacingBottom=-3;spacingLeft=-3;spacingRight=-3;labelBackgroundColor=none;rounded=0;html=1;whiteSpace=wrap;" parent="27" vertex="1">
          <mxGeometry x="39" y="11" width="22" height="40" as="geometry" />
        </mxCell>
        <mxCell id="44" style="vsdxID=33;fillColor=none;gradientColor=none;shape=stencil(lVTbcoMgEP0aH90Blos8p8l/MA0aplYzaBrz98WStMFEJn3D3XNw9+xhC9wMB3O0BSPD6PsPe3b78VDgW8GY6w7WuzGcCtwWuKl7bxvfn7p9/D6aGTmfPvuv+YYp8iQHxWYWI5cYqQhQ/InsIqF13R2BEpLAhQZJX4dzBK3W4VUFKBICqmw5jwQqQPJ1gkRQCwJk7hcMOKYdgJDreM5BygRP1sEYSk2bBVH9B65A6XU8U0DS2XIGMqP+I0EEeZPpGv8esv6mvgZ6LclffgciYk2vWIxMpZncUPp+NKPru5jXV8+0xje2DL8s69Y093KS4Wzt8SG8e2bx1IAKgWU0o8FuqT0kBZbxkxCgddpdcFjmRTwh6PzYK6Ap4faonsIX7SqoxMvgpTbh8Lc4ate2ce/c55eLJoTiksLtNw==);strokeColor=#000000;strokeWidth=2;labelBackgroundColor=none;rounded=0;html=1;whiteSpace=wrap;" parent="27" vertex="1">
          <mxGeometry width="100" height="100" as="geometry" />
        </mxCell>
        <mxCell id="45" style="vsdxID=34;fillColor=none;gradientColor=none;labelBackgroundColor=none;rounded=0;strokeColor=none;html=1;whiteSpace=wrap;" parent="27" vertex="1">
          <mxGeometry x="46" y="60" width="15" height="14" as="geometry" />
        </mxCell>
        <mxCell id="46" style="vsdxID=35;fillColor=#000000;gradientColor=none;shape=stencil(tVLJDoMgEP0ajk5YbJVzl/8gLSopFTPS7e+LRVO08djbzFsGHgwRu75RnSac9h7dRT/M2TdE7Annpm00Gh8qIg5E7CqHukZ3a8+x79SgHKqruw8TntFXgsgHE6evCNBPd4xaa9pEK3Ogcibe5sBlalB4CixOBpDjcBwNrISiiNCkYbApZkMZpaMiU0/TZ+i88sa16f2oVVjrLByXVVbVM6p/aN0lMFtP9JNelMDW8zAKvFgEkpDP8qw86F/ChOL7r5WxNq5Fyi/3IEBxh8ThDQ==);strokeColor=#000000;strokeWidth=0;labelBackgroundColor=none;rounded=0;html=1;whiteSpace=wrap;" parent="45" vertex="1">
          <mxGeometry x="3" y="7" width="12" height="6" as="geometry" />
        </mxCell>
        <mxCell id="47" style="vsdxID=36;fillColor=#B3B3B3;gradientColor=none;fillOpacity=60;shape=stencil(UzV2Ls5ILEhVNTIoLinKz04tz0wpyVA1dlE1MsrMy0gtyiwBslSNXVWNndPyi1LTi/JL81Ig/IJEkEoQKze/DGRCBUSfAUiHkUElMs8NojAnMw9JoaEBqlIzMz0zc+KVw/hYFaMqNcZvMh4XAxkIf6Zl5uRAgglZHj1cgEKQMDV2BQA=);strokeColor=#000000;labelBackgroundColor=none;rounded=0;html=1;whiteSpace=wrap;" parent="45" vertex="1">
          <mxGeometry width="15" height="9" as="geometry" />
        </mxCell>
        <mxCell id="48" style="vsdxID=37;fillColor=#FFFFFF;gradientColor=none;shape=stencil(UzV2Ls5ILEhVNTIoLinKz04tz0wpyVA1dlE1MsrMy0gtyiwBslSNXVWNndPyi1LTi/JL81Ig/IJEkEoQKze/DGRCBUSfAUiHkUElMs8NojAnMw9JoaEBqlIzMz0zc+KVw/hQxUAGwkUQzyDLobseKATxubErAA==);strokeColor=#000000;labelBackgroundColor=none;rounded=0;html=1;whiteSpace=wrap;" parent="45" vertex="1">
          <mxGeometry width="15" height="9" as="geometry" />
        </mxCell>
        <mxCell id="49" style="vsdxID=38;fillColor=#FFFFFF;gradientColor=none;shape=stencil(XY9LDoAgDERP0z3SI/i5BwkoRAWC+Lu9kGpEdzPtazsFrBctvALOlhjcqHYjowZsgHNjtQomJgXYAta9C2oIbrWSvBeZzGp2W95w0BzLE5ydpesInIwtwIp90cffcBLvCUpX9v5xUolewfYC);strokeColor=#000000;labelBackgroundColor=none;rounded=0;html=1;whiteSpace=wrap;" parent="45" vertex="1">
          <mxGeometry y="1" width="15" height="6" as="geometry" />
        </mxCell>
        <mxCell id="50" style="vsdxID=39;fillColor=#FFFFFF;gradientColor=none;shape=stencil(dY9ZCoAwDERPk1+pDegBXO4hWG1RW6l1u70tUVzAv5nkJcwAZpOsRgGcTc6aTqyqdhIwB86VlsIq5xVgAZg1xorWmlnX5McqkEENZgkfNrpj4YKz/elKAnulf0FMoiT9h2P2xi9/wl7ceajKc/fN7kfUG4sD);strokeColor=#FFFFFF;labelBackgroundColor=none;rounded=0;html=1;whiteSpace=wrap;" parent="45" vertex="1">
          <mxGeometry width="15" height="9" as="geometry" />
        </mxCell>
        <mxCell id="51" style="vsdxID=40;rotation=330;fillColor=#FFFFFF;gradientColor=#008000;shape=stencil(vVHLDsIgEPwajiQI6RfU+h8bu22JCGRB2/69kG1iazx58DazM/vIjjBtmiCi0CplCjecbZ8nYc5Ca+snJJsLEqYTph0C4Ujh4XvmEaqzont41gkL96naodXKrGF6YSfQtUi0OXXDVlqPfJNP6usotUhYbJIUMmQb/GGrAxpRljVycDBuc1hKM2LclX8/7H9nFfB+82Cd45T2+mcspcSRmu4F);strokeColor=#000000;strokeWidth=0;labelBackgroundColor=none;rounded=0;html=1;whiteSpace=wrap;" parent="27" vertex="1">
          <mxGeometry x="58" y="51" width="2" height="2" as="geometry" />
        </mxCell>
        <mxCell id="52" style="vsdxID=41;fillColor=#FFFFFF;gradientColor=#c6d1e3;shape=stencil(lZLZcsMgDEW/hkdrWFRcntPkP5gE20yp8WCy/X1xoRPbWaZ9E1dHQlxExGbs9GAIp2MM/tOc7SF2RHwQzm3fmWBjiojYErFpfDBt8Mf+kM+Dnsgp+vKnqcMl1yFwnIo4vWZBIiD/UXaZd7Z/xXNA8RynC5bOQR32KRMKyBGhlpkOBWdCgSxawRhddhRpngJU+mLHKvioo/V9Tr8reCt5p0NrqnRp1TjdLqYbz8YMd/LD96zv/z3/CVY1UPncAkEVcLayoJaAuLDgxY89NkExQPlvE9h80BTcFqixzuX9m+fXC5ekvKxi+w0=);strokeColor=#000000;labelBackgroundColor=none;rounded=0;html=1;whiteSpace=wrap;" parent="27" vertex="1">
          <mxGeometry x="39" y="11" width="22" height="40" as="geometry" />
        </mxCell>
        <mxCell id="53" value="&lt;font style=&quot;font-size:16px;font-family:SimSun;color:#000000;direction:ltr;letter-spacing:0px;line-height:120%;opacity:1&quot;&gt;前后台用户PC&lt;br/&gt;&lt;/font&gt;" style="text;vsdxID=16;fillColor=none;gradientColor=none;labelBackgroundColor=none;rounded=0;strokeColor=none;html=1;whiteSpace=wrap;verticalAlign=middle;align=center;;html=1;" parent="27" vertex="1">
          <mxGeometry x="-82.68" y="14.19" width="121.36" height="31.61" as="geometry" />
        </mxCell>
        <mxCell id="54" style="vsdxID=50;fillColor=none;gradientColor=none;labelBackgroundColor=none;rounded=0;strokeColor=none;html=1;whiteSpace=wrap;" parent="1" vertex="1">
          <mxGeometry x="686.22" y="277" width="72" height="100" as="geometry" />
        </mxCell>
        <mxCell id="55" style="vsdxID=51;fillColor=#FF00FF;gradientColor=none;fillOpacity=0;strokeOpacity=0;shape=stencil(tVPBcoQgDP0ajmaQoOh5u/0PZheVqRUH2a7798WiU9HW9tDeQvJC3nuZEDwNjewVYXRw1ryou766huATYUx3jbLa+YjgmeCpMlbV1ty6a3j3ckJO0at5m34YQ19K6dTD6GN+cyjwI/Mc4K3uVvA8hYxHDfR7cPwz45DyAzBQFuGLfIOX9uKrdmHiiQa8nRs4QiZCasaggFLE8ha5YyJHPSTWOOm06SLCrbS1Svy4pGplHZWGu1L9Lv2loK2zIoMi/z18t4jN3gTQWBoiiPLArxxEtjHMjyh+MAzLZQv/YtmOY1ruOGYRxSPhf0UxXVP0wefxVLptw+2t69tj86lwqHh+Bw==);labelBackgroundColor=none;rounded=0;html=1;whiteSpace=wrap;" parent="54" vertex="1">
          <mxGeometry width="72" height="100" as="geometry" />
        </mxCell>
        <mxCell id="56" style="vsdxID=52;fillColor=#ffffff;gradientColor=#e1d8c1;gradientDirection=north;shape=stencil(fVHbEoIgEP0aHmFQvD6X/QeTqEwEzkJpfx9ETtrtbffc2GUR29mBjwKl1DowJzHJ1g2I7VGaSj0IkM5XiDWI7ToDogdz0W3sRx6UoTqba0iYo4+VpM6DK6W3iCSUPvpDlCupV/KFXMTeXlW/5UVC8mxj+JO9TfbWolyLORw9C0tyQaokGmAZPMlIWUdstV35dTs6Yz5Li8E47qTRmxEUh15g/yDuFO83lJ2EGD/g54i+eP1zJ5WKZ1rz73fxULwpa+4=);strokeColor=#ffffff;spacingTop=-3;spacingBottom=-3;spacingLeft=-3;spacingRight=-3;labelBackgroundColor=none;rounded=0;html=1;whiteSpace=wrap;" parent="54" vertex="1">
          <mxGeometry width="72" height="39" as="geometry" />
        </mxCell>
        <mxCell id="57" style="vsdxID=53;fillColor=#ffffff;gradientColor=#c9ba96;shape=stencil(rVJBEoMgDHwNRxkEHfFs7T+YisqUihNptb8vFDtVO3rqLcnuJiwJYsXQil4iSgYL5ipHVdkWsROiVHWtBGVdhFiJWFEbkA2Ye1eFvBee6aObefgOU9DFhHgNJc85zzFP35VzoAu4OBQ+9CzBMQ8KmCUpxykLpZm1bjlnUyQmNURgrLDKdCtMC2hk5EZFtRbNChpGKftFOV4+TqtO7o3lMc6SIycEp1snGWZ05eTne8h/3ZB9N3mO8+R4Ny747rVWWoezWOLbO3ClcEOsfAE=);strokeColor=#a78450;spacingTop=-3;spacingBottom=-3;spacingLeft=-3;spacingRight=-3;labelBackgroundColor=none;rounded=0;html=1;whiteSpace=wrap;" parent="54" vertex="1">
          <mxGeometry y="24" width="27" height="75" as="geometry" />
        </mxCell>
        <mxCell id="58" style="vsdxID=54;fillColor=#ffffff;gradientColor=#b6a06d;shape=stencil(UzV2Ls5ILEhVNTIoLinKz04tz0wpyVA1dlE1MsrMy0gtyiwBslSNXVWNndPyi1LTi/JL81Ig/IJEkEoQKze/DGRCBUSfAUiHkUElhGdkoWdqBhZxgyjOyczDqdjQwAC3UpgkTLG5oZ65EfHK8ZhMwMVABsKvaZk5OZCgQpZHDxugECRcjV0B);strokeColor=#ffffff;spacingTop=-3;spacingBottom=-3;spacingLeft=-3;spacingRight=-3;labelBackgroundColor=none;rounded=0;html=1;whiteSpace=wrap;" parent="54" vertex="1">
          <mxGeometry x="27" y="14" width="44" height="85" as="geometry" />
        </mxCell>
        <mxCell id="59" value="" style="verticalAlign=middle;align=center;vsdxID=55;fillColor=#000000;gradientColor=none;shape=stencil(jZLdEoIgEIWfhksZBPzp2uw9mERlMnFWSnv7MHQSraa73bPfgV0WxLK+Fp1ElPQG9EUOqjA1YkdEqWprCcrYCLEcsazUICvQt7ZweScmcoqu+j6dMDpfSMjkoeQx5xyn7KWcHN6odoXHIY64ZyDfYf9kynHIf8CYUI9P4w0v4GyrsHRiG3U8zAbOcJQ4aWZYgg+JP94y7hiIUfUBaCOM0q3XcCOgkoG9LigbUXmlfpCy28kfB9q+bBLhNP4f3y3CBu8luv2va9uFW8l9FpY/AQ==);strokeColor=#000000;strokeWidth=2;spacingTop=-3;spacingBottom=-3;spacingLeft=-3;spacingRight=-3;labelBackgroundColor=none;rounded=0;html=1;whiteSpace=wrap;" parent="54" vertex="1">
          <mxGeometry width="72" height="100" as="geometry" />
        </mxCell>
        <mxCell id="60" style="vsdxID=56;rotation=340;fillColor=#FFFFFF;gradientColor=#339966;shape=stencil(vVHLDsIgEPwajiQI6RfU+h8bu22JCGRB2/69kG1iazx58DazM/vIjjBtmiCi0CplCjecbZ8nYc5Ca+snJJsLEqYTph0C4Ujh4XvmEaqzont41gkL96naodXKrGF6YSfQtUi0OXXDVlqPfJNP6usotUhYbJIUMmQb/GGrAxpRljVycDBuc1hKM2LclX8/7H9nFfB+82Cd45T2+mcspcSRmu4F);strokeColor=#000000;labelBackgroundColor=none;rounded=0;html=1;whiteSpace=wrap;" parent="54" vertex="1">
          <mxGeometry x="10" y="61" width="4" height="5" as="geometry" />
        </mxCell>
        <mxCell id="61" style="vsdxID=57;fillColor=#FFFFFF;gradientColor=#e7e4cd;gradientDirection=north;shape=stencil(xZLdDoIwDIWfZpcsowMc1wrvseiARWWkzL+3d6So+BO8Mt61PafdvuQwuewb3RkGovfotuZkN75hcsUAbNsYtD5UTBZMLiuHpkZ3aDfUd3pwDtXeHYcLZ9oTwwaIy7QryahxHRQcjaByLhS58XKbKZ7kNBttsXi+mGY8htER6bPtI3Ree+ta0pXkaUb6TmNtovBqVO10/fS9/mRM9zYuvwNBzPNkHip+Z0phlmmhuMj+x5RIrtQXJvgAlcxC3ftfIYXiEULK71R7DWwYUdhlcQU=);strokeColor=#000000;strokeWidth=2;labelBackgroundColor=none;rounded=0;html=1;whiteSpace=wrap;" parent="54" vertex="1">
          <mxGeometry x="4" y="74" width="18" height="16" as="geometry" />
        </mxCell>
        <mxCell id="62" style="vsdxID=58;fillColor=none;gradientColor=none;labelBackgroundColor=none;rounded=0;strokeColor=none;html=1;whiteSpace=wrap;" parent="54" vertex="1">
          <mxGeometry x="3" y="35" width="19" height="21" as="geometry" />
        </mxCell>
        <mxCell id="63" style="vsdxID=59;fillColor=#000000;gradientColor=none;shape=stencil(vZPdcoMgEIWfhkt3gEXQ6zR5D6ZBZWLFQfLTty8W+kPatDdt7tZzzsLHjktwswx6NoTTJXh3MGe7DwPBB8K5nQbjbYgVwS3BTee86b07Tvv0Pes1uVZP7rSecEl9CMjWJk6fk8AECHxVdimv/WN0fc5zFFAnn/rcgi0H0SYtx1oJvCnPpTQnKn2xS+Vd0MG6KbnZG7XvTRVvrLpR94W1nI2Zv8jfMgpQsiRU0Kpf+Jr4bnEvwngdsKshNgwUFpA1MFXOEFD+KSK7jYhAm5Iw4siCjwLlBV8Nqr7XCOX7tN74GANeAv7wc/8LYSw+9qyz45jW9LN/vZdRSjuN2xc=);strokeColor=#000000;labelBackgroundColor=none;rounded=0;html=1;whiteSpace=wrap;" parent="62" vertex="1">
          <mxGeometry width="19" height="11" as="geometry" />
        </mxCell>
        <mxCell id="64" style="vsdxID=60;fillColor=#FFFFFF;gradientColor=#e7e4cd;shape=stencil(pVFLDoIwED1NlzTTlmBZ+7lHIwUakZKhCt7e4mAUxZW7mffpvOYxte1r01kmoQ/oT3ZwRaiZ2jEpXVtbdCFOTO2Z2pYebYX+0ha0d2ZSTtPZX6cXRvIJgMkj4UZ7rjmIB3IgucFjZPEpl4JrRQ6cLUJonueEzTLJ083iWQkc9CxJzOj6BH0wwfmWeJ1zugqNwcom8WpSNqYido7YD9Z2X/BqTg1cZMuYWcqFXKT8/ff1kPBfwji8Wihd01CJ7/xnaxGixtX+Dg==);strokeColor=#FFFFFF;strokeWidth=0;labelBackgroundColor=none;rounded=0;html=1;whiteSpace=wrap;" parent="62" vertex="1">
          <mxGeometry x="5" y="5" width="5" height="3" as="geometry" />
        </mxCell>
        <mxCell id="65" style="vsdxID=61;fillColor=#000000;gradientColor=#e7e4cd;fillOpacity=40;shape=stencil(rVJLEoIwDD1Nl3RK4lBc+7lHRwt0rJQJVfD2lqkfQHTlLp/3krwkDDdtpRrNQLSe3El35ugrhlsGYOpKk/HBYrhjuCkc6ZLcpT5Gv1EDcrDO7jpU6CNPDAwQt7G3j0Br6q9ARC5xDFZ0CFl6gEGmHFaRQU8KZDyPoQcqFdOiL79PVG/ahJxX3rh6MoBVVOoktEsKq8pJqu20bj7Ci2rmrbOMg/yhJxcc1jM9KLmc6Fna5b+0pOPhgvG+Z2Gsje8wzs/vH0Lxd3B3Bw==);strokeColor=none;strokeWidth=0;labelBackgroundColor=none;rounded=0;html=1;whiteSpace=wrap;" parent="62" vertex="1">
          <mxGeometry y="6" width="18" height="14" as="geometry" />
        </mxCell>
        <mxCell id="66" style="vsdxID=62;fillColor=#000000;gradientColor=none;shape=stencil(rVLLEoIwDPyaHun0gRbOiP/R0QIdK2XSqvj3Fouj1UEv3pLNbpKdBPHKdXJQiBHnwR7URe99h/gGMab7ToH2IUK8RrxqLKgW7Knfx3yQE3OKjvY8dRijjkwKRq4xoxSz8o5sI1nCLlRhJrN8hVciKmCW8HKNSRGxmUbJW9dHPmZy1C4D66XXtk82MBJalYV5WWNkm5TcRanhA543NLpXy6OLAgv6xZCgOOepoZwLLMrEUNrzv2bospkftwnB86qNNiY+xWv9/QsCFD+I1zc=);strokeColor=none;labelBackgroundColor=none;rounded=0;html=1;whiteSpace=wrap;" parent="62" vertex="1">
          <mxGeometry y="7" width="18" height="10" as="geometry" />
        </mxCell>
        <mxCell id="67" style="vsdxID=63;fillColor=none;gradientColor=none;fillOpacity=40;shape=stencil(dVDRDoIwDPyaPY6M1ojviP+xyBiLuJFuCv69W4YKGt/uendtcwxr38tRMRA+kLuoybShZ3hkAMb2ikyIiGHDsO4cKU3uZtvMR5mcCV3dPW2Yc06kBIjHmp2ycTD2rxGxqHBtlnSOKi1mqMoCdjlBrwjsi0MeLa5SbJe++czlbDwnF2Qwzm4eGCRpxeM53g1SbyQ/KTX+jJcHI/h0kOtba999xVHuGpsn);strokeColor=#FFFFFF;labelBackgroundColor=none;rounded=0;html=1;whiteSpace=wrap;" parent="62" vertex="1">
          <mxGeometry y="6" width="18" height="14" as="geometry" />
        </mxCell>
        <mxCell id="68" style="vsdxID=64;fillColor=#000000;gradientColor=#e7e4cd;fillOpacity=40;shape=stencil(fVDLDsIgEPwajjR0N2n1XPU/iKUtsUKzoK1/L4QawYO3mZ0HZBh2bpKLYiCcJ3tTq+79xPDEALSZFGkfEMMzw26wpEayD9MnvsjojOhun7FhS7laiJgB8Sr5JZlnbf6Ym6aCNrdLugaVdjscRAXHlKA9gthWKfIpLSt3tnG5acfJeum1NYU2SxoVD0/xYZZjIblVqSU71/nnAviukAbMtd/Fwimtjec3);strokeColor=#000000;labelBackgroundColor=none;rounded=0;html=1;whiteSpace=wrap;" parent="62" vertex="1">
          <mxGeometry y="6" width="18" height="14" as="geometry" />
        </mxCell>
        <mxCell id="69" value="&lt;font style=&quot;font-size:16px;font-family:SimSun;color:#000000;direction:ltr;letter-spacing:0px;line-height:120%;opacity:1&quot;&gt;LightBus&lt;br/&gt;10.180.3.10&lt;br/&gt;10.180.3.11&lt;br/&gt;10.180.3.12&lt;br/&gt;&lt;/font&gt;" style="text;vsdxID=50;fillColor=none;gradientColor=none;labelBackgroundColor=none;rounded=0;strokeColor=none;html=1;whiteSpace=wrap;verticalAlign=middle;align=center;;html=1;" parent="54" vertex="1">
          <mxGeometry x="15.55" y="-86.29" width="112.9" height="92.57" as="geometry" />
        </mxCell>
        <mxCell id="70" style="vsdxID=148;fillColor=none;gradientColor=none;labelBackgroundColor=none;rounded=0;strokeColor=none;html=1;whiteSpace=wrap;" parent="1" vertex="1">
          <mxGeometry x="850.22" y="27" width="72" height="100" as="geometry" />
        </mxCell>
        <mxCell id="71" style="vsdxID=149;fillColor=#FF00FF;gradientColor=none;fillOpacity=0;strokeOpacity=0;shape=stencil(vZTbUoMwEIafhkt2ciKH61rfI2NDmxGhE6jFtzcYwAY01Bn1Lux+/252l01Gd+1Jn01GUNu55tlc7aE7ZfQhI8TWJ+Ns508Z3Wd0VzbOHF1zqQ/h+6wHcji9NK9DhD7ohADMBxVBb8GiFCj8YXkMgsrWsYBEvERA1Q94H1+KW351oQ1euyfvdSPPgMvAu1FAw+folxTIIiCfJX2ue9vmrul0Z5s6+FHwVdodTe6T5WWlj5GrvRpzXpm/LH+dXijgPCFAUMS8hASOEYppDEzcj2MKKoFzDAWLBIlS48iEgGAJGNDiN8KAi+/HzBmIIp4zw3OMEaJiqmaeNQOC/2vWhS8qTi8VCJLcja3li5cDi2UGikGyRNvEomcEGNvoGeXTwv1JzxYXLECtxjpN+o6qf+uKUdP94fO9LG1Vhef21r98X70pvM10/w4=);labelBackgroundColor=none;rounded=0;html=1;whiteSpace=wrap;" parent="70" vertex="1">
          <mxGeometry y="-1" width="72" height="106" as="geometry" />
        </mxCell>
        <mxCell id="72" style="vsdxID=150;fillColor=#ffffff;gradientColor=#e1d8c1;gradientDirection=north;shape=stencil(fVHbEoIgEP0aHmFQvD6X/QeTqEwEzkJpfx9ETtrtbffc2GUR29mBjwKl1DowJzHJ1g2I7VGaSj0IkM5XiDWI7ToDogdz0W3sRx6UoTqba0iYo4+VpM6DK6W3iCSUPvpDlCupV/KFXMTeXlW/5UVC8mxj+JO9TfbWolyLORw9C0tyQaokGmAZPMlIWUdstV35dTs6Yz5Li8E47qTRmxEUh15g/yDuFO83lJ2EGD/g54i+eP1zJ5WKZ1rz73fxULwpa+4=);strokeColor=#ffffff;spacingTop=-3;spacingBottom=-3;spacingLeft=-3;spacingRight=-3;labelBackgroundColor=none;rounded=0;html=1;whiteSpace=wrap;" parent="70" vertex="1">
          <mxGeometry width="72" height="39" as="geometry" />
        </mxCell>
        <mxCell id="73" style="vsdxID=151;fillColor=#ffffff;gradientColor=#c9ba96;shape=stencil(rVJBEoMgDHwNRxkEHfFs7T+YisqUihNptb8vFDtVO3rqLcnuJiwJYsXQil4iSgYL5ipHVdkWsROiVHWtBGVdhFiJWFEbkA2Ye1eFvBee6aObefgOU9DFhHgNJc85zzFP35VzoAu4OBQ+9CzBMQ8KmCUpxykLpZm1bjlnUyQmNURgrLDKdCtMC2hk5EZFtRbNChpGKftFOV4+TqtO7o3lMc6SIycEp1snGWZ05eTne8h/3ZB9N3mO8+R4Ny747rVWWoezWOLbO3ClcEOsfAE=);strokeColor=#ffffff;spacingTop=-3;spacingBottom=-3;spacingLeft=-3;spacingRight=-3;labelBackgroundColor=none;rounded=0;html=1;whiteSpace=wrap;" parent="70" vertex="1">
          <mxGeometry y="24" width="27" height="75" as="geometry" />
        </mxCell>
        <mxCell id="74" style="vsdxID=152;fillColor=#ffffff;gradientColor=#b6a06d;shape=stencil(UzV2Ls5ILEhVNTIoLinKz04tz0wpyVA1dlE1MsrMy0gtyiwBslSNXVWNndPyi1LTi/JL81Ig/IJEkEoQKze/DGRCBUSfAUiHkUElhGdkoWdqBhZxgyjOyczDqdjQwAC3UpgkTLG5oZ65EfHK8ZhMwMVABsKvaZk5OZCgQpZHDxugECRcjV0B);strokeColor=#ffffff;spacingTop=-3;spacingBottom=-3;spacingLeft=-3;spacingRight=-3;labelBackgroundColor=none;rounded=0;html=1;whiteSpace=wrap;" parent="70" vertex="1">
          <mxGeometry x="27" y="14" width="44" height="85" as="geometry" />
        </mxCell>
        <mxCell id="75" value="" style="verticalAlign=middle;align=center;vsdxID=153;fillColor=#000000;gradientColor=none;shape=stencil(jZLdEoIgEIWfhksZBPzp2uw9mERlMnFWSnv7MHQSraa73bPfgV0WxLK+Fp1ElPQG9EUOqjA1YkdEqWprCcrYCLEcsazUICvQt7ZweScmcoqu+j6dMDpfSMjkoeQx5xyn7KWcHN6odoXHIY64ZyDfYf9kynHIf8CYUI9P4w0v4GyrsHRiG3U8zAbOcJQ4aWZYgg+JP94y7hiIUfUBaCOM0q3XcCOgkoG9LigbUXmlfpCy28kfB9q+bBLhNP4f3y3CBu8luv2va9uFW8l9FpY/AQ==);strokeColor=#000000;spacingTop=-3;spacingBottom=-3;spacingLeft=-3;spacingRight=-3;labelBackgroundColor=none;rounded=0;html=1;whiteSpace=wrap;" parent="70" vertex="1">
          <mxGeometry width="72" height="100" as="geometry" />
        </mxCell>
        <mxCell id="76" style="vsdxID=154;rotation=340;fillColor=#FFFFFF;gradientColor=#339966;shape=stencil(vVHLDsIgEPwajiQI6RfU+h8bu22JCGRB2/69kG1iazx58DazM/vIjjBtmiCi0CplCjecbZ8nYc5Ca+snJJsLEqYTph0C4Ujh4XvmEaqzont41gkL96naodXKrGF6YSfQtUi0OXXDVlqPfJNP6usotUhYbJIUMmQb/GGrAxpRljVycDBuc1hKM2LclX8/7H9nFfB+82Cd45T2+mcspcSRmu4F);strokeColor=#000000;labelBackgroundColor=none;rounded=0;html=1;whiteSpace=wrap;" parent="70" vertex="1">
          <mxGeometry x="10" y="61" width="4" height="5" as="geometry" />
        </mxCell>
        <mxCell id="77" style="vsdxID=155;fillColor=#FFFFFF;gradientColor=#e7e4cd;gradientDirection=north;shape=stencil(xZLdDoIwDIWfZpcsowMc1wrvseiARWWkzL+3d6So+BO8Mt61PafdvuQwuewb3RkGovfotuZkN75hcsUAbNsYtD5UTBZMLiuHpkZ3aDfUd3pwDtXeHYcLZ9oTwwaIy7QryahxHRQcjaByLhS58XKbKZ7kNBttsXi+mGY8htER6bPtI3Ree+ta0pXkaUb6TmNtovBqVO10/fS9/mRM9zYuvwNBzPNkHip+Z0phlmmhuMj+x5RIrtQXJvgAlcxC3ftfIYXiEULK71R7DWwYUdhlcQU=);strokeColor=#000000;strokeWidth=2;labelBackgroundColor=none;rounded=0;html=1;whiteSpace=wrap;" parent="70" vertex="1">
          <mxGeometry x="4" y="74" width="18" height="16" as="geometry" />
        </mxCell>
        <mxCell id="78" style="vsdxID=156;fillColor=none;gradientColor=none;labelBackgroundColor=none;rounded=0;strokeColor=none;html=1;whiteSpace=wrap;" parent="70" vertex="1">
          <mxGeometry x="3" y="35" width="19" height="21" as="geometry" />
        </mxCell>
        <mxCell id="79" style="vsdxID=157;fillColor=#000000;gradientColor=none;shape=stencil(vZPdcoMgEIWfhkt3gEXQ6zR5D6ZBZWLFQfLTty8W+kPatDdt7tZzzsLHjktwswx6NoTTJXh3MGe7DwPBB8K5nQbjbYgVwS3BTee86b07Tvv0Pes1uVZP7rSecEl9CMjWJk6fk8AECHxVdimv/WN0fc5zFFAnn/rcgi0H0SYtx1oJvCnPpTQnKn2xS+Vd0MG6KbnZG7XvTRVvrLpR94W1nI2Zv8jfMgpQsiRU0Kpf+Jr4bnEvwngdsKshNgwUFpA1MFXOEFD+KSK7jYhAm5Iw4siCjwLlBV8Nqr7XCOX7tN74GANeAv7wc/8LYSw+9qyz45jW9LN/vZdRSjuN2xc=);strokeColor=#000000;labelBackgroundColor=none;rounded=0;html=1;whiteSpace=wrap;" parent="78" vertex="1">
          <mxGeometry width="19" height="11" as="geometry" />
        </mxCell>
        <mxCell id="80" style="vsdxID=158;fillColor=#FFFFFF;gradientColor=#e7e4cd;shape=stencil(pVFLDoIwED1NlzTTlmBZ+7lHIwUakZKhCt7e4mAUxZW7mffpvOYxte1r01kmoQ/oT3ZwRaiZ2jEpXVtbdCFOTO2Z2pYebYX+0ha0d2ZSTtPZX6cXRvIJgMkj4UZ7rjmIB3IgucFjZPEpl4JrRQ6cLUJonueEzTLJ083iWQkc9CxJzOj6BH0wwfmWeJ1zugqNwcom8WpSNqYido7YD9Z2X/BqTg1cZMuYWcqFXKT8/ff1kPBfwji8Wihd01CJ7/xnaxGixtX+Dg==);strokeColor=#FFFFFF;strokeWidth=0;labelBackgroundColor=none;rounded=0;html=1;whiteSpace=wrap;" parent="78" vertex="1">
          <mxGeometry x="5" y="5" width="5" height="3" as="geometry" />
        </mxCell>
        <mxCell id="81" style="vsdxID=159;fillColor=#000000;gradientColor=#e7e4cd;fillOpacity=40;shape=stencil(rVJLEoIwDD1Nl3RK4lBc+7lHRwt0rJQJVfD2lqkfQHTlLp/3krwkDDdtpRrNQLSe3El35ugrhlsGYOpKk/HBYrhjuCkc6ZLcpT5Gv1EDcrDO7jpU6CNPDAwQt7G3j0Br6q9ARC5xDFZ0CFl6gEGmHFaRQU8KZDyPoQcqFdOiL79PVG/ahJxX3rh6MoBVVOoktEsKq8pJqu20bj7Ci2rmrbOMg/yhJxcc1jM9KLmc6Fna5b+0pOPhgvG+Z2Gsje8wzs/vH0Lxd3B3Bw==);strokeColor=none;strokeWidth=0;labelBackgroundColor=none;rounded=0;html=1;whiteSpace=wrap;" parent="78" vertex="1">
          <mxGeometry y="6" width="18" height="14" as="geometry" />
        </mxCell>
        <mxCell id="82" style="vsdxID=160;fillColor=#000000;gradientColor=none;shape=stencil(rVLLEoIwDPyaHun0gRbOiP/R0QIdK2XSqvj3Fouj1UEv3pLNbpKdBPHKdXJQiBHnwR7URe99h/gGMab7ToH2IUK8RrxqLKgW7Knfx3yQE3OKjvY8dRijjkwKRq4xoxSz8o5sI1nCLlRhJrN8hVciKmCW8HKNSRGxmUbJW9dHPmZy1C4D66XXtk82MBJalYV5WWNkm5TcRanhA543NLpXy6OLAgv6xZCgOOepoZwLLMrEUNrzv2bospkftwnB86qNNiY+xWv9/QsCFD+I1zc=);strokeColor=none;labelBackgroundColor=none;rounded=0;html=1;whiteSpace=wrap;" parent="78" vertex="1">
          <mxGeometry y="7" width="18" height="10" as="geometry" />
        </mxCell>
        <mxCell id="83" style="vsdxID=161;fillColor=none;gradientColor=none;fillOpacity=40;shape=stencil(dVDRDoIwDPyaPY6M1ojviP+xyBiLuJFuCv69W4YKGt/uendtcwxr38tRMRA+kLuoybShZ3hkAMb2ikyIiGHDsO4cKU3uZtvMR5mcCV3dPW2Yc06kBIjHmp2ycTD2rxGxqHBtlnSOKi1mqMoCdjlBrwjsi0MeLa5SbJe++czlbDwnF2Qwzm4eGCRpxeM53g1SbyQ/KTX+jJcHI/h0kOtba999xVHuGpsn);strokeColor=#FFFFFF;labelBackgroundColor=none;rounded=0;html=1;whiteSpace=wrap;" parent="78" vertex="1">
          <mxGeometry y="6" width="18" height="14" as="geometry" />
        </mxCell>
        <mxCell id="84" style="vsdxID=162;fillColor=#000000;gradientColor=#e7e4cd;fillOpacity=40;shape=stencil(fVDLDsIgEPwajjR0N2n1XPU/iKUtsUKzoK1/L4QawYO3mZ0HZBh2bpKLYiCcJ3tTq+79xPDEALSZFGkfEMMzw26wpEayD9MnvsjojOhun7FhS7laiJgB8Sr5JZlnbf6Ym6aCNrdLugaVdjscRAXHlKA9gthWKfIpLSt3tnG5acfJeum1NYU2SxoVD0/xYZZjIblVqSU71/nnAviukAbMtd/Fwimtjec3);strokeColor=#000000;labelBackgroundColor=none;rounded=0;html=1;whiteSpace=wrap;" parent="78" vertex="1">
          <mxGeometry y="6" width="18" height="14" as="geometry" />
        </mxCell>
        <mxCell id="85" style="vsdxID=163;fillColor=none;gradientColor=none;labelBackgroundColor=none;rounded=0;strokeColor=none;html=1;whiteSpace=wrap;" parent="70" vertex="1">
          <mxGeometry x="36" y="71" width="25" height="35" as="geometry" />
        </mxCell>
        <mxCell id="86" value="" style="verticalAlign=middle;align=center;vsdxID=164;fillColor=#FFFFFF;gradientColor=#f0daac;shape=stencil(rVPNcoMgEH4aju4sIC2c0/Q9mAaVKRUHaWPfvlhiExJrLrkt+/2w+i2E78ZOD4YwHGPw7+ZoD7Ej/IUwZvvOBBtTRfie8F3jg2mD/+wP+TzomTlXH/5rdpiyTlKQs4jhd27UCOrpt/Oa+c72W3yloKDr8JbAcKLTGlBkflgEgHXuTH8OihaeUi0z4FTpyY5V8FFH6/uMY8acDq2p0oVV43RbQOPRmOGmvfpFt9dzCUL8LxAMRMFnCJRu8BNcCijfFKSBVMHfmh6e5bX36f+uB6KAyjIQyoDzIhEsHRHqJbG1NKh8aB73NzIV53VurHOXyPXip1Z+NHz/Aw==);strokeColor=#000000;spacingTop=-3;spacingBottom=-3;spacingLeft=-3;spacingRight=-3;labelBackgroundColor=none;rounded=0;html=1;whiteSpace=wrap;" parent="85" vertex="1">
          <mxGeometry width="23" height="35" as="geometry" />
        </mxCell>
        <mxCell id="87" value="" style="verticalAlign=middle;align=center;vsdxID=165;fillColor=#FFFFFF;gradientColor=#f3e2c0;shape=stencil(hZDdDsIgDIWfprekUlnkes73WDImRISFMX/eXpAsbibTu3Pa7zRtgepRt4MCjmMM/qLuposa6AicG6dVMDEpoAao7n1Q5+An1xU/tJnM6upvecKj5DAnOD6LqwQT/F05Fdgat4ClZAexCuwQt/G5OcO0Zyi3cWRYrfgfo/+sncTn4N5Yu+x8vyaVylupeQE=);strokeColor=#000000;spacingTop=-3;spacingBottom=-3;spacingLeft=-3;spacingRight=-3;labelBackgroundColor=none;rounded=0;html=1;whiteSpace=wrap;" parent="85" vertex="1">
          <mxGeometry y="3" width="19" height="31" as="geometry" />
        </mxCell>
        <mxCell id="88" style="vsdxID=166;fillColor=#FFFFFF;gradientColor=none;shape=stencil(hZCxDoMwDES/xity4w7NTOl/IBGaCEhQSEv79yRyEUkXtrP97qQzUL3odlYgcAneDWo1XdBAdxDCWK28CVEBNUB177x6eveyHc9zm8ikJvdOCR/2YXII/ObTg8HR2Ay8YIkSVShzvMw9xct0KavbtTDsAT88iqMCt89v/3Xjil9FzQY=);strokeColor=#d0bc9d;labelBackgroundColor=none;rounded=0;html=1;whiteSpace=wrap;" parent="85" vertex="1">
          <mxGeometry x="1" y="3" width="18" height="30" as="geometry" />
        </mxCell>
        <mxCell id="89" style="vsdxID=167;fillColor=#FFFFFF;gradientColor=none;shape=stencil(hZDNDoMgEISfZq8G2Zro2Z/3MJEWooJBqu3bC1lNoRdvs7vfTDILWK+yXwRwtjprRrGrwUnABjhXWgqrnFeALWD9NFa8rHnrgealD2RQs9lCwod8LDg4+8ZTR+CkdATmLEXxkWFMp7F3dJpdVVlZJPzlP3EvfgWoe3z7L+tX9ChsDw==);strokeColor=#FFFFFF;labelBackgroundColor=none;rounded=0;html=1;whiteSpace=wrap;" parent="85" vertex="1">
          <mxGeometry y="3" width="19" height="31" as="geometry" />
        </mxCell>
        <mxCell id="90" value="" style="verticalAlign=middle;align=center;vsdxID=168;fillColor=#000000;gradientColor=none;shape=stencil(rVPRUsMgEPwaHnMDHER4rvU/GEsTxhgyhNr49xJJa2htfPHt2Ns9ltmD4G5szWAJp2MM/s2e3SG2BJ8J565vbXAxVQT3BHdHH2wT/Kk/5PNgZuZcvfuPecKUdXRWcPqZT7UG+vSNvGRy5/oVWTFQBV9rqNd0E15TMyx0JoDKzA8XAVDMyHSdoFkxUyWkXjiVmdxYBR9NdL5fpqrFc2dCY6t0ZXXsTFM8ZzxbO9zBv77p3gAqkPKxQHKQohBwCoxtCChgwWcITGw4Aq0L/pZ7kPp2Nj5OBK9WLoEwDUIXiZQbwSgIsZHGv2bxxzKm4meN8w9Y925XPkH5u+D+Cw==);strokeColor=#000000;spacingTop=-3;spacingBottom=-3;spacingLeft=-3;spacingRight=-3;labelBackgroundColor=none;rounded=0;html=1;whiteSpace=wrap;" parent="85" vertex="1">
          <mxGeometry width="23" height="35" as="geometry" />
        </mxCell>
        <mxCell id="91" style="vsdxID=169;fillColor=none;gradientColor=none;labelBackgroundColor=none;rounded=0;strokeColor=none;html=1;whiteSpace=wrap;" parent="85" vertex="1">
          <mxGeometry x="3" y="12" width="13" height="13" as="geometry" />
        </mxCell>
        <mxCell id="92" style="vsdxID=170;fillColor=#FFFFFF;gradientColor=#0000FF;shape=stencil(vVHRDsIgDPwaHkkQsi+Y8z8a121EBFLQbX8vpEvcjE8++HbXu16bVpg2TRBRaJUyhRvOts+TMGehtfUTks0FCdMJ0w6BcKTw8D3zCNVZ0T08a8LCfap2aLUya5he2Al0LRJtTt2wldYj3+ST+hqlFgmLTZJChmyDP0x1QCPKMkYODsYth6U0I8Zd+ffF/rdWAe8zD9a5vfL5kFLiZ5ruBQ==);strokeColor=#000000;labelBackgroundColor=none;rounded=0;html=1;whiteSpace=wrap;" parent="91" vertex="1">
          <mxGeometry width="13" height="13" as="geometry" />
        </mxCell>
        <mxCell id="93" style="vsdxID=171;fillColor=#4ebd39;gradientColor=none;shape=stencil(vVjJctswDP0aH40hwf3cpv+haZxEU9fOyG6T/n2hSqQMSGYvlm42xQXLw8Mjd+bL5a15P+xQXa7d+cfho32+vu3M1x1ie3o7dO2Vfu3M0858eTl3h9fu/Ov0PPx/b/qZ/a+f59/9Dp/DOqvBmH4Vqj/DiFbq3/9vw/Rje7qdHsAENj1awHS7oOm+09duXIAB3Lh/N65AD8YPQ+MkFwD5rj4C6nHOvvlsL/vufG2u7fk0Ghk8qHGTY9O9HvZ07P7l2LwO3wcX1OXjcHifDS8aqhG854bSkNbMUHLfcUNdBGcrhqqH2mjAi2DSkLLMRhMg8ox6StGKNnKEGAdW8+MVWF9xSoFxwikFOvHAo4SpQ3C4WeBTOb7YSInncbfFoHGK9RAeaqGuFKYB7djpJkGwlQWuVGFeQHlylcRGiJEt6Au5ZhJCEguIbLAKHcOho13eYnkBsVES5JVLdtmkJMFJ9WMrJ9gIyXIfKNCVBY5KlJuEFnzFJKoOjTJKvpI47wB5ptFBCPcXBA2WkxZBI1UOSOA4Moj2Kvv3BvHSVJnzl+eHQt15gQMWUl58MXtXai+WtOcpClBwnp4oZH16UKAEhaWc9GIiQZl7HSjzZit+iLHEIwcR7zvkdGnI2SEqHcW7diIUcSBStZga4+kQM7QfFHljZuAwWFgkG2qLmMgVk4ody4YCPlRcGOoEAiBEdjrsBEJQsJmHVFNBDwaxRLDj9oUAifMIcWHw69knEKxKwKaG5d19h/xM0PkJnqNLOOuaqrDr+kVJzCyY0MoeLKhQFyWXfaKsBC4AiY+9gDsx7opkKJzCouemDmhrDS1JwYoysfOGw8Om0/9apmz7Pve4ey1K6HxbPcD5Wenmnrs8nxyU+9e0l52IYJxPG1SUlFUyB5WEUVmIwiJI1WQaQhBXRg2hAnPaT4goypeqdHxfiGaqXM8rl9S2ErJpVbUtbrWzexjdRnjTMbMU9Iwat7LQFmIrDacENTthJQhJSJrNFAnly4maCZndlhdY4LBLWQYuTtdWyFJSabXLhC4leHv7qDjQPw+IE2IG5TIz5tvPjcOuUgZUxaNIm1QYNUGuwtQMY5t1ZFdEVIYY3Vwq/lDVy7cgipiPzB8SlTzLdFFVK4JSmBjLRaKbkmT5Tb9PpHiMKI9g27wCKS1sRGkjKU5hIzXB8NhXoEocJ8ExMXjgdzZi8MTrP9iJRFcHr9XyQkRKylVciiCAMXW1m5c3XhDRFt2/QVPC/M42dSUtHqnuP/euEnL6MT08v7TH4+0X+URNQ8Pztnn6Cw==);strokeColor=#000000;labelBackgroundColor=none;rounded=0;html=1;whiteSpace=wrap;" parent="91" vertex="1">
          <mxGeometry width="13" height="12" as="geometry" />
        </mxCell>
        <mxCell id="94" value="&lt;font style=&quot;font-size:16px;font-family:SimSun;color:#000000;direction:ltr;letter-spacing:0px;line-height:120%;opacity:1&quot;&gt;客户端自动升级服务FTP&lt;br/&gt;10.180.5.55&lt;br/&gt;&lt;/font&gt;" style="text;vsdxID=148;fillColor=none;gradientColor=none;labelBackgroundColor=none;rounded=0;strokeColor=none;html=1;whiteSpace=wrap;verticalAlign=middle;align=center;;html=1;" parent="70" vertex="1">
          <mxGeometry x="-62.78" y="100" width="197.56" height="51.93" as="geometry" />
        </mxCell>
        <mxCell id="95" style="vsdxID=270;fillColor=none;gradientColor=none;labelBackgroundColor=none;rounded=0;strokeColor=none;html=1;whiteSpace=wrap;" parent="1" vertex="1">
          <mxGeometry x="586.22" y="137" width="72" height="100" as="geometry" />
        </mxCell>
        <mxCell id="96" style="vsdxID=271;fillColor=#FF00FF;gradientColor=none;fillOpacity=0;strokeOpacity=0;shape=stencil(tVRBcsMgDHyNj9YAwsac0/QfTIMTpq6dwU7j/r641KkVJ6SH9gbSrlhpGWW46Q/maDPB+sF3r/bsdsMhw6dMCNcerHdDOGW4zXBTd97ufXdqd/F+NBNyOr1171OFMfIqDlpOLME+YkQpYNVX5DkSGtcuCJwxCmdQqN/DOYLS9+Elh4LKYffBtLIQIIsEGJgg+IoBxyXe+JeQ9bMSCXEKzH8TZOg0EuaaqEArUlTj5ZkxN6Prc98NZnBdSyQ3xu9tHh7M68bsSao/W3tchW+2JEuQSHvSkBjuGq8vU7lJUAglJcx23oRXAjg1T5dQJTxZE8Ln42WC8Pi30u/NQ5o6hBykTNgeBPAr38Oj1QPfMYyW/5/vVxpLELjSKAXRmOr8rzTypcZw+FkytWuauKOW+eulFEJxoeH2Ew==);labelBackgroundColor=none;rounded=0;html=1;whiteSpace=wrap;" parent="95" vertex="1">
          <mxGeometry width="72" height="107" as="geometry" />
        </mxCell>
        <mxCell id="97" style="vsdxID=272;fillColor=#ffffff;gradientColor=#e1d8c1;gradientDirection=north;shape=stencil(fVHbEoIgEP0aHmFQvD6X/QeTqEwEzkJpfx9ETtrtbffc2GUR29mBjwKl1DowJzHJ1g2I7VGaSj0IkM5XiDWI7ToDogdz0W3sRx6UoTqba0iYo4+VpM6DK6W3iCSUPvpDlCupV/KFXMTeXlW/5UVC8mxj+JO9TfbWolyLORw9C0tyQaokGmAZPMlIWUdstV35dTs6Yz5Li8E47qTRmxEUh15g/yDuFO83lJ2EGD/g54i+eP1zJ5WKZ1rz73fxULwpa+4=);strokeColor=#ffffff;spacingTop=-3;spacingBottom=-3;spacingLeft=-3;spacingRight=-3;labelBackgroundColor=none;rounded=0;html=1;whiteSpace=wrap;" parent="95" vertex="1">
          <mxGeometry width="72" height="39" as="geometry" />
        </mxCell>
        <mxCell id="98" style="vsdxID=273;fillColor=#ffffff;gradientColor=#c9ba96;shape=stencil(rVJBEoMgDHwNRxkEHfFs7T+YisqUihNptb8vFDtVO3rqLcnuJiwJYsXQil4iSgYL5ipHVdkWsROiVHWtBGVdhFiJWFEbkA2Ye1eFvBee6aObefgOU9DFhHgNJc85zzFP35VzoAu4OBQ+9CzBMQ8KmCUpxykLpZm1bjlnUyQmNURgrLDKdCtMC2hk5EZFtRbNChpGKftFOV4+TqtO7o3lMc6SIycEp1snGWZ05eTne8h/3ZB9N3mO8+R4Ny747rVWWoezWOLbO3ClcEOsfAE=);strokeColor=#ffffff;spacingTop=-3;spacingBottom=-3;spacingLeft=-3;spacingRight=-3;labelBackgroundColor=none;rounded=0;html=1;whiteSpace=wrap;" parent="95" vertex="1">
          <mxGeometry y="24" width="27" height="75" as="geometry" />
        </mxCell>
        <mxCell id="99" style="vsdxID=274;fillColor=#ffffff;gradientColor=#b6a06d;shape=stencil(UzV2Ls5ILEhVNTIoLinKz04tz0wpyVA1dlE1MsrMy0gtyiwBslSNXVWNndPyi1LTi/JL81Ig/IJEkEoQKze/DGRCBUSfAUiHkUElhGdkoWdqBhZxgyjOyczDqdjQwAC3UpgkTLG5oZ65EfHK8ZhMwMVABsKvaZk5OZCgQpZHDxugECRcjV0B);strokeColor=#ffffff;spacingTop=-3;spacingBottom=-3;spacingLeft=-3;spacingRight=-3;labelBackgroundColor=none;rounded=0;html=1;whiteSpace=wrap;" parent="95" vertex="1">
          <mxGeometry x="27" y="14" width="44" height="85" as="geometry" />
        </mxCell>
        <mxCell id="100" value="" style="verticalAlign=middle;align=center;vsdxID=275;fillColor=#000000;gradientColor=none;shape=stencil(jZLdEoIgEIWfhksZBPzp2uw9mERlMnFWSnv7MHQSraa73bPfgV0WxLK+Fp1ElPQG9EUOqjA1YkdEqWprCcrYCLEcsazUICvQt7ZweScmcoqu+j6dMDpfSMjkoeQx5xyn7KWcHN6odoXHIY64ZyDfYf9kynHIf8CYUI9P4w0v4GyrsHRiG3U8zAbOcJQ4aWZYgg+JP94y7hiIUfUBaCOM0q3XcCOgkoG9LigbUXmlfpCy28kfB9q+bBLhNP4f3y3CBu8luv2va9uFW8l9FpY/AQ==);strokeColor=#000000;spacingTop=-3;spacingBottom=-3;spacingLeft=-3;spacingRight=-3;labelBackgroundColor=none;rounded=0;html=1;whiteSpace=wrap;" parent="95" vertex="1">
          <mxGeometry width="72" height="100" as="geometry" />
        </mxCell>
        <mxCell id="101" style="vsdxID=276;rotation=340;fillColor=#FFFFFF;gradientColor=#339966;shape=stencil(vVHLDsIgEPwajiQI6RfU+h8bu22JCGRB2/69kG1iazx58DazM/vIjjBtmiCi0CplCjecbZ8nYc5Ca+snJJsLEqYTph0C4Ujh4XvmEaqzont41gkL96naodXKrGF6YSfQtUi0OXXDVlqPfJNP6usotUhYbJIUMmQb/GGrAxpRljVycDBuc1hKM2LclX8/7H9nFfB+82Cd45T2+mcspcSRmu4F);strokeColor=#000000;labelBackgroundColor=none;rounded=0;html=1;whiteSpace=wrap;" parent="95" vertex="1">
          <mxGeometry x="10" y="61" width="4" height="5" as="geometry" />
        </mxCell>
        <mxCell id="102" style="vsdxID=277;fillColor=#FFFFFF;gradientColor=#e7e4cd;gradientDirection=north;shape=stencil(xZLdDoIwDIWfZpcsowMc1wrvseiARWWkzL+3d6So+BO8Mt61PafdvuQwuewb3RkGovfotuZkN75hcsUAbNsYtD5UTBZMLiuHpkZ3aDfUd3pwDtXeHYcLZ9oTwwaIy7QryahxHRQcjaByLhS58XKbKZ7kNBttsXi+mGY8htER6bPtI3Ree+ta0pXkaUb6TmNtovBqVO10/fS9/mRM9zYuvwNBzPNkHip+Z0phlmmhuMj+x5RIrtQXJvgAlcxC3ftfIYXiEULK71R7DWwYUdhlcQU=);strokeColor=#000000;strokeWidth=2;labelBackgroundColor=none;rounded=0;html=1;whiteSpace=wrap;" parent="95" vertex="1">
          <mxGeometry x="4" y="74" width="18" height="16" as="geometry" />
        </mxCell>
        <mxCell id="103" style="vsdxID=278;fillColor=none;gradientColor=none;labelBackgroundColor=none;rounded=0;strokeColor=none;html=1;whiteSpace=wrap;" parent="95" vertex="1">
          <mxGeometry x="3" y="35" width="19" height="21" as="geometry" />
        </mxCell>
        <mxCell id="104" style="vsdxID=279;fillColor=#000000;gradientColor=none;shape=stencil(vZPdcoMgEIWfhkt3gEXQ6zR5D6ZBZWLFQfLTty8W+kPatDdt7tZzzsLHjktwswx6NoTTJXh3MGe7DwPBB8K5nQbjbYgVwS3BTee86b07Tvv0Pes1uVZP7rSecEl9CMjWJk6fk8AECHxVdimv/WN0fc5zFFAnn/rcgi0H0SYtx1oJvCnPpTQnKn2xS+Vd0MG6KbnZG7XvTRVvrLpR94W1nI2Zv8jfMgpQsiRU0Kpf+Jr4bnEvwngdsKshNgwUFpA1MFXOEFD+KSK7jYhAm5Iw4siCjwLlBV8Nqr7XCOX7tN74GANeAv7wc/8LYSw+9qyz45jW9LN/vZdRSjuN2xc=);strokeColor=#000000;labelBackgroundColor=none;rounded=0;html=1;whiteSpace=wrap;" parent="103" vertex="1">
          <mxGeometry width="19" height="11" as="geometry" />
        </mxCell>
        <mxCell id="105" style="vsdxID=280;fillColor=#FFFFFF;gradientColor=#e7e4cd;shape=stencil(pVFLDoIwED1NlzTTlmBZ+7lHIwUakZKhCt7e4mAUxZW7mffpvOYxte1r01kmoQ/oT3ZwRaiZ2jEpXVtbdCFOTO2Z2pYebYX+0ha0d2ZSTtPZX6cXRvIJgMkj4UZ7rjmIB3IgucFjZPEpl4JrRQ6cLUJonueEzTLJ083iWQkc9CxJzOj6BH0wwfmWeJ1zugqNwcom8WpSNqYido7YD9Z2X/BqTg1cZMuYWcqFXKT8/ff1kPBfwji8Wihd01CJ7/xnaxGixtX+Dg==);strokeColor=#FFFFFF;strokeWidth=0;labelBackgroundColor=none;rounded=0;html=1;whiteSpace=wrap;" parent="103" vertex="1">
          <mxGeometry x="5" y="5" width="5" height="3" as="geometry" />
        </mxCell>
        <mxCell id="106" style="vsdxID=281;fillColor=#000000;gradientColor=#e7e4cd;fillOpacity=40;shape=stencil(rVJLEoIwDD1Nl3RK4lBc+7lHRwt0rJQJVfD2lqkfQHTlLp/3krwkDDdtpRrNQLSe3El35ugrhlsGYOpKk/HBYrhjuCkc6ZLcpT5Gv1EDcrDO7jpU6CNPDAwQt7G3j0Br6q9ARC5xDFZ0CFl6gEGmHFaRQU8KZDyPoQcqFdOiL79PVG/ahJxX3rh6MoBVVOoktEsKq8pJqu20bj7Ci2rmrbOMg/yhJxcc1jM9KLmc6Fna5b+0pOPhgvG+Z2Gsje8wzs/vH0Lxd3B3Bw==);strokeColor=none;strokeWidth=0;labelBackgroundColor=none;rounded=0;html=1;whiteSpace=wrap;" parent="103" vertex="1">
          <mxGeometry y="6" width="18" height="14" as="geometry" />
        </mxCell>
        <mxCell id="107" style="vsdxID=282;fillColor=#000000;gradientColor=none;shape=stencil(rVLLEoIwDPyaHun0gRbOiP/R0QIdK2XSqvj3Fouj1UEv3pLNbpKdBPHKdXJQiBHnwR7URe99h/gGMab7ToH2IUK8RrxqLKgW7Knfx3yQE3OKjvY8dRijjkwKRq4xoxSz8o5sI1nCLlRhJrN8hVciKmCW8HKNSRGxmUbJW9dHPmZy1C4D66XXtk82MBJalYV5WWNkm5TcRanhA543NLpXy6OLAgv6xZCgOOepoZwLLMrEUNrzv2bospkftwnB86qNNiY+xWv9/QsCFD+I1zc=);strokeColor=none;labelBackgroundColor=none;rounded=0;html=1;whiteSpace=wrap;" parent="103" vertex="1">
          <mxGeometry y="7" width="18" height="10" as="geometry" />
        </mxCell>
        <mxCell id="108" style="vsdxID=283;fillColor=none;gradientColor=none;fillOpacity=40;shape=stencil(dVDRDoIwDPyaPY6M1ojviP+xyBiLuJFuCv69W4YKGt/uendtcwxr38tRMRA+kLuoybShZ3hkAMb2ikyIiGHDsO4cKU3uZtvMR5mcCV3dPW2Yc06kBIjHmp2ycTD2rxGxqHBtlnSOKi1mqMoCdjlBrwjsi0MeLa5SbJe++czlbDwnF2Qwzm4eGCRpxeM53g1SbyQ/KTX+jJcHI/h0kOtba999xVHuGpsn);strokeColor=#FFFFFF;labelBackgroundColor=none;rounded=0;html=1;whiteSpace=wrap;" parent="103" vertex="1">
          <mxGeometry y="6" width="18" height="14" as="geometry" />
        </mxCell>
        <mxCell id="109" style="vsdxID=284;fillColor=#000000;gradientColor=#e7e4cd;fillOpacity=40;shape=stencil(fVDLDsIgEPwajjR0N2n1XPU/iKUtsUKzoK1/L4QawYO3mZ0HZBh2bpKLYiCcJ3tTq+79xPDEALSZFGkfEMMzw26wpEayD9MnvsjojOhun7FhS7laiJgB8Sr5JZlnbf6Ym6aCNrdLugaVdjscRAXHlKA9gthWKfIpLSt3tnG5acfJeum1NYU2SxoVD0/xYZZjIblVqSU71/nnAviukAbMtd/Fwimtjec3);strokeColor=#000000;labelBackgroundColor=none;rounded=0;html=1;whiteSpace=wrap;" parent="103" vertex="1">
          <mxGeometry y="6" width="18" height="14" as="geometry" />
        </mxCell>
        <mxCell id="110" style="vsdxID=285;fillColor=none;gradientColor=none;labelBackgroundColor=none;rounded=0;strokeColor=none;html=1;whiteSpace=wrap;" parent="95" vertex="1">
          <mxGeometry x="33" y="72" width="25" height="35" as="geometry" />
        </mxCell>
        <mxCell id="111" value="" style="verticalAlign=middle;align=center;vsdxID=286;fillColor=#e7e4cd;gradientColor=#ff6600;shape=stencil(jZHdDoIwDIWfZrdLaRmOa8T3IGHI4tzIwL+3l7kQAYPh7rT9TtOcMir6tuoUQ+gH7y7qoeuhZXRkiNq2yuthVIxKRkXjvDp7d7N1rLsqkEFd3T1seEYfBAfCK1ZZzkl8OqcIG21n8CHjSbYwJADb+DSc4Bw44X4ccy7TbRwFF3Jh+HMKrK7mqdwL/2Qyim+ajTZmPlnnPrbiz6h8Aw==);strokeColor=#000000;spacingTop=-3;spacingBottom=-3;spacingLeft=-3;spacingRight=-3;labelBackgroundColor=none;rounded=0;html=1;whiteSpace=wrap;" parent="110" vertex="1">
          <mxGeometry width="25" height="35" as="geometry" />
        </mxCell>
        <mxCell id="112" style="vsdxID=287;fillColor=#FFFFFF;gradientColor=none;shape=stencil(lZTdboMwDIWfJreWYzt/1133HpXKBtoGFaX7efsFoWqkGRG5C+GcLzmOZcWHa3u6NIrwOo3DW/PVnadW8ZMi6vq2GbsprhQfFR9ehrF5HYdbf16+L6dZOa8+hs+Z8L34cHYQ/qy/nhfhe9evhC6A1YmYBdBsGzSmbDJAYS1PL1LNzw33E//l44MUXA1aBJzZCycCzTV0Y0H7vXRmMLaGbt19Zwc9Bg2hhh53UPbSY1ChGnpAELdNl/iMIb1OvP/2AbneE9hC6bUGL2k1CahQ/tzgsFggssCUFskBFzLkBmuK7ZOHNgSm0KC5wSJwoYXy0BzA+5oqSWzSwkPnodkAFlopNwhB1UNrB0bXRMgGXFz8jd1lYq//PY7ouLWMdz7+Ag==);strokeColor=#e7e4cd;labelBackgroundColor=none;rounded=0;html=1;whiteSpace=wrap;" parent="110" vertex="1">
          <mxGeometry x="1" y="4" width="22" height="29" as="geometry" />
        </mxCell>
        <mxCell id="113" value="" style="verticalAlign=middle;align=center;vsdxID=288;fillColor=#000000;gradientColor=none;shape=stencil(jZHdDoIwDIWfZrdLaWGOa8T3IGG6RWVk4N/by2yIgMFwd9p+p2lOBRWdrVojELo++LN5uLq3gvYC0TXWBNcPSlApqDj6YE7B35qa67aKZFRXf48bnuyD6EB4caVySdmnc2D44poJvFMyUTNDArCOj8MRzkESbscxlzpdxzGTmZ4Z/pwCi6tlqrfCP5kM4psmP2I6WyY/tPhrVL4B);strokeColor=#000000;spacingTop=-3;spacingBottom=-3;spacingLeft=-3;spacingRight=-3;labelBackgroundColor=none;rounded=0;html=1;whiteSpace=wrap;" parent="110" vertex="1">
          <mxGeometry width="25" height="35" as="geometry" />
        </mxCell>
        <mxCell id="114" value="&lt;font style=&quot;font-size:16px;font-family:SimSun;color:#000000;direction:ltr;letter-spacing:0px;line-height:120%;opacity:1&quot;&gt;Proxy.Server&lt;br/&gt;10.180.3.20&lt;br/&gt;10.180.3.21&lt;br/&gt;&lt;/font&gt;" style="text;vsdxID=270;fillColor=none;gradientColor=none;labelBackgroundColor=none;rounded=0;strokeColor=none;html=1;whiteSpace=wrap;verticalAlign=middle;align=center;;html=1;" parent="95" vertex="1">
          <mxGeometry x="59.32" y="-36.13" width="121.36" height="72.25" as="geometry" />
        </mxCell>
        <mxCell id="115" style="vsdxID=333;fillColor=none;gradientColor=none;labelBackgroundColor=none;rounded=0;strokeColor=none;html=1;whiteSpace=wrap;" parent="1" vertex="1">
          <mxGeometry x="502.23" y="362" width="56" height="104" as="geometry" />
        </mxCell>
        <mxCell id="116" style="vsdxID=334;fillColor=#FF00FF;gradientColor=none;fillOpacity=0;strokeOpacity=0;shape=stencil(vVbRcoMgEPwaH70B7kB4TtP/cBqTOLWaQdukf18tsQ3QkmSm9g1h79zdg4MMV/2+PFSZYP1gu+fqWG+GfYYPmRB1u69sPYyjDNcZrradrXa2e2037vtQTshp9NK9TRlOLo4zNsUI9n7+LoDrz5lHB2/q9gJeIDDtBRhgJoEPsjNgeDNaJ1NTRIX9Dg5oIPAiAQYmPDwpMJ4ppX0aV+3MRIAkF2DPEUKAcNznpCNb5SfVIGdIXp7qPrfdUA5113qUm9Luqnz8Yb5typ231B+r6hBN36CfDMhEGSL9GgFlQr8ExEA/QiE9/UKBDHYOA8P/ywCMRRnQCRPiACOAKO2CiF0gzwUZufB1AJf3IDzrWiUdCOES523+I9wQGB8vgPE70jOgxKG82qiCvsbBSD9AA3lqg/IpUCooHwFd28SCz0djkQJGHMM+Q4Dco5gS/lcU+T2+S4JU7yzmTXKpSeEV22UBxYK9I7Kdh/2N5hvkBuGL2D4Ovu/0bd007klwuR6+AcYp937A9Qc=);labelBackgroundColor=none;rounded=0;html=1;whiteSpace=wrap;" parent="115" vertex="1">
          <mxGeometry width="56" height="104" as="geometry" />
        </mxCell>
        <mxCell id="117" style="vsdxID=335;fillColor=none;gradientColor=none;labelBackgroundColor=none;rounded=0;strokeColor=none;html=1;whiteSpace=wrap;" parent="115" vertex="1">
          <mxGeometry y="37" width="39" height="56" as="geometry" />
        </mxCell>
        <mxCell id="118" style="vsdxID=336;fillColor=#ffffff;gradientColor=#e1d8c1;gradientDirection=north;shape=stencil(fVHbEoIgEP0aHmFQvD6X/QeTqEwEzkJpfx9ETtrtbffc2GUR29mBjwKl1DowJzHJ1g2I7VGaSj0IkM5XiDWI7ToDogdz0W3sRx6UoTqba0iYo4+VpM6DK6W3iCSUPvpDlCupV/KFXMTeXlW/5UVC8mxj+JO9TfbWolyLORw9C0tyQaokGmAZPMlIWUdstV35dTs6Yz5Li8E47qTRmxEUh15g/yDuFO83lJ2EGD/g54i+eP1zJ5WKZ1rz73fxULwpa+4=);strokeColor=#ffffff;spacingTop=-3;spacingBottom=-3;spacingLeft=-3;spacingRight=-3;labelBackgroundColor=none;rounded=0;html=1;whiteSpace=wrap;" parent="117" vertex="1">
          <mxGeometry width="39" height="22" as="geometry" />
        </mxCell>
        <mxCell id="119" style="vsdxID=337;fillColor=#ffffff;gradientColor=#c9ba96;shape=stencil(rVJBEoMgDHwNRxkEHfFs7T+YisqUihNptb8vFDtVO3rqLcnuJiwJYsXQil4iSgYL5ipHVdkWsROiVHWtBGVdhFiJWFEbkA2Ye1eFvBee6aObefgOU9DFhHgNJc85zzFP35VzoAu4OBQ+9CzBMQ8KmCUpxykLpZm1bjlnUyQmNURgrLDKdCtMC2hk5EZFtRbNChpGKftFOV4+TqtO7o3lMc6SIycEp1snGWZ05eTne8h/3ZB9N3mO8+R4Ny747rVWWoezWOLbO3ClcEOsfAE=);strokeColor=#ffffff;spacingTop=-3;spacingBottom=-3;spacingLeft=-3;spacingRight=-3;labelBackgroundColor=none;rounded=0;html=1;whiteSpace=wrap;" parent="117" vertex="1">
          <mxGeometry y="13" width="14" height="43" as="geometry" />
        </mxCell>
        <mxCell id="120" style="vsdxID=338;fillColor=#ffffff;gradientColor=#b6a06d;shape=stencil(UzV2Ls5ILEhVNTIoLinKz04tz0wpyVA1dlE1MsrMy0gtyiwBslSNXVWNndPyi1LTi/JL81Ig/IJEkEoQKze/DGRCBUSfAUiHkUElhGdkoWdqBhZxgyjOyczDqdjQwAC3UpgkTLG5oZ65EfHK8ZhMwMVABsKvaZk5OZCgQpZHDxugECRcjV0B);strokeColor=#ffffff;spacingTop=-3;spacingBottom=-3;spacingLeft=-3;spacingRight=-3;labelBackgroundColor=none;rounded=0;html=1;whiteSpace=wrap;" parent="117" vertex="1">
          <mxGeometry x="14" y="8" width="24" height="48" as="geometry" />
        </mxCell>
        <mxCell id="121" value="" style="verticalAlign=middle;align=center;vsdxID=339;fillColor=#000000;gradientColor=none;shape=stencil(jZLdEoIgEIWfhksZBPzp2uw9mERlMnFWSnv7MHQSraa73bPfgV0WxLK+Fp1ElPQG9EUOqjA1YkdEqWprCcrYCLEcsazUICvQt7ZweScmcoqu+j6dMDpfSMjkoeQx5xyn7KWcHN6odoXHIY64ZyDfYf9kynHIf8CYUI9P4w0v4GyrsHRiG3U8zAbOcJQ4aWZYgg+JP94y7hiIUfUBaCOM0q3XcCOgkoG9LigbUXmlfpCy28kfB9q+bBLhNP4f3y3CBu8luv2va9uFW8l9FpY/AQ==);strokeColor=#000000;spacingTop=-3;spacingBottom=-3;spacingLeft=-3;spacingRight=-3;labelBackgroundColor=none;rounded=0;html=1;whiteSpace=wrap;" parent="117" vertex="1">
          <mxGeometry width="39" height="56" as="geometry" />
        </mxCell>
        <mxCell id="122" style="vsdxID=340;rotation=340;fillColor=#FFFFFF;gradientColor=#339966;shape=stencil(vVHLDsIgEPwajiQI6RfU+h8bu22JCGRB2/69kG1iazx58DazM/vIjjBtmiCi0CplCjecbZ8nYc5Ca+snJJsLEqYTph0C4Ujh4XvmEaqzont41gkL96naodXKrGF6YSfQtUi0OXXDVlqPfJNP6usotUhYbJIUMmQb/GGrAxpRljVycDBuc1hKM2LclX8/7H9nFfB+82Cd45T2+mcspcSRmu4F);strokeColor=#000000;labelBackgroundColor=none;rounded=0;html=1;whiteSpace=wrap;" parent="117" vertex="1">
          <mxGeometry x="5" y="34" width="2" height="3" as="geometry" />
        </mxCell>
        <mxCell id="123" style="vsdxID=341;fillColor=#FFFFFF;gradientColor=#e7e4cd;gradientDirection=north;shape=stencil(xZLdDsIgDIWfhssRKPvB67m9B1HciDqWDv/eXpYu6jRxV8a7tue08CWHqXJoTW8ZiCGg39uL24aWqTUDcF1r0YVYMVUxVe482gb9qdtS35vROVZHfx4vXGlPjBsgbq9dTUaDm6jgZFRCcklmnNxQ5HylaTa5pJgfzHIuYXIk5uqGBH0wwfmOdJ3xrCD9YLCxSXw02R1MM/vdcLG2/xjXyzwg+SpdYIJ3qOIrUaG5yP9HlCqu9QJR+kHEBXyFevS/QorFM4EU3lftPa1xRElX1R0=);strokeColor=#000000;strokeWidth=2;labelBackgroundColor=none;rounded=0;html=1;whiteSpace=wrap;" parent="117" vertex="1">
          <mxGeometry x="2" y="42" width="10" height="9" as="geometry" />
        </mxCell>
        <mxCell id="124" style="vsdxID=342;fillColor=none;gradientColor=none;labelBackgroundColor=none;rounded=0;strokeColor=none;html=1;whiteSpace=wrap;" parent="117" vertex="1">
          <mxGeometry x="2" y="20" width="10" height="11" as="geometry" />
        </mxCell>
        <mxCell id="125" style="vsdxID=343;fillColor=#000000;gradientColor=none;shape=stencil(vZPdcoMgEIWfhkt3gEXQ6zR5D6ZBZWLFQfLTty8W+kPatDdt7tZzzsLHjktwswx6NoTTJXh3MGe7DwPBB8K5nQbjbYgVwS3BTee86b07Tvv0Pes1uVZP7rSecEl9CMjWJk6fk8AECHxVdimv/WN0fc5zFFAnn/rcgi0H0SYtx1oJvCnPpTQnKn2xS+Vd0MG6KbnZG7XvTRVvrLpR94W1nI2Zv8jfMgpQsiRU0Kpf+Jr4bnEvwngdsKshNgwUFpA1MFXOEFD+KSK7jYhAm5Iw4siCjwLlBV8Nqr7XCOX7tN74GANeAv7wc/8LYSw+9qyz45jW9LN/vZdRSjuN2xc=);strokeColor=#000000;labelBackgroundColor=none;rounded=0;html=1;whiteSpace=wrap;" parent="124" vertex="1">
          <mxGeometry width="10" height="6" as="geometry" />
        </mxCell>
        <mxCell id="126" style="vsdxID=344;fillColor=#FFFFFF;gradientColor=#e7e4cd;shape=stencil(pVFLDoIwED1NlzTTliCs/dyjkQKNSMlQBW9vcWoUxZW7mfeZvuYxtR0a3RsmYfDoTma0pW+Y2jEpbdcYtD5MTO2Z2lYOTY3u0pW093pWztPZXecLE/kEwOyRcKO9yDmIB3IgucZjYPEplxkvUnJgtAiRcklQVEmebhZXJXDIoyTRkx0SdF576zri84KL6Gg11iYJryZVq2uiY8RhNKb/gldz5sBFtoyZpVwsY/7++3pK+C9hGF4tVLZtqcR3/rO1AFHjan8H);strokeColor=#FFFFFF;strokeWidth=0;labelBackgroundColor=none;rounded=0;html=1;whiteSpace=wrap;" parent="124" vertex="1">
          <mxGeometry x="3" y="3" width="3" height="2" as="geometry" />
        </mxCell>
        <mxCell id="127" style="vsdxID=345;fillColor=#000000;gradientColor=#e7e4cd;fillOpacity=40;shape=stencil(rVJLEoIwDD1Nl3RK4lBc+7lHRwt0rJQJVfD2lqkfQHTlLp/3krwkDDdtpRrNQLSe3El35ugrhlsGYOpKk/HBYrhjuCkc6ZLcpT5Gv1EDcrDO7jpU6CNPDAwQt7G3j0Br6q9ARC5xDFZ0CFl6gEGmHFaRQU8KZDyPoQcqFdOiL79PVG/ahJxX3rh6MoBVVOoktEsKq8pJqu20bj7Ci2rmrbOMg/yhJxcc1jM9KLmc6Fna5b+0pOPhgvG+Z2Gsje8wzs/vH0Lxd3B3Bw==);strokeColor=none;strokeWidth=0;labelBackgroundColor=none;rounded=0;html=1;whiteSpace=wrap;" parent="124" vertex="1">
          <mxGeometry y="3" width="10" height="8" as="geometry" />
        </mxCell>
        <mxCell id="128" style="vsdxID=346;fillColor=#000000;gradientColor=none;shape=stencil(rVLLEoIwDPyaHun0gRbOiP/R0QIdK2XSqvj3Fouj1UEv3pLNbpKdBPHKdXJQiBHnwR7URe99h/gGMab7ToH2IUK8RrxqLKgW7Knfx3yQE3OKjvY8dRijjkwKRq4xoxSz8o5sI1nCLlRhJrN8hVciKmCW8HKNSRGxmUbJW9dHPmZy1C4D66XXtk82MBJalYV5WWNkm5TcRanhA543NLpXy6OLAgv6xZCgOOepoZwLLMrEUNrzv2bospkftwnB86qNNiY+xWv9/QsCFD+I1zc=);strokeColor=none;labelBackgroundColor=none;rounded=0;html=1;whiteSpace=wrap;" parent="124" vertex="1">
          <mxGeometry y="4" width="10" height="6" as="geometry" />
        </mxCell>
        <mxCell id="129" style="vsdxID=347;fillColor=none;gradientColor=none;fillOpacity=40;shape=stencil(dVDRDoIwDPyaPY6M1ojviP+xyBiLuJFuCv69W4YKGt/uendtcwxr38tRMRA+kLuoybShZ3hkAMb2ikyIiGHDsO4cKU3uZtvMR5mcCV3dPW2Yc06kBIjHmp2ycTD2rxGxqHBtlnSOKi1mqMoCdjlBrwjsi0MeLa5SbJe++czlbDwnF2Qwzm4eGCRpxeM53g1SbyQ/KTX+jJcHI/h0kOtba999xVHuGpsn);strokeColor=#FFFFFF;labelBackgroundColor=none;rounded=0;html=1;whiteSpace=wrap;" parent="124" vertex="1">
          <mxGeometry y="3" width="10" height="8" as="geometry" />
        </mxCell>
        <mxCell id="130" style="vsdxID=348;fillColor=#000000;gradientColor=#e7e4cd;fillOpacity=40;shape=stencil(fVDLDsIgEPwajjR0N2n1XPU/iKUtsUKzoK1/L4QawYO3mZ0HZBh2bpKLYiCcJ3tTq+79xPDEALSZFGkfEMMzw26wpEayD9MnvsjojOhun7FhS7laiJgB8Sr5JZlnbf6Ym6aCNrdLugaVdjscRAXHlKA9gthWKfIpLSt3tnG5acfJeum1NYU2SxoVD0/xYZZjIblVqSU71/nnAviukAbMtd/Fwimtjec3);strokeColor=#000000;labelBackgroundColor=none;rounded=0;html=1;whiteSpace=wrap;" parent="124" vertex="1">
          <mxGeometry y="3" width="10" height="8" as="geometry" />
        </mxCell>
        <mxCell id="131" style="vsdxID=349;fillColor=none;gradientColor=none;labelBackgroundColor=none;rounded=0;strokeColor=none;html=1;whiteSpace=wrap;" parent="115" vertex="1">
          <mxGeometry width="39" height="56" as="geometry" />
        </mxCell>
        <mxCell id="132" style="vsdxID=350;fillColor=#ffffff;gradientColor=#e1d8c1;gradientDirection=north;shape=stencil(fVHbEoIgEP0aHmFQvD6X/QeTqEwEzkJpfx9ETtrtbffc2GUR29mBjwKl1DowJzHJ1g2I7VGaSj0IkM5XiDWI7ToDogdz0W3sRx6UoTqba0iYo4+VpM6DK6W3iCSUPvpDlCupV/KFXMTeXlW/5UVC8mxj+JO9TfbWolyLORw9C0tyQaokGmAZPMlIWUdstV35dTs6Yz5Li8E47qTRmxEUh15g/yDuFO83lJ2EGD/g54i+eP1zJ5WKZ1rz73fxULwpa+4=);strokeColor=#ffffff;spacingTop=-3;spacingBottom=-3;spacingLeft=-3;spacingRight=-3;labelBackgroundColor=none;rounded=0;html=1;whiteSpace=wrap;" parent="131" vertex="1">
          <mxGeometry width="39" height="22" as="geometry" />
        </mxCell>
        <mxCell id="133" style="vsdxID=351;fillColor=#ffffff;gradientColor=#c9ba96;shape=stencil(rVJBEoMgDHwNRxkEHfFs7T+YisqUihNptb8vFDtVO3rqLcnuJiwJYsXQil4iSgYL5ipHVdkWsROiVHWtBGVdhFiJWFEbkA2Ye1eFvBee6aObefgOU9DFhHgNJc85zzFP35VzoAu4OBQ+9CzBMQ8KmCUpxykLpZm1bjlnUyQmNURgrLDKdCtMC2hk5EZFtRbNChpGKftFOV4+TqtO7o3lMc6SIycEp1snGWZ05eTne8h/3ZB9N3mO8+R4Ny747rVWWoezWOLbO3ClcEOsfAE=);strokeColor=#ffffff;spacingTop=-3;spacingBottom=-3;spacingLeft=-3;spacingRight=-3;labelBackgroundColor=none;rounded=0;html=1;whiteSpace=wrap;" parent="131" vertex="1">
          <mxGeometry y="13" width="14" height="43" as="geometry" />
        </mxCell>
        <mxCell id="134" style="vsdxID=352;fillColor=#ffffff;gradientColor=#b6a06d;shape=stencil(UzV2Ls5ILEhVNTIoLinKz04tz0wpyVA1dlE1MsrMy0gtyiwBslSNXVWNndPyi1LTi/JL81Ig/IJEkEoQKze/DGRCBUSfAUiHkUElhGdkoWdqBhZxgyjOyczDqdjQwAC3UpgkTLG5oZ65EfHK8ZhMwMVABsKvaZk5OZCgQpZHDxugECRcjV0B);strokeColor=#ffffff;spacingTop=-3;spacingBottom=-3;spacingLeft=-3;spacingRight=-3;labelBackgroundColor=none;rounded=0;html=1;whiteSpace=wrap;" parent="131" vertex="1">
          <mxGeometry x="14" y="8" width="24" height="48" as="geometry" />
        </mxCell>
        <mxCell id="135" value="" style="verticalAlign=middle;align=center;vsdxID=353;fillColor=#000000;gradientColor=none;shape=stencil(jZLdEoIgEIWfhksZBPzp2uw9mERlMnFWSnv7MHQSraa73bPfgV0WxLK+Fp1ElPQG9EUOqjA1YkdEqWprCcrYCLEcsazUICvQt7ZweScmcoqu+j6dMDpfSMjkoeQx5xyn7KWcHN6odoXHIY64ZyDfYf9kynHIf8CYUI9P4w0v4GyrsHRiG3U8zAbOcJQ4aWZYgg+JP94y7hiIUfUBaCOM0q3XcCOgkoG9LigbUXmlfpCy28kfB9q+bBLhNP4f3y3CBu8luv2va9uFW8l9FpY/AQ==);strokeColor=#000000;spacingTop=-3;spacingBottom=-3;spacingLeft=-3;spacingRight=-3;labelBackgroundColor=none;rounded=0;html=1;whiteSpace=wrap;" parent="131" vertex="1">
          <mxGeometry width="39" height="56" as="geometry" />
        </mxCell>
        <mxCell id="136" style="vsdxID=354;rotation=340;fillColor=#FFFFFF;gradientColor=#339966;shape=stencil(vVHLDsIgEPwajiQI6RfU+h8bu22JCGRB2/69kG1iazx58DazM/vIjjBtmiCi0CplCjecbZ8nYc5Ca+snJJsLEqYTph0C4Ujh4XvmEaqzont41gkL96naodXKrGF6YSfQtUi0OXXDVlqPfJNP6usotUhYbJIUMmQb/GGrAxpRljVycDBuc1hKM2LclX8/7H9nFfB+82Cd45T2+mcspcSRmu4F);strokeColor=#000000;labelBackgroundColor=none;rounded=0;html=1;whiteSpace=wrap;" parent="131" vertex="1">
          <mxGeometry x="5" y="34" width="2" height="3" as="geometry" />
        </mxCell>
        <mxCell id="137" style="vsdxID=355;fillColor=#FFFFFF;gradientColor=#e7e4cd;gradientDirection=north;shape=stencil(xZLdDsIgDIWfhssRKPvB67m9B1HciDqWDv/eXpYu6jRxV8a7tue08CWHqXJoTW8ZiCGg39uL24aWqTUDcF1r0YVYMVUxVe482gb9qdtS35vROVZHfx4vXGlPjBsgbq9dTUaDm6jgZFRCcklmnNxQ5HylaTa5pJgfzHIuYXIk5uqGBH0wwfmOdJ3xrCD9YLCxSXw02R1MM/vdcLG2/xjXyzwg+SpdYIJ3qOIrUaG5yP9HlCqu9QJR+kHEBXyFevS/QorFM4EU3lftPa1xRElX1R0=);strokeColor=#000000;strokeWidth=2;labelBackgroundColor=none;rounded=0;html=1;whiteSpace=wrap;" parent="131" vertex="1">
          <mxGeometry x="2" y="42" width="10" height="9" as="geometry" />
        </mxCell>
        <mxCell id="138" style="vsdxID=356;fillColor=none;gradientColor=none;labelBackgroundColor=none;rounded=0;strokeColor=none;html=1;whiteSpace=wrap;" parent="131" vertex="1">
          <mxGeometry x="2" y="20" width="10" height="11" as="geometry" />
        </mxCell>
        <mxCell id="139" style="vsdxID=357;fillColor=#000000;gradientColor=none;shape=stencil(vZPdcoMgEIWfhkt3gEXQ6zR5D6ZBZWLFQfLTty8W+kPatDdt7tZzzsLHjktwswx6NoTTJXh3MGe7DwPBB8K5nQbjbYgVwS3BTee86b07Tvv0Pes1uVZP7rSecEl9CMjWJk6fk8AECHxVdimv/WN0fc5zFFAnn/rcgi0H0SYtx1oJvCnPpTQnKn2xS+Vd0MG6KbnZG7XvTRVvrLpR94W1nI2Zv8jfMgpQsiRU0Kpf+Jr4bnEvwngdsKshNgwUFpA1MFXOEFD+KSK7jYhAm5Iw4siCjwLlBV8Nqr7XCOX7tN74GANeAv7wc/8LYSw+9qyz45jW9LN/vZdRSjuN2xc=);strokeColor=#000000;labelBackgroundColor=none;rounded=0;html=1;whiteSpace=wrap;" parent="138" vertex="1">
          <mxGeometry width="10" height="6" as="geometry" />
        </mxCell>
        <mxCell id="140" style="vsdxID=358;fillColor=#FFFFFF;gradientColor=#e7e4cd;shape=stencil(pVFLDoIwED1NlzTTliCs/dyjkQKNSMlQBW9vcWoUxZW7mfeZvuYxtR0a3RsmYfDoTma0pW+Y2jEpbdcYtD5MTO2Z2lYOTY3u0pW093pWztPZXecLE/kEwOyRcKO9yDmIB3IgucZjYPEplxkvUnJgtAiRcklQVEmebhZXJXDIoyTRkx0SdF576zri84KL6Gg11iYJryZVq2uiY8RhNKb/gldz5sBFtoyZpVwsY/7++3pK+C9hGF4tVLZtqcR3/rO1AFHjan8H);strokeColor=#FFFFFF;strokeWidth=0;labelBackgroundColor=none;rounded=0;html=1;whiteSpace=wrap;" parent="138" vertex="1">
          <mxGeometry x="3" y="3" width="3" height="2" as="geometry" />
        </mxCell>
        <mxCell id="141" style="vsdxID=359;fillColor=#000000;gradientColor=#e7e4cd;fillOpacity=40;shape=stencil(rVJLEoIwDD1Nl3RK4lBc+7lHRwt0rJQJVfD2lqkfQHTlLp/3krwkDDdtpRrNQLSe3El35ugrhlsGYOpKk/HBYrhjuCkc6ZLcpT5Gv1EDcrDO7jpU6CNPDAwQt7G3j0Br6q9ARC5xDFZ0CFl6gEGmHFaRQU8KZDyPoQcqFdOiL79PVG/ahJxX3rh6MoBVVOoktEsKq8pJqu20bj7Ci2rmrbOMg/yhJxcc1jM9KLmc6Fna5b+0pOPhgvG+Z2Gsje8wzs/vH0Lxd3B3Bw==);strokeColor=none;strokeWidth=0;labelBackgroundColor=none;rounded=0;html=1;whiteSpace=wrap;" parent="138" vertex="1">
          <mxGeometry y="3" width="10" height="8" as="geometry" />
        </mxCell>
        <mxCell id="142" style="vsdxID=360;fillColor=#000000;gradientColor=none;shape=stencil(rVLLEoIwDPyaHun0gRbOiP/R0QIdK2XSqvj3Fouj1UEv3pLNbpKdBPHKdXJQiBHnwR7URe99h/gGMab7ToH2IUK8RrxqLKgW7Knfx3yQE3OKjvY8dRijjkwKRq4xoxSz8o5sI1nCLlRhJrN8hVciKmCW8HKNSRGxmUbJW9dHPmZy1C4D66XXtk82MBJalYV5WWNkm5TcRanhA543NLpXy6OLAgv6xZCgOOepoZwLLMrEUNrzv2bospkftwnB86qNNiY+xWv9/QsCFD+I1zc=);strokeColor=none;labelBackgroundColor=none;rounded=0;html=1;whiteSpace=wrap;" parent="138" vertex="1">
          <mxGeometry y="4" width="10" height="6" as="geometry" />
        </mxCell>
        <mxCell id="143" style="vsdxID=361;fillColor=none;gradientColor=none;fillOpacity=40;shape=stencil(dVDRDoIwDPyaPY6M1ojviP+xyBiLuJFuCv69W4YKGt/uendtcwxr38tRMRA+kLuoybShZ3hkAMb2ikyIiGHDsO4cKU3uZtvMR5mcCV3dPW2Yc06kBIjHmp2ycTD2rxGxqHBtlnSOKi1mqMoCdjlBrwjsi0MeLa5SbJe++czlbDwnF2Qwzm4eGCRpxeM53g1SbyQ/KTX+jJcHI/h0kOtba999xVHuGpsn);strokeColor=#FFFFFF;labelBackgroundColor=none;rounded=0;html=1;whiteSpace=wrap;" parent="138" vertex="1">
          <mxGeometry y="3" width="10" height="8" as="geometry" />
        </mxCell>
        <mxCell id="144" style="vsdxID=362;fillColor=#000000;gradientColor=#e7e4cd;fillOpacity=40;shape=stencil(fVDLDsIgEPwajjR0N2n1XPU/iKUtsUKzoK1/L4QawYO3mZ0HZBh2bpKLYiCcJ3tTq+79xPDEALSZFGkfEMMzw26wpEayD9MnvsjojOhun7FhS7laiJgB8Sr5JZlnbf6Ym6aCNrdLugaVdjscRAXHlKA9gthWKfIpLSt3tnG5acfJeum1NYU2SxoVD0/xYZZjIblVqSU71/nnAviukAbMtd/Fwimtjec3);strokeColor=#000000;labelBackgroundColor=none;rounded=0;html=1;whiteSpace=wrap;" parent="138" vertex="1">
          <mxGeometry y="3" width="10" height="8" as="geometry" />
        </mxCell>
        <mxCell id="145" style="vsdxID=363;fillColor=none;gradientColor=none;labelBackgroundColor=none;rounded=0;strokeColor=none;html=1;whiteSpace=wrap;" parent="115" vertex="1">
          <mxGeometry x="16" y="47" width="39" height="56" as="geometry" />
        </mxCell>
        <mxCell id="146" style="vsdxID=364;fillColor=#ffffff;gradientColor=#e1d8c1;gradientDirection=north;shape=stencil(fVHbEoIgEP0aHmFQvD6X/QeTqEwEzkJpfx9ETtrtbffc2GUR29mBjwKl1DowJzHJ1g2I7VGaSj0IkM5XiDWI7ToDogdz0W3sRx6UoTqba0iYo4+VpM6DK6W3iCSUPvpDlCupV/KFXMTeXlW/5UVC8mxj+JO9TfbWolyLORw9C0tyQaokGmAZPMlIWUdstV35dTs6Yz5Li8E47qTRmxEUh15g/yDuFO83lJ2EGD/g54i+eP1zJ5WKZ1rz73fxULwpa+4=);strokeColor=#ffffff;spacingTop=-3;spacingBottom=-3;spacingLeft=-3;spacingRight=-3;labelBackgroundColor=none;rounded=0;html=1;whiteSpace=wrap;" parent="145" vertex="1">
          <mxGeometry width="39" height="22" as="geometry" />
        </mxCell>
        <mxCell id="147" style="vsdxID=365;fillColor=#ffffff;gradientColor=#c9ba96;shape=stencil(rVJBEoMgDHwNRxkEHfFs7T+YisqUihNptb8vFDtVO3rqLcnuJiwJYsXQil4iSgYL5ipHVdkWsROiVHWtBGVdhFiJWFEbkA2Ye1eFvBee6aObefgOU9DFhHgNJc85zzFP35VzoAu4OBQ+9CzBMQ8KmCUpxykLpZm1bjlnUyQmNURgrLDKdCtMC2hk5EZFtRbNChpGKftFOV4+TqtO7o3lMc6SIycEp1snGWZ05eTne8h/3ZB9N3mO8+R4Ny747rVWWoezWOLbO3ClcEOsfAE=);strokeColor=#ffffff;spacingTop=-3;spacingBottom=-3;spacingLeft=-3;spacingRight=-3;labelBackgroundColor=none;rounded=0;html=1;whiteSpace=wrap;" parent="145" vertex="1">
          <mxGeometry y="13" width="14" height="43" as="geometry" />
        </mxCell>
        <mxCell id="148" style="vsdxID=366;fillColor=#ffffff;gradientColor=#b6a06d;shape=stencil(UzV2Ls5ILEhVNTIoLinKz04tz0wpyVA1dlE1MsrMy0gtyiwBslSNXVWNndPyi1LTi/JL81Ig/IJEkEoQKze/DGRCBUSfAUiHkUElhGdkoWdqBhZxgyjOyczDqdjQwAC3UpgkTLG5oZ65EfHK8ZhMwMVABsKvaZk5OZCgQpZHDxugECRcjV0B);strokeColor=#ffffff;spacingTop=-3;spacingBottom=-3;spacingLeft=-3;spacingRight=-3;labelBackgroundColor=none;rounded=0;html=1;whiteSpace=wrap;" parent="145" vertex="1">
          <mxGeometry x="14" y="8" width="24" height="48" as="geometry" />
        </mxCell>
        <mxCell id="149" value="" style="verticalAlign=middle;align=center;vsdxID=367;fillColor=#000000;gradientColor=none;shape=stencil(jZLdEoIgEIWfhksZBPzp2uw9mERlMnFWSnv7MHQSraa73bPfgV0WxLK+Fp1ElPQG9EUOqjA1YkdEqWprCcrYCLEcsazUICvQt7ZweScmcoqu+j6dMDpfSMjkoeQx5xyn7KWcHN6odoXHIY64ZyDfYf9kynHIf8CYUI9P4w0v4GyrsHRiG3U8zAbOcJQ4aWZYgg+JP94y7hiIUfUBaCOM0q3XcCOgkoG9LigbUXmlfpCy28kfB9q+bBLhNP4f3y3CBu8luv2va9uFW8l9FpY/AQ==);strokeColor=#000000;spacingTop=-3;spacingBottom=-3;spacingLeft=-3;spacingRight=-3;labelBackgroundColor=none;rounded=0;html=1;whiteSpace=wrap;" parent="145" vertex="1">
          <mxGeometry width="39" height="56" as="geometry" />
        </mxCell>
        <mxCell id="150" style="vsdxID=368;rotation=340;fillColor=#FFFFFF;gradientColor=#339966;shape=stencil(vVHLDsIgEPwajiQI6RfU+h8bu22JCGRB2/69kG1iazx58DazM/vIjjBtmiCi0CplCjecbZ8nYc5Ca+snJJsLEqYTph0C4Ujh4XvmEaqzont41gkL96naodXKrGF6YSfQtUi0OXXDVlqPfJNP6usotUhYbJIUMmQb/GGrAxpRljVycDBuc1hKM2LclX8/7H9nFfB+82Cd45T2+mcspcSRmu4F);strokeColor=#000000;labelBackgroundColor=none;rounded=0;html=1;whiteSpace=wrap;" parent="145" vertex="1">
          <mxGeometry x="5" y="34" width="2" height="3" as="geometry" />
        </mxCell>
        <mxCell id="151" style="vsdxID=369;fillColor=#FFFFFF;gradientColor=#e7e4cd;gradientDirection=north;shape=stencil(xZLdDsIgDIWfhssRKPvB67m9B1HciDqWDv/eXpYu6jRxV8a7tue08CWHqXJoTW8ZiCGg39uL24aWqTUDcF1r0YVYMVUxVe482gb9qdtS35vROVZHfx4vXGlPjBsgbq9dTUaDm6jgZFRCcklmnNxQ5HylaTa5pJgfzHIuYXIk5uqGBH0wwfmOdJ3xrCD9YLCxSXw02R1MM/vdcLG2/xjXyzwg+SpdYIJ3qOIrUaG5yP9HlCqu9QJR+kHEBXyFevS/QorFM4EU3lftPa1xRElX1R0=);strokeColor=#000000;strokeWidth=2;labelBackgroundColor=none;rounded=0;html=1;whiteSpace=wrap;" parent="145" vertex="1">
          <mxGeometry x="2" y="42" width="10" height="9" as="geometry" />
        </mxCell>
        <mxCell id="152" style="vsdxID=370;fillColor=none;gradientColor=none;labelBackgroundColor=none;rounded=0;strokeColor=none;html=1;whiteSpace=wrap;" parent="145" vertex="1">
          <mxGeometry x="2" y="20" width="10" height="11" as="geometry" />
        </mxCell>
        <mxCell id="153" style="vsdxID=371;fillColor=#000000;gradientColor=none;shape=stencil(vZPdcoMgEIWfhkt3gEXQ6zR5D6ZBZWLFQfLTty8W+kPatDdt7tZzzsLHjktwswx6NoTTJXh3MGe7DwPBB8K5nQbjbYgVwS3BTee86b07Tvv0Pes1uVZP7rSecEl9CMjWJk6fk8AECHxVdimv/WN0fc5zFFAnn/rcgi0H0SYtx1oJvCnPpTQnKn2xS+Vd0MG6KbnZG7XvTRVvrLpR94W1nI2Zv8jfMgpQsiRU0Kpf+Jr4bnEvwngdsKshNgwUFpA1MFXOEFD+KSK7jYhAm5Iw4siCjwLlBV8Nqr7XCOX7tN74GANeAv7wc/8LYSw+9qyz45jW9LN/vZdRSjuN2xc=);strokeColor=#000000;labelBackgroundColor=none;rounded=0;html=1;whiteSpace=wrap;" parent="152" vertex="1">
          <mxGeometry width="10" height="6" as="geometry" />
        </mxCell>
        <mxCell id="154" style="vsdxID=372;fillColor=#FFFFFF;gradientColor=#e7e4cd;shape=stencil(pVFLDoIwED1NlzTTliCs/dyjkQKNSMlQBW9vcWoUxZW7mfeZvuYxtR0a3RsmYfDoTma0pW+Y2jEpbdcYtD5MTO2Z2lYOTY3u0pW093pWztPZXecLE/kEwOyRcKO9yDmIB3IgucZjYPEplxkvUnJgtAiRcklQVEmebhZXJXDIoyTRkx0SdF576zri84KL6Gg11iYJryZVq2uiY8RhNKb/gldz5sBFtoyZpVwsY/7++3pK+C9hGF4tVLZtqcR3/rO1AFHjan8H);strokeColor=#FFFFFF;strokeWidth=0;labelBackgroundColor=none;rounded=0;html=1;whiteSpace=wrap;" parent="152" vertex="1">
          <mxGeometry x="3" y="3" width="3" height="2" as="geometry" />
        </mxCell>
        <mxCell id="155" style="vsdxID=373;fillColor=#000000;gradientColor=#e7e4cd;fillOpacity=40;shape=stencil(rVJLEoIwDD1Nl3RK4lBc+7lHRwt0rJQJVfD2lqkfQHTlLp/3krwkDDdtpRrNQLSe3El35ugrhlsGYOpKk/HBYrhjuCkc6ZLcpT5Gv1EDcrDO7jpU6CNPDAwQt7G3j0Br6q9ARC5xDFZ0CFl6gEGmHFaRQU8KZDyPoQcqFdOiL79PVG/ahJxX3rh6MoBVVOoktEsKq8pJqu20bj7Ci2rmrbOMg/yhJxcc1jM9KLmc6Fna5b+0pOPhgvG+Z2Gsje8wzs/vH0Lxd3B3Bw==);strokeColor=none;strokeWidth=0;labelBackgroundColor=none;rounded=0;html=1;whiteSpace=wrap;" parent="152" vertex="1">
          <mxGeometry y="3" width="10" height="8" as="geometry" />
        </mxCell>
        <mxCell id="156" style="vsdxID=374;fillColor=#000000;gradientColor=none;shape=stencil(rVLLEoIwDPyaHun0gRbOiP/R0QIdK2XSqvj3Fouj1UEv3pLNbpKdBPHKdXJQiBHnwR7URe99h/gGMab7ToH2IUK8RrxqLKgW7Knfx3yQE3OKjvY8dRijjkwKRq4xoxSz8o5sI1nCLlRhJrN8hVciKmCW8HKNSRGxmUbJW9dHPmZy1C4D66XXtk82MBJalYV5WWNkm5TcRanhA543NLpXy6OLAgv6xZCgOOepoZwLLMrEUNrzv2bospkftwnB86qNNiY+xWv9/QsCFD+I1zc=);strokeColor=none;labelBackgroundColor=none;rounded=0;html=1;whiteSpace=wrap;" parent="152" vertex="1">
          <mxGeometry y="4" width="10" height="6" as="geometry" />
        </mxCell>
        <mxCell id="157" style="vsdxID=375;fillColor=none;gradientColor=none;fillOpacity=40;shape=stencil(dVDRDoIwDPyaPY6M1ojviP+xyBiLuJFuCv69W4YKGt/uendtcwxr38tRMRA+kLuoybShZ3hkAMb2ikyIiGHDsO4cKU3uZtvMR5mcCV3dPW2Yc06kBIjHmp2ycTD2rxGxqHBtlnSOKi1mqMoCdjlBrwjsi0MeLa5SbJe++czlbDwnF2Qwzm4eGCRpxeM53g1SbyQ/KTX+jJcHI/h0kOtba999xVHuGpsn);strokeColor=#FFFFFF;labelBackgroundColor=none;rounded=0;html=1;whiteSpace=wrap;" parent="152" vertex="1">
          <mxGeometry y="3" width="10" height="8" as="geometry" />
        </mxCell>
        <mxCell id="158" style="vsdxID=376;fillColor=#000000;gradientColor=#e7e4cd;fillOpacity=40;shape=stencil(fVDLDsIgEPwajjR0N2n1XPU/iKUtsUKzoK1/L4QawYO3mZ0HZBh2bpKLYiCcJ3tTq+79xPDEALSZFGkfEMMzw26wpEayD9MnvsjojOhun7FhS7laiJgB8Sr5JZlnbf6Ym6aCNrdLugaVdjscRAXHlKA9gthWKfIpLSt3tnG5acfJeum1NYU2SxoVD0/xYZZjIblVqSU71/nnAviukAbMtd/Fwimtjec3);strokeColor=#000000;labelBackgroundColor=none;rounded=0;html=1;whiteSpace=wrap;" parent="152" vertex="1">
          <mxGeometry y="3" width="10" height="8" as="geometry" />
        </mxCell>
        <mxCell id="159" style="vsdxID=377;fillColor=none;gradientColor=none;labelBackgroundColor=none;rounded=0;strokeColor=none;html=1;whiteSpace=wrap;" parent="115" vertex="1">
          <mxGeometry x="16" y="9" width="39" height="56" as="geometry" />
        </mxCell>
        <mxCell id="160" style="vsdxID=378;fillColor=#ffffff;gradientColor=#e1d8c1;gradientDirection=north;shape=stencil(fVHbEoIgEP0aHmFQvD6X/QeTqEwEzkJpfx9ETtrtbffc2GUR29mBjwKl1DowJzHJ1g2I7VGaSj0IkM5XiDWI7ToDogdz0W3sRx6UoTqba0iYo4+VpM6DK6W3iCSUPvpDlCupV/KFXMTeXlW/5UVC8mxj+JO9TfbWolyLORw9C0tyQaokGmAZPMlIWUdstV35dTs6Yz5Li8E47qTRmxEUh15g/yDuFO83lJ2EGD/g54i+eP1zJ5WKZ1rz73fxULwpa+4=);strokeColor=#ffffff;spacingTop=-3;spacingBottom=-3;spacingLeft=-3;spacingRight=-3;labelBackgroundColor=none;rounded=0;html=1;whiteSpace=wrap;" parent="159" vertex="1">
          <mxGeometry width="39" height="22" as="geometry" />
        </mxCell>
        <mxCell id="161" style="vsdxID=379;fillColor=#ffffff;gradientColor=#c9ba96;shape=stencil(rVJBEoMgDHwNRxkEHfFs7T+YisqUihNptb8vFDtVO3rqLcnuJiwJYsXQil4iSgYL5ipHVdkWsROiVHWtBGVdhFiJWFEbkA2Ye1eFvBee6aObefgOU9DFhHgNJc85zzFP35VzoAu4OBQ+9CzBMQ8KmCUpxykLpZm1bjlnUyQmNURgrLDKdCtMC2hk5EZFtRbNChpGKftFOV4+TqtO7o3lMc6SIycEp1snGWZ05eTne8h/3ZB9N3mO8+R4Ny747rVWWoezWOLbO3ClcEOsfAE=);strokeColor=#ffffff;spacingTop=-3;spacingBottom=-3;spacingLeft=-3;spacingRight=-3;labelBackgroundColor=none;rounded=0;html=1;whiteSpace=wrap;" parent="159" vertex="1">
          <mxGeometry y="13" width="14" height="43" as="geometry" />
        </mxCell>
        <mxCell id="162" style="vsdxID=380;fillColor=#ffffff;gradientColor=#b6a06d;shape=stencil(UzV2Ls5ILEhVNTIoLinKz04tz0wpyVA1dlE1MsrMy0gtyiwBslSNXVWNndPyi1LTi/JL81Ig/IJEkEoQKze/DGRCBUSfAUiHkUElhGdkoWdqBhZxgyjOyczDqdjQwAC3UpgkTLG5oZ65EfHK8ZhMwMVABsKvaZk5OZCgQpZHDxugECRcjV0B);strokeColor=#ffffff;spacingTop=-3;spacingBottom=-3;spacingLeft=-3;spacingRight=-3;labelBackgroundColor=none;rounded=0;html=1;whiteSpace=wrap;" parent="159" vertex="1">
          <mxGeometry x="14" y="8" width="24" height="48" as="geometry" />
        </mxCell>
        <mxCell id="163" value="" style="verticalAlign=middle;align=center;vsdxID=381;fillColor=#000000;gradientColor=none;shape=stencil(jZLdEoIgEIWfhksZBPzp2uw9mERlMnFWSnv7MHQSraa73bPfgV0WxLK+Fp1ElPQG9EUOqjA1YkdEqWprCcrYCLEcsazUICvQt7ZweScmcoqu+j6dMDpfSMjkoeQx5xyn7KWcHN6odoXHIY64ZyDfYf9kynHIf8CYUI9P4w0v4GyrsHRiG3U8zAbOcJQ4aWZYgg+JP94y7hiIUfUBaCOM0q3XcCOgkoG9LigbUXmlfpCy28kfB9q+bBLhNP4f3y3CBu8luv2va9uFW8l9FpY/AQ==);strokeColor=#000000;spacingTop=-3;spacingBottom=-3;spacingLeft=-3;spacingRight=-3;labelBackgroundColor=none;rounded=0;html=1;whiteSpace=wrap;" parent="159" vertex="1">
          <mxGeometry width="39" height="56" as="geometry" />
        </mxCell>
        <mxCell id="164" style="vsdxID=382;rotation=340;fillColor=#FFFFFF;gradientColor=#339966;shape=stencil(vVHLDsIgEPwajiQI6RfU+h8bu22JCGRB2/69kG1iazx58DazM/vIjjBtmiCi0CplCjecbZ8nYc5Ca+snJJsLEqYTph0C4Ujh4XvmEaqzont41gkL96naodXKrGF6YSfQtUi0OXXDVlqPfJNP6usotUhYbJIUMmQb/GGrAxpRljVycDBuc1hKM2LclX8/7H9nFfB+82Cd45T2+mcspcSRmu4F);strokeColor=#000000;labelBackgroundColor=none;rounded=0;html=1;whiteSpace=wrap;" parent="159" vertex="1">
          <mxGeometry x="5" y="34" width="2" height="3" as="geometry" />
        </mxCell>
        <mxCell id="165" style="vsdxID=383;fillColor=#FFFFFF;gradientColor=#e7e4cd;gradientDirection=north;shape=stencil(xZLdDsIgDIWfhssRKPvB67m9B1HciDqWDv/eXpYu6jRxV8a7tue08CWHqXJoTW8ZiCGg39uL24aWqTUDcF1r0YVYMVUxVe482gb9qdtS35vROVZHfx4vXGlPjBsgbq9dTUaDm6jgZFRCcklmnNxQ5HylaTa5pJgfzHIuYXIk5uqGBH0wwfmOdJ3xrCD9YLCxSXw02R1MM/vdcLG2/xjXyzwg+SpdYIJ3qOIrUaG5yP9HlCqu9QJR+kHEBXyFevS/QorFM4EU3lftPa1xRElX1R0=);strokeColor=#000000;strokeWidth=2;labelBackgroundColor=none;rounded=0;html=1;whiteSpace=wrap;" parent="159" vertex="1">
          <mxGeometry x="2" y="42" width="10" height="9" as="geometry" />
        </mxCell>
        <mxCell id="166" style="vsdxID=384;fillColor=none;gradientColor=none;labelBackgroundColor=none;rounded=0;strokeColor=none;html=1;whiteSpace=wrap;" parent="159" vertex="1">
          <mxGeometry x="2" y="20" width="10" height="11" as="geometry" />
        </mxCell>
        <mxCell id="167" style="vsdxID=385;fillColor=#000000;gradientColor=none;shape=stencil(vZPdcoMgEIWfhkt3gEXQ6zR5D6ZBZWLFQfLTty8W+kPatDdt7tZzzsLHjktwswx6NoTTJXh3MGe7DwPBB8K5nQbjbYgVwS3BTee86b07Tvv0Pes1uVZP7rSecEl9CMjWJk6fk8AECHxVdimv/WN0fc5zFFAnn/rcgi0H0SYtx1oJvCnPpTQnKn2xS+Vd0MG6KbnZG7XvTRVvrLpR94W1nI2Zv8jfMgpQsiRU0Kpf+Jr4bnEvwngdsKshNgwUFpA1MFXOEFD+KSK7jYhAm5Iw4siCjwLlBV8Nqr7XCOX7tN74GANeAv7wc/8LYSw+9qyz45jW9LN/vZdRSjuN2xc=);strokeColor=#000000;labelBackgroundColor=none;rounded=0;html=1;whiteSpace=wrap;" parent="166" vertex="1">
          <mxGeometry width="10" height="6" as="geometry" />
        </mxCell>
        <mxCell id="168" style="vsdxID=386;fillColor=#FFFFFF;gradientColor=#e7e4cd;shape=stencil(pVFLDoIwED1NlzTTliCs/dyjkQKNSMlQBW9vcWoUxZW7mfeZvuYxtR0a3RsmYfDoTma0pW+Y2jEpbdcYtD5MTO2Z2lYOTY3u0pW093pWztPZXecLE/kEwOyRcKO9yDmIB3IgucZjYPEplxkvUnJgtAiRcklQVEmebhZXJXDIoyTRkx0SdF576zri84KL6Gg11iYJryZVq2uiY8RhNKb/gldz5sBFtoyZpVwsY/7++3pK+C9hGF4tVLZtqcR3/rO1AFHjan8H);strokeColor=#FFFFFF;strokeWidth=0;labelBackgroundColor=none;rounded=0;html=1;whiteSpace=wrap;" parent="166" vertex="1">
          <mxGeometry x="3" y="3" width="3" height="2" as="geometry" />
        </mxCell>
        <mxCell id="169" style="vsdxID=387;fillColor=#000000;gradientColor=#e7e4cd;fillOpacity=40;shape=stencil(rVJLEoIwDD1Nl3RK4lBc+7lHRwt0rJQJVfD2lqkfQHTlLp/3krwkDDdtpRrNQLSe3El35ugrhlsGYOpKk/HBYrhjuCkc6ZLcpT5Gv1EDcrDO7jpU6CNPDAwQt7G3j0Br6q9ARC5xDFZ0CFl6gEGmHFaRQU8KZDyPoQcqFdOiL79PVG/ahJxX3rh6MoBVVOoktEsKq8pJqu20bj7Ci2rmrbOMg/yhJxcc1jM9KLmc6Fna5b+0pOPhgvG+Z2Gsje8wzs/vH0Lxd3B3Bw==);strokeColor=none;strokeWidth=0;labelBackgroundColor=none;rounded=0;html=1;whiteSpace=wrap;" parent="166" vertex="1">
          <mxGeometry y="3" width="10" height="8" as="geometry" />
        </mxCell>
        <mxCell id="170" style="vsdxID=388;fillColor=#000000;gradientColor=none;shape=stencil(rVLLEoIwDPyaHun0gRbOiP/R0QIdK2XSqvj3Fouj1UEv3pLNbpKdBPHKdXJQiBHnwR7URe99h/gGMab7ToH2IUK8RrxqLKgW7Knfx3yQE3OKjvY8dRijjkwKRq4xoxSz8o5sI1nCLlRhJrN8hVciKmCW8HKNSRGxmUbJW9dHPmZy1C4D66XXtk82MBJalYV5WWNkm5TcRanhA543NLpXy6OLAgv6xZCgOOepoZwLLMrEUNrzv2bospkftwnB86qNNiY+xWv9/QsCFD+I1zc=);strokeColor=none;labelBackgroundColor=none;rounded=0;html=1;whiteSpace=wrap;" parent="166" vertex="1">
          <mxGeometry y="4" width="10" height="6" as="geometry" />
        </mxCell>
        <mxCell id="171" style="vsdxID=389;fillColor=none;gradientColor=none;fillOpacity=40;shape=stencil(dVDRDoIwDPyaPY6M1ojviP+xyBiLuJFuCv69W4YKGt/uendtcwxr38tRMRA+kLuoybShZ3hkAMb2ikyIiGHDsO4cKU3uZtvMR5mcCV3dPW2Yc06kBIjHmp2ycTD2rxGxqHBtlnSOKi1mqMoCdjlBrwjsi0MeLa5SbJe++czlbDwnF2Qwzm4eGCRpxeM53g1SbyQ/KTX+jJcHI/h0kOtba999xVHuGpsn);strokeColor=#FFFFFF;labelBackgroundColor=none;rounded=0;html=1;whiteSpace=wrap;" parent="166" vertex="1">
          <mxGeometry y="3" width="10" height="8" as="geometry" />
        </mxCell>
        <mxCell id="172" style="vsdxID=390;fillColor=#000000;gradientColor=#e7e4cd;fillOpacity=40;shape=stencil(fVDLDsIgEPwajjR0N2n1XPU/iKUtsUKzoK1/L4QawYO3mZ0HZBh2bpKLYiCcJ3tTq+79xPDEALSZFGkfEMMzw26wpEayD9MnvsjojOhun7FhS7laiJgB8Sr5JZlnbf6Ym6aCNrdLugaVdjscRAXHlKA9gthWKfIpLSt3tnG5acfJeum1NYU2SxoVD0/xYZZjIblVqSU71/nnAviukAbMtd/Fwimtjec3);strokeColor=#000000;labelBackgroundColor=none;rounded=0;html=1;whiteSpace=wrap;" parent="166" vertex="1">
          <mxGeometry y="3" width="10" height="8" as="geometry" />
        </mxCell>
        <mxCell id="174" style="vsdxID=467;fillColor=none;gradientColor=none;labelBackgroundColor=none;rounded=0;strokeColor=none;html=1;whiteSpace=wrap;" parent="1" vertex="1">
          <mxGeometry x="347.22" y="148" width="56" height="77" as="geometry" />
        </mxCell>
        <mxCell id="175" style="vsdxID=468;fillColor=#FF00FF;gradientColor=none;fillOpacity=0;strokeOpacity=0;shape=stencil(tVRBcsMgDHyNj9YAwsac0/QfTIMTpq6dwU7j/r641KkVJ6SH9gbSrlhpGWW46Q/maDPB+sF3r/bsdsMhw6dMCNcerHdDOGW4zXBTd97ufXdqd/F+NBNyOr1171OFMfIqDlpOLME+YkQpYNVX5DkSGtcuCJwxCmdQqN/DOYLS9+Elh4LKYffBtLIQIIsEGJgg+IoBxyXe+JeQ9bMSCXEKzH8TZOg0EuaaqEArUlTj5ZkxN6Prc98NZnBdSyQ3xu9tHh7M68bsSao/W3tchW+2JEuQSHvSkBjuGq8vU7lJUAglJcx23oRXAjg1T5dQJTxZE8Ln42WC8Pi30u/NQ5o6hBykTNgeBPAr38Oj1QPfMYyW/5/vVxpLELjSKAXRmOr8rzTypcZw+FkytWuauKOW+eulFEJxoeH2Ew==);labelBackgroundColor=none;rounded=0;html=1;whiteSpace=wrap;" parent="174" vertex="1">
          <mxGeometry y="1" width="56" height="83" as="geometry" />
        </mxCell>
        <mxCell id="176" style="vsdxID=469;fillColor=#ffffff;gradientColor=#e1d8c1;gradientDirection=north;shape=stencil(fVHbEoIgEP0aHmFQvD6X/QeTqEwEzkJpfx9ETtrtbffc2GUR29mBjwKl1DowJzHJ1g2I7VGaSj0IkM5XiDWI7ToDogdz0W3sRx6UoTqba0iYo4+VpM6DK6W3iCSUPvpDlCupV/KFXMTeXlW/5UVC8mxj+JO9TfbWolyLORw9C0tyQaokGmAZPMlIWUdstV35dTs6Yz5Li8E47qTRmxEUh15g/yDuFO83lJ2EGD/g54i+eP1zJ5WKZ1rz73fxULwpa+4=);strokeColor=#ffffff;spacingTop=-3;spacingBottom=-3;spacingLeft=-3;spacingRight=-3;labelBackgroundColor=none;rounded=0;html=1;whiteSpace=wrap;" parent="174" vertex="1">
          <mxGeometry width="56" height="30" as="geometry" />
        </mxCell>
        <mxCell id="177" style="vsdxID=470;fillColor=#ffffff;gradientColor=#c9ba96;shape=stencil(rVJBEoMgDHwNRxkEHfFs7T+YisqUihNptb8vFDtVO3rqLcnuJiwJYsXQil4iSgYL5ipHVdkWsROiVHWtBGVdhFiJWFEbkA2Ye1eFvBee6aObefgOU9DFhHgNJc85zzFP35VzoAu4OBQ+9CzBMQ8KmCUpxykLpZm1bjlnUyQmNURgrLDKdCtMC2hk5EZFtRbNChpGKftFOV4+TqtO7o3lMc6SIycEp1snGWZ05eTne8h/3ZB9N3mO8+R4Ny747rVWWoezWOLbO3ClcEOsfAE=);strokeColor=#ffffff;spacingTop=-3;spacingBottom=-3;spacingLeft=-3;spacingRight=-3;labelBackgroundColor=none;rounded=0;html=1;whiteSpace=wrap;" parent="174" vertex="1">
          <mxGeometry y="18" width="21" height="59" as="geometry" />
        </mxCell>
        <mxCell id="178" style="vsdxID=471;fillColor=#ffffff;gradientColor=#b6a06d;shape=stencil(UzV2Ls5ILEhVNTIoLinKz04tz0wpyVA1dlE1MsrMy0gtyiwBslSNXVWNndPyi1LTi/JL81Ig/IJEkEoQKze/DGRCBUSfAUiHkUElhGdkoWdqBhZxgyjOyczDqdjQwAC3UpgkTLG5oZ65EfHK8ZhMwMVABsKvaZk5OZCgQpZHDxugECRcjV0B);strokeColor=#ffffff;spacingTop=-3;spacingBottom=-3;spacingLeft=-3;spacingRight=-3;labelBackgroundColor=none;rounded=0;html=1;whiteSpace=wrap;" parent="174" vertex="1">
          <mxGeometry x="21" y="11" width="34" height="66" as="geometry" />
        </mxCell>
        <mxCell id="179" value="" style="verticalAlign=middle;align=center;vsdxID=472;fillColor=#000000;gradientColor=none;shape=stencil(jZLdEoIgEIWfhksZBPzp2uw9mERlMnFWSnv7MHQSraa73bPfgV0WxLK+Fp1ElPQG9EUOqjA1YkdEqWprCcrYCLEcsazUICvQt7ZweScmcoqu+j6dMDpfSMjkoeQx5xyn7KWcHN6odoXHIY64ZyDfYf9kynHIf8CYUI9P4w0v4GyrsHRiG3U8zAbOcJQ4aWZYgg+JP94y7hiIUfUBaCOM0q3XcCOgkoG9LigbUXmlfpCy28kfB9q+bBLhNP4f3y3CBu8luv2va9uFW8l9FpY/AQ==);strokeColor=#000000;spacingTop=-3;spacingBottom=-3;spacingLeft=-3;spacingRight=-3;labelBackgroundColor=none;rounded=0;html=1;whiteSpace=wrap;" parent="174" vertex="1">
          <mxGeometry width="56" height="77" as="geometry" />
        </mxCell>
        <mxCell id="180" style="vsdxID=473;rotation=340;fillColor=#FFFFFF;gradientColor=#339966;shape=stencil(vVHLDsIgEPwajiQI6RfU+h8bu22JCGRB2/69kG1iazx58DazM/vIjjBtmiCi0CplCjecbZ8nYc5Ca+snJJsLEqYTph0C4Ujh4XvmEaqzont41gkL96naodXKrGF6YSfQtUi0OXXDVlqPfJNP6usotUhYbJIUMmQb/GGrAxpRljVycDBuc1hKM2LclX8/7H9nFfB+82Cd45T2+mcspcSRmu4F);strokeColor=#000000;labelBackgroundColor=none;rounded=0;html=1;whiteSpace=wrap;" parent="174" vertex="1">
          <mxGeometry x="8" y="47" width="3" height="4" as="geometry" />
        </mxCell>
        <mxCell id="181" style="vsdxID=474;fillColor=#FFFFFF;gradientColor=#e7e4cd;gradientDirection=north;shape=stencil(xZLdDoIwDIWfZpcsowMc1wrvseiARWWkzL+3d6So+BO8Mt61PafdvuQwuewb3RkGovfotuZkN75hcsUAbNsYtD5UTBZMLiuHpkZ3aDfUd3pwDtXeHYcLZ9oTwwaIy7QryahxHRQcjaByLhS58XKbKZ7kNBttsXi+mGY8htER6bPtI3Ree+ta0pXkaUb6TmNtovBqVO10/fS9/mRM9zYuvwNBzPNkHip+Z0phlmmhuMj+x5RIrtQXJvgAlcxC3ftfIYXiEULK71R7DWwYUdhlcQU=);strokeColor=#000000;strokeWidth=2;labelBackgroundColor=none;rounded=0;html=1;whiteSpace=wrap;" parent="174" vertex="1">
          <mxGeometry x="3" y="57" width="14" height="13" as="geometry" />
        </mxCell>
        <mxCell id="182" style="vsdxID=475;fillColor=none;gradientColor=none;labelBackgroundColor=none;rounded=0;strokeColor=none;html=1;whiteSpace=wrap;" parent="174" vertex="1">
          <mxGeometry x="2" y="27" width="15" height="16" as="geometry" />
        </mxCell>
        <mxCell id="183" style="vsdxID=476;fillColor=#000000;gradientColor=none;shape=stencil(vZPdcoMgEIWfhkt3gEXQ6zR5D6ZBZWLFQfLTty8W+kPatDdt7tZzzsLHjktwswx6NoTTJXh3MGe7DwPBB8K5nQbjbYgVwS3BTee86b07Tvv0Pes1uVZP7rSecEl9CMjWJk6fk8AECHxVdimv/WN0fc5zFFAnn/rcgi0H0SYtx1oJvCnPpTQnKn2xS+Vd0MG6KbnZG7XvTRVvrLpR94W1nI2Zv8jfMgpQsiRU0Kpf+Jr4bnEvwngdsKshNgwUFpA1MFXOEFD+KSK7jYhAm5Iw4siCjwLlBV8Nqr7XCOX7tN74GANeAv7wc/8LYSw+9qyz45jW9LN/vZdRSjuN2xc=);strokeColor=#000000;labelBackgroundColor=none;rounded=0;html=1;whiteSpace=wrap;" parent="182" vertex="1">
          <mxGeometry width="15" height="8" as="geometry" />
        </mxCell>
        <mxCell id="184" style="vsdxID=477;fillColor=#FFFFFF;gradientColor=#e7e4cd;shape=stencil(pVFLDoIwED1NlzTTlmBZ+7lHIwUakZKhCt7e4mAUxZW7mffpvOYxte1r01kmoQ/oT3ZwRaiZ2jEpXVtbdCFOTO2Z2pYebYX+0ha0d2ZSTtPZX6cXRvIJgMkj4UZ7rjmIB3IgucFjZPEpl4JrRQ6cLUJonueEzTLJ083iWQkc9CxJzOj6BH0wwfmWeJ1zugqNwcom8WpSNqYido7YD9Z2X/BqTg1cZMuYWcqFXKT8/ff1kPBfwji8Wihd01CJ7/xnaxGixtX+Dg==);strokeColor=#FFFFFF;strokeWidth=0;labelBackgroundColor=none;rounded=0;html=1;whiteSpace=wrap;" parent="182" vertex="1">
          <mxGeometry x="4" y="4" width="4" height="2" as="geometry" />
        </mxCell>
        <mxCell id="185" style="vsdxID=478;fillColor=#000000;gradientColor=#e7e4cd;fillOpacity=40;shape=stencil(rVJLEoIwDD1Nl3RK4lBc+7lHRwt0rJQJVfD2lqkfQHTlLp/3krwkDDdtpRrNQLSe3El35ugrhlsGYOpKk/HBYrhjuCkc6ZLcpT5Gv1EDcrDO7jpU6CNPDAwQt7G3j0Br6q9ARC5xDFZ0CFl6gEGmHFaRQU8KZDyPoQcqFdOiL79PVG/ahJxX3rh6MoBVVOoktEsKq8pJqu20bj7Ci2rmrbOMg/yhJxcc1jM9KLmc6Fna5b+0pOPhgvG+Z2Gsje8wzs/vH0Lxd3B3Bw==);strokeColor=none;strokeWidth=0;labelBackgroundColor=none;rounded=0;html=1;whiteSpace=wrap;" parent="182" vertex="1">
          <mxGeometry y="5" width="14" height="11" as="geometry" />
        </mxCell>
        <mxCell id="186" style="vsdxID=479;fillColor=#000000;gradientColor=none;shape=stencil(rVLLEoIwDPyaHun0gRbOiP/R0QIdK2XSqvj3Fouj1UEv3pLNbpKdBPHKdXJQiBHnwR7URe99h/gGMab7ToH2IUK8RrxqLKgW7Knfx3yQE3OKjvY8dRijjkwKRq4xoxSz8o5sI1nCLlRhJrN8hVciKmCW8HKNSRGxmUbJW9dHPmZy1C4D66XXtk82MBJalYV5WWNkm5TcRanhA543NLpXy6OLAgv6xZCgOOepoZwLLMrEUNrzv2bospkftwnB86qNNiY+xWv9/QsCFD+I1zc=);strokeColor=none;labelBackgroundColor=none;rounded=0;html=1;whiteSpace=wrap;" parent="182" vertex="1">
          <mxGeometry y="5" width="14" height="8" as="geometry" />
        </mxCell>
        <mxCell id="187" style="vsdxID=480;fillColor=none;gradientColor=none;fillOpacity=40;shape=stencil(dVDRDoIwDPyaPY6M1ojviP+xyBiLuJFuCv69W4YKGt/uendtcwxr38tRMRA+kLuoybShZ3hkAMb2ikyIiGHDsO4cKU3uZtvMR5mcCV3dPW2Yc06kBIjHmp2ycTD2rxGxqHBtlnSOKi1mqMoCdjlBrwjsi0MeLa5SbJe++czlbDwnF2Qwzm4eGCRpxeM53g1SbyQ/KTX+jJcHI/h0kOtba999xVHuGpsn);strokeColor=#FFFFFF;labelBackgroundColor=none;rounded=0;html=1;whiteSpace=wrap;" parent="182" vertex="1">
          <mxGeometry y="5" width="14" height="11" as="geometry" />
        </mxCell>
        <mxCell id="188" style="vsdxID=481;fillColor=#000000;gradientColor=#e7e4cd;fillOpacity=40;shape=stencil(fVDLDsIgEPwajjR0N2n1XPU/iKUtsUKzoK1/L4QawYO3mZ0HZBh2bpKLYiCcJ3tTq+79xPDEALSZFGkfEMMzw26wpEayD9MnvsjojOhun7FhS7laiJgB8Sr5JZlnbf6Ym6aCNrdLugaVdjscRAXHlKA9gthWKfIpLSt3tnG5acfJeum1NYU2SxoVD0/xYZZjIblVqSU71/nnAviukAbMtd/Fwimtjec3);strokeColor=#000000;labelBackgroundColor=none;rounded=0;html=1;whiteSpace=wrap;" parent="182" vertex="1">
          <mxGeometry y="5" width="14" height="11" as="geometry" />
        </mxCell>
        <mxCell id="189" style="vsdxID=482;fillColor=none;gradientColor=none;labelBackgroundColor=none;rounded=0;strokeColor=none;html=1;whiteSpace=wrap;" parent="174" vertex="1">
          <mxGeometry x="26" y="56" width="20" height="27" as="geometry" />
        </mxCell>
        <mxCell id="190" value="" style="verticalAlign=middle;align=center;vsdxID=483;fillColor=#e7e4cd;gradientColor=#ff6600;shape=stencil(jZHdDoIwDIWfZrdLaRmOa8T3IGHI4tzIwL+3l7kQAYPh7rT9TtOcMir6tuoUQ+gH7y7qoeuhZXRkiNq2yuthVIxKRkXjvDp7d7N1rLsqkEFd3T1seEYfBAfCK1ZZzkl8OqcIG21n8CHjSbYwJADb+DSc4Bw44X4ccy7TbRwFF3Jh+HMKrK7mqdwL/2Qyim+ajTZmPlnnPrbiz6h8Aw==);strokeColor=#000000;spacingTop=-3;spacingBottom=-3;spacingLeft=-3;spacingRight=-3;labelBackgroundColor=none;rounded=0;html=1;whiteSpace=wrap;" parent="189" vertex="1">
          <mxGeometry width="20" height="27" as="geometry" />
        </mxCell>
        <mxCell id="191" style="vsdxID=484;fillColor=#FFFFFF;gradientColor=none;shape=stencil(lZTdboMwDIWfJreWYzt/1133HpXKBtoGFaX7efsFoWqkGRG5C+GcLzmOZcWHa3u6NIrwOo3DW/PVnadW8ZMi6vq2GbsprhQfFR9ehrF5HYdbf16+L6dZOa8+hs+Z8L34cHYQ/qy/nhfhe9evhC6A1YmYBdBsGzSmbDJAYS1PL1LNzw33E//l44MUXA1aBJzZCycCzTV0Y0H7vXRmMLaGbt19Zwc9Bg2hhh53UPbSY1ChGnpAELdNl/iMIb1OvP/2AbneE9hC6bUGL2k1CahQ/tzgsFggssCUFskBFzLkBmuK7ZOHNgSm0KC5wSJwoYXy0BzA+5oqSWzSwkPnodkAFlopNwhB1UNrB0bXRMgGXFz8jd1lYq//PY7ouLWMdz7+Ag==);strokeColor=#e7e4cd;labelBackgroundColor=none;rounded=0;html=1;whiteSpace=wrap;" parent="189" vertex="1">
          <mxGeometry x="1" y="3" width="17" height="22" as="geometry" />
        </mxCell>
        <mxCell id="192" value="" style="verticalAlign=middle;align=center;vsdxID=485;fillColor=#000000;gradientColor=none;shape=stencil(jZHdDoIwDIWfZrdLaWGOa8T3IGG6RWVk4N/by2yIgMFwd9p+p2lOBRWdrVojELo++LN5uLq3gvYC0TXWBNcPSlApqDj6YE7B35qa67aKZFRXf48bnuyD6EB4caVySdmnc2D44poJvFMyUTNDArCOj8MRzkESbscxlzpdxzGTmZ4Z/pwCi6tlqrfCP5kM4psmP2I6WyY/tPhrVL4B);strokeColor=#000000;spacingTop=-3;spacingBottom=-3;spacingLeft=-3;spacingRight=-3;labelBackgroundColor=none;rounded=0;html=1;whiteSpace=wrap;" parent="189" vertex="1">
          <mxGeometry width="20" height="27" as="geometry" />
        </mxCell>
        <mxCell id="193" value="&lt;font style=&quot;font-size: 16px ; font-family: &amp;#34;simsun&amp;#34; ; color: #000000 ; direction: ltr ; letter-spacing: 0px ; line-height: 120% ; opacity: 1&quot;&gt;Nginx&lt;br&gt;10.180.5.54&lt;br&gt;&lt;/font&gt;" style="text;vsdxID=467;fillColor=none;gradientColor=none;labelBackgroundColor=none;rounded=0;strokeColor=none;html=1;whiteSpace=wrap;verticalAlign=middle;align=center;;html=1;" parent="174" vertex="1">
          <mxGeometry x="-106.22" y="11.03" width="104.43" height="51.93" as="geometry" />
        </mxCell>
        <mxCell id="405" style="vsdxID=1673;fillColor=none;gradientColor=none;labelBackgroundColor=none;rounded=0;strokeColor=none;html=1;whiteSpace=wrap;" parent="1" vertex="1">
          <mxGeometry x="712.44" y="558.46" width="72" height="100" as="geometry" />
        </mxCell>
        <mxCell id="406" style="vsdxID=1674;fillColor=#FF00FF;gradientColor=none;fillOpacity=0;strokeOpacity=0;shape=stencil(vVRBcoMwDHwNRzS2hTE+p+k/PI0BTylkDGno72tKmCAoNIe2N1taSbuSRhEe2tKcbSRY2/nm1V7dqSsjfIqEcHVpvevCK8JjhIe88bbwzaU+jf+zGZDD6615HzL0Y1wmQeghSrCPm4WDVF+W5zGgcvUsgDNG4EpClj4O5wlkuA1PQ/GEBLBtMM0sEuDJDhiYoDrTBd74l+D1E5NAdMT7W0CCU2OmnKhAKypvktvHpndt7JvOdK6pCeHK+MLGoVycV6YgrvZq7Xll/laQ5ICktk5AyW1BXAFfKJJA9QzLkNGcCJn+L0UP7CJd3iCJ0f4jgtI7Q02nFt2nGuac/TBV1NOq/EkXVhy5XnGUhOKe8N+iyOcUw+N+QXJXVeMBmvuXFyeYxmuFx08=);labelBackgroundColor=none;rounded=0;html=1;whiteSpace=wrap;" parent="405" vertex="1">
          <mxGeometry width="72" height="100" as="geometry" />
        </mxCell>
        <mxCell id="407" style="vsdxID=1675;fillColor=#ffffff;gradientColor=#e1d8c1;gradientDirection=north;shape=stencil(fVHbEoIgEP0aHmFQvD6X/QeTqEwEzkJpfx9ETtrtbffc2GUR29mBjwKl1DowJzHJ1g2I7VGaSj0IkM5XiDWI7ToDogdz0W3sRx6UoTqba0iYo4+VpM6DK6W3iCSUPvpDlCupV/KFXMTeXlW/5UVC8mxj+JO9TfbWolyLORw9C0tyQaokGmAZPMlIWUdstV35dTs6Yz5Li8E47qTRmxEUh15g/yDuFO83lJ2EGD/g54i+eP1zJ5WKZ1rz73fxULwpa+4=);strokeColor=#ffffff;spacingTop=-3;spacingBottom=-3;spacingLeft=-3;spacingRight=-3;labelBackgroundColor=none;rounded=0;html=1;whiteSpace=wrap;" parent="405" vertex="1">
          <mxGeometry width="72" height="39" as="geometry" />
        </mxCell>
        <mxCell id="408" style="vsdxID=1676;fillColor=#ffffff;gradientColor=#c9ba96;shape=stencil(rVJBEoMgDHwNRxkEHfFs7T+YisqUihNptb8vFDtVO3rqLcnuJiwJYsXQil4iSgYL5ipHVdkWsROiVHWtBGVdhFiJWFEbkA2Ye1eFvBee6aObefgOU9DFhHgNJc85zzFP35VzoAu4OBQ+9CzBMQ8KmCUpxykLpZm1bjlnUyQmNURgrLDKdCtMC2hk5EZFtRbNChpGKftFOV4+TqtO7o3lMc6SIycEp1snGWZ05eTne8h/3ZB9N3mO8+R4Ny747rVWWoezWOLbO3ClcEOsfAE=);strokeColor=#ffffff;spacingTop=-3;spacingBottom=-3;spacingLeft=-3;spacingRight=-3;labelBackgroundColor=none;rounded=0;html=1;whiteSpace=wrap;" parent="405" vertex="1">
          <mxGeometry y="24" width="27" height="75" as="geometry" />
        </mxCell>
        <mxCell id="409" style="vsdxID=1677;fillColor=#ffffff;gradientColor=#b6a06d;shape=stencil(UzV2Ls5ILEhVNTIoLinKz04tz0wpyVA1dlE1MsrMy0gtyiwBslSNXVWNndPyi1LTi/JL81Ig/IJEkEoQKze/DGRCBUSfAUiHkUElhGdkoWdqBhZxgyjOyczDqdjQwAC3UpgkTLG5oZ65EfHK8ZhMwMVABsKvaZk5OZCgQpZHDxugECRcjV0B);strokeColor=#ffffff;spacingTop=-3;spacingBottom=-3;spacingLeft=-3;spacingRight=-3;labelBackgroundColor=none;rounded=0;html=1;whiteSpace=wrap;" parent="405" vertex="1">
          <mxGeometry x="27" y="14" width="44" height="85" as="geometry" />
        </mxCell>
        <mxCell id="410" value="" style="verticalAlign=middle;align=center;vsdxID=1678;fillColor=#000000;gradientColor=none;shape=stencil(jZLdEoIgEIWfhksZBPzp2uw9mERlMnFWSnv7MHQSraa73bPfgV0WxLK+Fp1ElPQG9EUOqjA1YkdEqWprCcrYCLEcsazUICvQt7ZweScmcoqu+j6dMDpfSMjkoeQx5xyn7KWcHN6odoXHIY64ZyDfYf9kynHIf8CYUI9P4w0v4GyrsHRiG3U8zAbOcJQ4aWZYgg+JP94y7hiIUfUBaCOM0q3XcCOgkoG9LigbUXmlfpCy28kfB9q+bBLhNP4f3y3CBu8luv2va9uFW8l9FpY/AQ==);strokeColor=#000000;spacingTop=-3;spacingBottom=-3;spacingLeft=-3;spacingRight=-3;labelBackgroundColor=none;rounded=0;html=1;whiteSpace=wrap;" parent="405" vertex="1">
          <mxGeometry width="72" height="100" as="geometry" />
        </mxCell>
        <mxCell id="411" style="vsdxID=1679;rotation=340;fillColor=#FFFFFF;gradientColor=#339966;shape=stencil(vVHLDsIgEPwajiQI6RfU+h8bu22JCGRB2/69kG1iazx58DazM/vIjjBtmiCi0CplCjecbZ8nYc5Ca+snJJsLEqYTph0C4Ujh4XvmEaqzont41gkL96naodXKrGF6YSfQtUi0OXXDVlqPfJNP6usotUhYbJIUMmQb/GGrAxpRljVycDBuc1hKM2LclX8/7H9nFfB+82Cd45T2+mcspcSRmu4F);strokeColor=#000000;labelBackgroundColor=none;rounded=0;html=1;whiteSpace=wrap;" parent="405" vertex="1">
          <mxGeometry x="10" y="61" width="4" height="5" as="geometry" />
        </mxCell>
        <mxCell id="412" style="vsdxID=1680;fillColor=#FFFFFF;gradientColor=#e7e4cd;gradientDirection=north;shape=stencil(xZLdDoIwDIWfZpcsowMc1wrvseiARWWkzL+3d6So+BO8Mt61PafdvuQwuewb3RkGovfotuZkN75hcsUAbNsYtD5UTBZMLiuHpkZ3aDfUd3pwDtXeHYcLZ9oTwwaIy7QryahxHRQcjaByLhS58XKbKZ7kNBttsXi+mGY8htER6bPtI3Ree+ta0pXkaUb6TmNtovBqVO10/fS9/mRM9zYuvwNBzPNkHip+Z0phlmmhuMj+x5RIrtQXJvgAlcxC3ftfIYXiEULK71R7DWwYUdhlcQU=);strokeColor=#000000;strokeWidth=2;labelBackgroundColor=none;rounded=0;html=1;whiteSpace=wrap;" parent="405" vertex="1">
          <mxGeometry x="4" y="74" width="18" height="16" as="geometry" />
        </mxCell>
        <mxCell id="413" style="vsdxID=1681;fillColor=none;gradientColor=none;labelBackgroundColor=none;rounded=0;strokeColor=none;html=1;whiteSpace=wrap;" parent="405" vertex="1">
          <mxGeometry x="3" y="35" width="19" height="21" as="geometry" />
        </mxCell>
        <mxCell id="414" style="vsdxID=1682;fillColor=#000000;gradientColor=none;shape=stencil(vZPdcoMgEIWfhkt3gEXQ6zR5D6ZBZWLFQfLTty8W+kPatDdt7tZzzsLHjktwswx6NoTTJXh3MGe7DwPBB8K5nQbjbYgVwS3BTee86b07Tvv0Pes1uVZP7rSecEl9CMjWJk6fk8AECHxVdimv/WN0fc5zFFAnn/rcgi0H0SYtx1oJvCnPpTQnKn2xS+Vd0MG6KbnZG7XvTRVvrLpR94W1nI2Zv8jfMgpQsiRU0Kpf+Jr4bnEvwngdsKshNgwUFpA1MFXOEFD+KSK7jYhAm5Iw4siCjwLlBV8Nqr7XCOX7tN74GANeAv7wc/8LYSw+9qyz45jW9LN/vZdRSjuN2xc=);strokeColor=#000000;labelBackgroundColor=none;rounded=0;html=1;whiteSpace=wrap;" parent="413" vertex="1">
          <mxGeometry width="19" height="11" as="geometry" />
        </mxCell>
        <mxCell id="415" style="vsdxID=1683;fillColor=#FFFFFF;gradientColor=#e7e4cd;shape=stencil(pVFLDoIwED1NlzTTlmBZ+7lHIwUakZKhCt7e4mAUxZW7mffpvOYxte1r01kmoQ/oT3ZwRaiZ2jEpXVtbdCFOTO2Z2pYebYX+0ha0d2ZSTtPZX6cXRvIJgMkj4UZ7rjmIB3IgucFjZPEpl4JrRQ6cLUJonueEzTLJ083iWQkc9CxJzOj6BH0wwfmWeJ1zugqNwcom8WpSNqYido7YD9Z2X/BqTg1cZMuYWcqFXKT8/ff1kPBfwji8Wihd01CJ7/xnaxGixtX+Dg==);strokeColor=#FFFFFF;strokeWidth=0;labelBackgroundColor=none;rounded=0;html=1;whiteSpace=wrap;" parent="413" vertex="1">
          <mxGeometry x="5" y="5" width="5" height="3" as="geometry" />
        </mxCell>
        <mxCell id="416" style="vsdxID=1684;fillColor=#000000;gradientColor=#e7e4cd;fillOpacity=40;shape=stencil(rVJLEoIwDD1Nl3RK4lBc+7lHRwt0rJQJVfD2lqkfQHTlLp/3krwkDDdtpRrNQLSe3El35ugrhlsGYOpKk/HBYrhjuCkc6ZLcpT5Gv1EDcrDO7jpU6CNPDAwQt7G3j0Br6q9ARC5xDFZ0CFl6gEGmHFaRQU8KZDyPoQcqFdOiL79PVG/ahJxX3rh6MoBVVOoktEsKq8pJqu20bj7Ci2rmrbOMg/yhJxcc1jM9KLmc6Fna5b+0pOPhgvG+Z2Gsje8wzs/vH0Lxd3B3Bw==);strokeColor=none;strokeWidth=0;labelBackgroundColor=none;rounded=0;html=1;whiteSpace=wrap;" parent="413" vertex="1">
          <mxGeometry y="6" width="18" height="14" as="geometry" />
        </mxCell>
        <mxCell id="417" style="vsdxID=1685;fillColor=#000000;gradientColor=none;shape=stencil(rVLLEoIwDPyaHun0gRbOiP/R0QIdK2XSqvj3Fouj1UEv3pLNbpKdBPHKdXJQiBHnwR7URe99h/gGMab7ToH2IUK8RrxqLKgW7Knfx3yQE3OKjvY8dRijjkwKRq4xoxSz8o5sI1nCLlRhJrN8hVciKmCW8HKNSRGxmUbJW9dHPmZy1C4D66XXtk82MBJalYV5WWNkm5TcRanhA543NLpXy6OLAgv6xZCgOOepoZwLLMrEUNrzv2bospkftwnB86qNNiY+xWv9/QsCFD+I1zc=);strokeColor=none;labelBackgroundColor=none;rounded=0;html=1;whiteSpace=wrap;" parent="413" vertex="1">
          <mxGeometry y="7" width="18" height="10" as="geometry" />
        </mxCell>
        <mxCell id="418" style="vsdxID=1686;fillColor=none;gradientColor=none;fillOpacity=40;shape=stencil(dVDRDoIwDPyaPY6M1ojviP+xyBiLuJFuCv69W4YKGt/uendtcwxr38tRMRA+kLuoybShZ3hkAMb2ikyIiGHDsO4cKU3uZtvMR5mcCV3dPW2Yc06kBIjHmp2ycTD2rxGxqHBtlnSOKi1mqMoCdjlBrwjsi0MeLa5SbJe++czlbDwnF2Qwzm4eGCRpxeM53g1SbyQ/KTX+jJcHI/h0kOtba999xVHuGpsn);strokeColor=#FFFFFF;labelBackgroundColor=none;rounded=0;html=1;whiteSpace=wrap;" parent="413" vertex="1">
          <mxGeometry y="6" width="18" height="14" as="geometry" />
        </mxCell>
        <mxCell id="419" style="vsdxID=1687;fillColor=#000000;gradientColor=#e7e4cd;fillOpacity=40;shape=stencil(fVDLDsIgEPwajjR0N2n1XPU/iKUtsUKzoK1/L4QawYO3mZ0HZBh2bpKLYiCcJ3tTq+79xPDEALSZFGkfEMMzw26wpEayD9MnvsjojOhun7FhS7laiJgB8Sr5JZlnbf6Ym6aCNrdLugaVdjscRAXHlKA9gthWKfIpLSt3tnG5acfJeum1NYU2SxoVD0/xYZZjIblVqSU71/nnAviukAbMtd/Fwimtjec3);strokeColor=#000000;labelBackgroundColor=none;rounded=0;html=1;whiteSpace=wrap;" parent="413" vertex="1">
          <mxGeometry y="6" width="18" height="14" as="geometry" />
        </mxCell>
        <mxCell id="420" style="vsdxID=1688;fillColor=none;gradientColor=none;labelBackgroundColor=none;rounded=0;strokeColor=none;html=1;whiteSpace=wrap;" parent="405" vertex="1">
          <mxGeometry x="36" y="65" width="25" height="35" as="geometry" />
        </mxCell>
        <mxCell id="421" style="vsdxID=1689;fillColor=#FFFFFF;gradientColor=#4e8ec2;gradientDirection=north;shape=stencil(vVHLDsIgEPwajiQI6RfU+h8bu22JCGRB2/69kG1iazx58DazM/vIjjBtmiCi0CplCjecbZ8nYc5Ca+snJJsLEqYTph0C4Ujh4XvmEaqzont41gkL96naodXKrGF6YSfQtUi0OXXDVlqPfJNP6usotUhYbJIUMmQb/GGrAxpRljVycDBuc1hKM2LclX8/7H9nFfB+82Cd45T2+mcspcSRmu4F);strokeColor=#4e8ec2;labelBackgroundColor=none;rounded=0;html=1;whiteSpace=wrap;" parent="420" vertex="1">
          <mxGeometry y="1" width="24" height="11" as="geometry" />
        </mxCell>
        <mxCell id="422" value="" style="verticalAlign=middle;align=center;vsdxID=1690;fillColor=#FFFFFF;gradientColor=#4e8ec2;shape=stencil(rVLLEsIgDPwajnQoTNWeq/4HY2nLiNAJaOvfC0Md6UNP3pLsbpKdBLHKdrwXiBLrwFzFIGvXIXZElErdCZDOR4idEKsaA6IFc9d1zHsemCG6mUfoMEYdCQpKnml2jkQl9VfigWSEpWQOF4/CRC48TKMAJgUl2T5WJk5ZZmWxbMreHMxHaTEYx500eraC4tAK7AfiRvF2BtlBiH5V3vSTkx/Wl25WVnblzMtWq395yNPFfPC5ZCOVio+Q4svL+1L8GnZ6AQ==);strokeColor=#4e8ec2;spacingTop=-3;spacingBottom=-3;spacingLeft=-3;spacingRight=-3;labelBackgroundColor=none;rounded=0;html=1;whiteSpace=wrap;" parent="420" vertex="1">
          <mxGeometry y="6" width="24" height="27" as="geometry" />
        </mxCell>
        <mxCell id="423" value="" style="verticalAlign=middle;align=center;vsdxID=1691;fillColor=#000000;gradientColor=none;shape=stencil(vVLLEoMgDPwajjoIddSztf/BVFSmFpxAq/37QqEPtY9bb8nuZpNMgmipOzZwRLA2oA58FLXpEN0iQoTsOAhjI0QrRMtGAW9BnWTt84E5pYuO6uwcJl+XYOxqCL6EPIsxuSE7L2ewtywEeRrUsJLfDVd2SR74iE1CR6AMM0LJmbpn0PLItoqanrUzSo+cDys4DNcLyT+1zmm8od82eUwOb4b1SFHERbp0zZJ/LfTzODZ4Htb/xCu3fAIL+Qei1RU=);strokeColor=#000000;spacingTop=-3;spacingBottom=-3;spacingLeft=-3;spacingRight=-3;labelBackgroundColor=none;rounded=0;html=1;whiteSpace=wrap;" parent="420" vertex="1">
          <mxGeometry y="1" width="24" height="33" as="geometry" />
        </mxCell>
        <mxCell id="424" value="&lt;font style=&quot;font-size:16px;font-family:SimSun;color:#000000;direction:ltr;letter-spacing:0px;line-height:120%;opacity:1&quot;&gt;Slave&lt;br/&gt;10.180.x.x&lt;br/&gt;&lt;/font&gt;" style="text;vsdxID=1673;fillColor=none;gradientColor=none;labelBackgroundColor=none;rounded=0;strokeColor=none;html=1;whiteSpace=wrap;verticalAlign=middle;align=center;;html=1;" parent="405" vertex="1">
          <mxGeometry x="-16.22" y="100" width="104.43" height="51.93" as="geometry" />
        </mxCell>
        <mxCell id="425" style="vsdxID=1692;fillColor=none;gradientColor=none;labelBackgroundColor=none;rounded=0;strokeColor=none;html=1;whiteSpace=wrap;" parent="1" vertex="1">
          <mxGeometry x="841.44" y="558.46" width="72" height="100" as="geometry" />
        </mxCell>
        <mxCell id="426" style="vsdxID=1693;fillColor=#FF00FF;gradientColor=none;fillOpacity=0;strokeOpacity=0;shape=stencil(vVRBcoMwDHwNRzS2hTE+p+k/PI0BTylkDGno72tKmCAoNIe2N1taSbuSRhEe2tKcbSRY2/nm1V7dqSsjfIqEcHVpvevCK8JjhIe88bbwzaU+jf+zGZDD6615HzL0Y1wmQeghSrCPm4WDVF+W5zGgcvUsgDNG4EpClj4O5wlkuA1PQ/GEBLBtMM0sEuDJDhiYoDrTBd74l+D1E5NAdMT7W0CCU2OmnKhAKypvktvHpndt7JvOdK6pCeHK+MLGoVycV6YgrvZq7Xll/laQ5ICktk5AyW1BXAFfKJJA9QzLkNGcCJn+L0UP7CJd3iCJ0f4jgtI7Q02nFt2nGuac/TBV1NOq/EkXVhy5XnGUhOKe8N+iyOcUw+N+QXJXVeMBmvuXFyeYxmuFx08=);labelBackgroundColor=none;rounded=0;html=1;whiteSpace=wrap;" parent="425" vertex="1">
          <mxGeometry width="72" height="100" as="geometry" />
        </mxCell>
        <mxCell id="427" style="vsdxID=1694;fillColor=#ffffff;gradientColor=#e1d8c1;gradientDirection=north;shape=stencil(fVHbEoIgEP0aHmFQvD6X/QeTqEwEzkJpfx9ETtrtbffc2GUR29mBjwKl1DowJzHJ1g2I7VGaSj0IkM5XiDWI7ToDogdz0W3sRx6UoTqba0iYo4+VpM6DK6W3iCSUPvpDlCupV/KFXMTeXlW/5UVC8mxj+JO9TfbWolyLORw9C0tyQaokGmAZPMlIWUdstV35dTs6Yz5Li8E47qTRmxEUh15g/yDuFO83lJ2EGD/g54i+eP1zJ5WKZ1rz73fxULwpa+4=);strokeColor=#ffffff;spacingTop=-3;spacingBottom=-3;spacingLeft=-3;spacingRight=-3;labelBackgroundColor=none;rounded=0;html=1;whiteSpace=wrap;" parent="425" vertex="1">
          <mxGeometry width="72" height="39" as="geometry" />
        </mxCell>
        <mxCell id="428" style="vsdxID=1695;fillColor=#ffffff;gradientColor=#c9ba96;shape=stencil(rVJBEoMgDHwNRxkEHfFs7T+YisqUihNptb8vFDtVO3rqLcnuJiwJYsXQil4iSgYL5ipHVdkWsROiVHWtBGVdhFiJWFEbkA2Ye1eFvBee6aObefgOU9DFhHgNJc85zzFP35VzoAu4OBQ+9CzBMQ8KmCUpxykLpZm1bjlnUyQmNURgrLDKdCtMC2hk5EZFtRbNChpGKftFOV4+TqtO7o3lMc6SIycEp1snGWZ05eTne8h/3ZB9N3mO8+R4Ny747rVWWoezWOLbO3ClcEOsfAE=);strokeColor=#ffffff;spacingTop=-3;spacingBottom=-3;spacingLeft=-3;spacingRight=-3;labelBackgroundColor=none;rounded=0;html=1;whiteSpace=wrap;" parent="425" vertex="1">
          <mxGeometry y="24" width="27" height="75" as="geometry" />
        </mxCell>
        <mxCell id="429" style="vsdxID=1696;fillColor=#ffffff;gradientColor=#b6a06d;shape=stencil(UzV2Ls5ILEhVNTIoLinKz04tz0wpyVA1dlE1MsrMy0gtyiwBslSNXVWNndPyi1LTi/JL81Ig/IJEkEoQKze/DGRCBUSfAUiHkUElhGdkoWdqBhZxgyjOyczDqdjQwAC3UpgkTLG5oZ65EfHK8ZhMwMVABsKvaZk5OZCgQpZHDxugECRcjV0B);strokeColor=#ffffff;spacingTop=-3;spacingBottom=-3;spacingLeft=-3;spacingRight=-3;labelBackgroundColor=none;rounded=0;html=1;whiteSpace=wrap;" parent="425" vertex="1">
          <mxGeometry x="27" y="14" width="44" height="85" as="geometry" />
        </mxCell>
        <mxCell id="430" value="" style="verticalAlign=middle;align=center;vsdxID=1697;fillColor=#000000;gradientColor=none;shape=stencil(jZLdEoIgEIWfhksZBPzp2uw9mERlMnFWSnv7MHQSraa73bPfgV0WxLK+Fp1ElPQG9EUOqjA1YkdEqWprCcrYCLEcsazUICvQt7ZweScmcoqu+j6dMDpfSMjkoeQx5xyn7KWcHN6odoXHIY64ZyDfYf9kynHIf8CYUI9P4w0v4GyrsHRiG3U8zAbOcJQ4aWZYgg+JP94y7hiIUfUBaCOM0q3XcCOgkoG9LigbUXmlfpCy28kfB9q+bBLhNP4f3y3CBu8luv2va9uFW8l9FpY/AQ==);strokeColor=#000000;spacingTop=-3;spacingBottom=-3;spacingLeft=-3;spacingRight=-3;labelBackgroundColor=none;rounded=0;html=1;whiteSpace=wrap;" parent="425" vertex="1">
          <mxGeometry width="72" height="100" as="geometry" />
        </mxCell>
        <mxCell id="431" style="vsdxID=1698;rotation=340;fillColor=#FFFFFF;gradientColor=#339966;shape=stencil(vVHLDsIgEPwajiQI6RfU+h8bu22JCGRB2/69kG1iazx58DazM/vIjjBtmiCi0CplCjecbZ8nYc5Ca+snJJsLEqYTph0C4Ujh4XvmEaqzont41gkL96naodXKrGF6YSfQtUi0OXXDVlqPfJNP6usotUhYbJIUMmQb/GGrAxpRljVycDBuc1hKM2LclX8/7H9nFfB+82Cd45T2+mcspcSRmu4F);strokeColor=#000000;labelBackgroundColor=none;rounded=0;html=1;whiteSpace=wrap;" parent="425" vertex="1">
          <mxGeometry x="10" y="61" width="4" height="5" as="geometry" />
        </mxCell>
        <mxCell id="432" style="vsdxID=1699;fillColor=#FFFFFF;gradientColor=#e7e4cd;gradientDirection=north;shape=stencil(xZLdDoIwDIWfZpcsowMc1wrvseiARWWkzL+3d6So+BO8Mt61PafdvuQwuewb3RkGovfotuZkN75hcsUAbNsYtD5UTBZMLiuHpkZ3aDfUd3pwDtXeHYcLZ9oTwwaIy7QryahxHRQcjaByLhS58XKbKZ7kNBttsXi+mGY8htER6bPtI3Ree+ta0pXkaUb6TmNtovBqVO10/fS9/mRM9zYuvwNBzPNkHip+Z0phlmmhuMj+x5RIrtQXJvgAlcxC3ftfIYXiEULK71R7DWwYUdhlcQU=);strokeColor=#000000;strokeWidth=2;labelBackgroundColor=none;rounded=0;html=1;whiteSpace=wrap;" parent="425" vertex="1">
          <mxGeometry x="4" y="74" width="18" height="16" as="geometry" />
        </mxCell>
        <mxCell id="433" style="vsdxID=1700;fillColor=none;gradientColor=none;labelBackgroundColor=none;rounded=0;strokeColor=none;html=1;whiteSpace=wrap;" parent="425" vertex="1">
          <mxGeometry x="3" y="35" width="19" height="21" as="geometry" />
        </mxCell>
        <mxCell id="434" style="vsdxID=1701;fillColor=#000000;gradientColor=none;shape=stencil(vZPdcoMgEIWfhkt3gEXQ6zR5D6ZBZWLFQfLTty8W+kPatDdt7tZzzsLHjktwswx6NoTTJXh3MGe7DwPBB8K5nQbjbYgVwS3BTee86b07Tvv0Pes1uVZP7rSecEl9CMjWJk6fk8AECHxVdimv/WN0fc5zFFAnn/rcgi0H0SYtx1oJvCnPpTQnKn2xS+Vd0MG6KbnZG7XvTRVvrLpR94W1nI2Zv8jfMgpQsiRU0Kpf+Jr4bnEvwngdsKshNgwUFpA1MFXOEFD+KSK7jYhAm5Iw4siCjwLlBV8Nqr7XCOX7tN74GANeAv7wc/8LYSw+9qyz45jW9LN/vZdRSjuN2xc=);strokeColor=#000000;labelBackgroundColor=none;rounded=0;html=1;whiteSpace=wrap;" parent="433" vertex="1">
          <mxGeometry width="19" height="11" as="geometry" />
        </mxCell>
        <mxCell id="435" style="vsdxID=1702;fillColor=#FFFFFF;gradientColor=#e7e4cd;shape=stencil(pVFLDoIwED1NlzTTlmBZ+7lHIwUakZKhCt7e4mAUxZW7mffpvOYxte1r01kmoQ/oT3ZwRaiZ2jEpXVtbdCFOTO2Z2pYebYX+0ha0d2ZSTtPZX6cXRvIJgMkj4UZ7rjmIB3IgucFjZPEpl4JrRQ6cLUJonueEzTLJ083iWQkc9CxJzOj6BH0wwfmWeJ1zugqNwcom8WpSNqYido7YD9Z2X/BqTg1cZMuYWcqFXKT8/ff1kPBfwji8Wihd01CJ7/xnaxGixtX+Dg==);strokeColor=#FFFFFF;strokeWidth=0;labelBackgroundColor=none;rounded=0;html=1;whiteSpace=wrap;" parent="433" vertex="1">
          <mxGeometry x="5" y="5" width="5" height="3" as="geometry" />
        </mxCell>
        <mxCell id="436" style="vsdxID=1703;fillColor=#000000;gradientColor=#e7e4cd;fillOpacity=40;shape=stencil(rVJLEoIwDD1Nl3RK4lBc+7lHRwt0rJQJVfD2lqkfQHTlLp/3krwkDDdtpRrNQLSe3El35ugrhlsGYOpKk/HBYrhjuCkc6ZLcpT5Gv1EDcrDO7jpU6CNPDAwQt7G3j0Br6q9ARC5xDFZ0CFl6gEGmHFaRQU8KZDyPoQcqFdOiL79PVG/ahJxX3rh6MoBVVOoktEsKq8pJqu20bj7Ci2rmrbOMg/yhJxcc1jM9KLmc6Fna5b+0pOPhgvG+Z2Gsje8wzs/vH0Lxd3B3Bw==);strokeColor=none;strokeWidth=0;labelBackgroundColor=none;rounded=0;html=1;whiteSpace=wrap;" parent="433" vertex="1">
          <mxGeometry y="6" width="18" height="14" as="geometry" />
        </mxCell>
        <mxCell id="437" style="vsdxID=1704;fillColor=#000000;gradientColor=none;shape=stencil(rVLLEoIwDPyaHun0gRbOiP/R0QIdK2XSqvj3Fouj1UEv3pLNbpKdBPHKdXJQiBHnwR7URe99h/gGMab7ToH2IUK8RrxqLKgW7Knfx3yQE3OKjvY8dRijjkwKRq4xoxSz8o5sI1nCLlRhJrN8hVciKmCW8HKNSRGxmUbJW9dHPmZy1C4D66XXtk82MBJalYV5WWNkm5TcRanhA543NLpXy6OLAgv6xZCgOOepoZwLLMrEUNrzv2bospkftwnB86qNNiY+xWv9/QsCFD+I1zc=);strokeColor=none;labelBackgroundColor=none;rounded=0;html=1;whiteSpace=wrap;" parent="433" vertex="1">
          <mxGeometry y="7" width="18" height="10" as="geometry" />
        </mxCell>
        <mxCell id="438" style="vsdxID=1705;fillColor=none;gradientColor=none;fillOpacity=40;shape=stencil(dVDRDoIwDPyaPY6M1ojviP+xyBiLuJFuCv69W4YKGt/uendtcwxr38tRMRA+kLuoybShZ3hkAMb2ikyIiGHDsO4cKU3uZtvMR5mcCV3dPW2Yc06kBIjHmp2ycTD2rxGxqHBtlnSOKi1mqMoCdjlBrwjsi0MeLa5SbJe++czlbDwnF2Qwzm4eGCRpxeM53g1SbyQ/KTX+jJcHI/h0kOtba999xVHuGpsn);strokeColor=#FFFFFF;labelBackgroundColor=none;rounded=0;html=1;whiteSpace=wrap;" parent="433" vertex="1">
          <mxGeometry y="6" width="18" height="14" as="geometry" />
        </mxCell>
        <mxCell id="439" style="vsdxID=1706;fillColor=#000000;gradientColor=#e7e4cd;fillOpacity=40;shape=stencil(fVDLDsIgEPwajjR0N2n1XPU/iKUtsUKzoK1/L4QawYO3mZ0HZBh2bpKLYiCcJ3tTq+79xPDEALSZFGkfEMMzw26wpEayD9MnvsjojOhun7FhS7laiJgB8Sr5JZlnbf6Ym6aCNrdLugaVdjscRAXHlKA9gthWKfIpLSt3tnG5acfJeum1NYU2SxoVD0/xYZZjIblVqSU71/nnAviukAbMtd/Fwimtjec3);strokeColor=#000000;labelBackgroundColor=none;rounded=0;html=1;whiteSpace=wrap;" parent="433" vertex="1">
          <mxGeometry y="6" width="18" height="14" as="geometry" />
        </mxCell>
        <mxCell id="440" style="vsdxID=1707;fillColor=none;gradientColor=none;labelBackgroundColor=none;rounded=0;strokeColor=none;html=1;whiteSpace=wrap;" parent="425" vertex="1">
          <mxGeometry x="36" y="65" width="25" height="35" as="geometry" />
        </mxCell>
        <mxCell id="441" style="vsdxID=1708;fillColor=#FFFFFF;gradientColor=#4e8ec2;gradientDirection=north;shape=stencil(vVHLDsIgEPwajiQI6RfU+h8bu22JCGRB2/69kG1iazx58DazM/vIjjBtmiCi0CplCjecbZ8nYc5Ca+snJJsLEqYTph0C4Ujh4XvmEaqzont41gkL96naodXKrGF6YSfQtUi0OXXDVlqPfJNP6usotUhYbJIUMmQb/GGrAxpRljVycDBuc1hKM2LclX8/7H9nFfB+82Cd45T2+mcspcSRmu4F);strokeColor=#4e8ec2;labelBackgroundColor=none;rounded=0;html=1;whiteSpace=wrap;" parent="440" vertex="1">
          <mxGeometry y="1" width="24" height="11" as="geometry" />
        </mxCell>
        <mxCell id="442" value="" style="verticalAlign=middle;align=center;vsdxID=1709;fillColor=#FFFFFF;gradientColor=#4e8ec2;shape=stencil(rVLLEsIgDPwajnQoTNWeq/4HY2nLiNAJaOvfC0Md6UNP3pLsbpKdBLHKdrwXiBLrwFzFIGvXIXZElErdCZDOR4idEKsaA6IFc9d1zHsemCG6mUfoMEYdCQpKnml2jkQl9VfigWSEpWQOF4/CRC48TKMAJgUl2T5WJk5ZZmWxbMreHMxHaTEYx500eraC4tAK7AfiRvF2BtlBiH5V3vSTkx/Wl25WVnblzMtWq395yNPFfPC5ZCOVio+Q4svL+1L8GnZ6AQ==);strokeColor=#4e8ec2;spacingTop=-3;spacingBottom=-3;spacingLeft=-3;spacingRight=-3;labelBackgroundColor=none;rounded=0;html=1;whiteSpace=wrap;" parent="440" vertex="1">
          <mxGeometry y="6" width="24" height="27" as="geometry" />
        </mxCell>
        <mxCell id="443" value="" style="verticalAlign=middle;align=center;vsdxID=1710;fillColor=#000000;gradientColor=none;shape=stencil(vVLLEoMgDPwajjoIddSztf/BVFSmFpxAq/37QqEPtY9bb8nuZpNMgmipOzZwRLA2oA58FLXpEN0iQoTsOAhjI0QrRMtGAW9BnWTt84E5pYuO6uwcJl+XYOxqCL6EPIsxuSE7L2ewtywEeRrUsJLfDVd2SR74iE1CR6AMM0LJmbpn0PLItoqanrUzSo+cDys4DNcLyT+1zmm8od82eUwOb4b1SFHERbp0zZJ/LfTzODZ4Htb/xCu3fAIL+Qei1RU=);strokeColor=#000000;spacingTop=-3;spacingBottom=-3;spacingLeft=-3;spacingRight=-3;labelBackgroundColor=none;rounded=0;html=1;whiteSpace=wrap;" parent="440" vertex="1">
          <mxGeometry y="1" width="24" height="33" as="geometry" />
        </mxCell>
        <mxCell id="444" value="&lt;font style=&quot;font-size:16px;font-family:SimSun;color:#000000;direction:ltr;letter-spacing:0px;line-height:120%;opacity:1&quot;&gt;Master&lt;br/&gt;10.180.x.x&lt;br/&gt;&lt;/font&gt;" style="text;vsdxID=1692;fillColor=none;gradientColor=none;labelBackgroundColor=none;rounded=0;strokeColor=none;html=1;whiteSpace=wrap;verticalAlign=middle;align=center;;html=1;" parent="425" vertex="1">
          <mxGeometry x="-16.22" y="100" width="104.43" height="51.93" as="geometry" />
        </mxCell>
        <mxCell id="h40I1kbrtRN0yZqNHY2F-540" style="vsdxID=148;fillColor=none;gradientColor=none;labelBackgroundColor=none;rounded=0;strokeColor=none;html=1;whiteSpace=wrap;" parent="1" vertex="1">
          <mxGeometry x="400" y="540" width="72" height="100" as="geometry" />
        </mxCell>
        <mxCell id="h40I1kbrtRN0yZqNHY2F-541" style="vsdxID=149;fillColor=#FF00FF;gradientColor=none;fillOpacity=0;strokeOpacity=0;shape=stencil(vZTbUoMwEIafhkt2ciKH61rfI2NDmxGhE6jFtzcYwAY01Bn1Lux+/252l01Gd+1Jn01GUNu55tlc7aE7ZfQhI8TWJ+Ns508Z3Wd0VzbOHF1zqQ/h+6wHcji9NK9DhD7ohADMBxVBb8GiFCj8YXkMgsrWsYBEvERA1Q94H1+KW351oQ1euyfvdSPPgMvAu1FAw+folxTIIiCfJX2ue9vmrul0Z5s6+FHwVdodTe6T5WWlj5GrvRpzXpm/LH+dXijgPCFAUMS8hASOEYppDEzcj2MKKoFzDAWLBIlS48iEgGAJGNDiN8KAi+/HzBmIIp4zw3OMEaJiqmaeNQOC/2vWhS8qTi8VCJLcja3li5cDi2UGikGyRNvEomcEGNvoGeXTwv1JzxYXLECtxjpN+o6qf+uKUdP94fO9LG1Vhef21r98X70pvM10/w4=);labelBackgroundColor=none;rounded=0;html=1;whiteSpace=wrap;" parent="h40I1kbrtRN0yZqNHY2F-540" vertex="1">
          <mxGeometry y="-1" width="72" height="106" as="geometry" />
        </mxCell>
        <mxCell id="h40I1kbrtRN0yZqNHY2F-542" style="vsdxID=150;fillColor=#ffffff;gradientColor=#e1d8c1;gradientDirection=north;shape=stencil(fVHbEoIgEP0aHmFQvD6X/QeTqEwEzkJpfx9ETtrtbffc2GUR29mBjwKl1DowJzHJ1g2I7VGaSj0IkM5XiDWI7ToDogdz0W3sRx6UoTqba0iYo4+VpM6DK6W3iCSUPvpDlCupV/KFXMTeXlW/5UVC8mxj+JO9TfbWolyLORw9C0tyQaokGmAZPMlIWUdstV35dTs6Yz5Li8E47qTRmxEUh15g/yDuFO83lJ2EGD/g54i+eP1zJ5WKZ1rz73fxULwpa+4=);strokeColor=#ffffff;spacingTop=-3;spacingBottom=-3;spacingLeft=-3;spacingRight=-3;labelBackgroundColor=none;rounded=0;html=1;whiteSpace=wrap;" parent="h40I1kbrtRN0yZqNHY2F-540" vertex="1">
          <mxGeometry width="72" height="39" as="geometry" />
        </mxCell>
        <mxCell id="h40I1kbrtRN0yZqNHY2F-543" style="vsdxID=151;fillColor=#ffffff;gradientColor=#c9ba96;shape=stencil(rVJBEoMgDHwNRxkEHfFs7T+YisqUihNptb8vFDtVO3rqLcnuJiwJYsXQil4iSgYL5ipHVdkWsROiVHWtBGVdhFiJWFEbkA2Ye1eFvBee6aObefgOU9DFhHgNJc85zzFP35VzoAu4OBQ+9CzBMQ8KmCUpxykLpZm1bjlnUyQmNURgrLDKdCtMC2hk5EZFtRbNChpGKftFOV4+TqtO7o3lMc6SIycEp1snGWZ05eTne8h/3ZB9N3mO8+R4Ny747rVWWoezWOLbO3ClcEOsfAE=);strokeColor=#ffffff;spacingTop=-3;spacingBottom=-3;spacingLeft=-3;spacingRight=-3;labelBackgroundColor=none;rounded=0;html=1;whiteSpace=wrap;" parent="h40I1kbrtRN0yZqNHY2F-540" vertex="1">
          <mxGeometry y="24" width="27" height="75" as="geometry" />
        </mxCell>
        <mxCell id="h40I1kbrtRN0yZqNHY2F-544" style="vsdxID=152;fillColor=#ffffff;gradientColor=#b6a06d;shape=stencil(UzV2Ls5ILEhVNTIoLinKz04tz0wpyVA1dlE1MsrMy0gtyiwBslSNXVWNndPyi1LTi/JL81Ig/IJEkEoQKze/DGRCBUSfAUiHkUElhGdkoWdqBhZxgyjOyczDqdjQwAC3UpgkTLG5oZ65EfHK8ZhMwMVABsKvaZk5OZCgQpZHDxugECRcjV0B);strokeColor=#ffffff;spacingTop=-3;spacingBottom=-3;spacingLeft=-3;spacingRight=-3;labelBackgroundColor=none;rounded=0;html=1;whiteSpace=wrap;" parent="h40I1kbrtRN0yZqNHY2F-540" vertex="1">
          <mxGeometry x="27" y="14" width="44" height="85" as="geometry" />
        </mxCell>
        <mxCell id="h40I1kbrtRN0yZqNHY2F-545" value="" style="verticalAlign=middle;align=center;vsdxID=153;fillColor=#000000;gradientColor=none;shape=stencil(jZLdEoIgEIWfhksZBPzp2uw9mERlMnFWSnv7MHQSraa73bPfgV0WxLK+Fp1ElPQG9EUOqjA1YkdEqWprCcrYCLEcsazUICvQt7ZweScmcoqu+j6dMDpfSMjkoeQx5xyn7KWcHN6odoXHIY64ZyDfYf9kynHIf8CYUI9P4w0v4GyrsHRiG3U8zAbOcJQ4aWZYgg+JP94y7hiIUfUBaCOM0q3XcCOgkoG9LigbUXmlfpCy28kfB9q+bBLhNP4f3y3CBu8luv2va9uFW8l9FpY/AQ==);strokeColor=#000000;spacingTop=-3;spacingBottom=-3;spacingLeft=-3;spacingRight=-3;labelBackgroundColor=none;rounded=0;html=1;whiteSpace=wrap;" parent="h40I1kbrtRN0yZqNHY2F-540" vertex="1">
          <mxGeometry width="72" height="100" as="geometry" />
        </mxCell>
        <mxCell id="h40I1kbrtRN0yZqNHY2F-546" style="vsdxID=154;rotation=340;fillColor=#FFFFFF;gradientColor=#339966;shape=stencil(vVHLDsIgEPwajiQI6RfU+h8bu22JCGRB2/69kG1iazx58DazM/vIjjBtmiCi0CplCjecbZ8nYc5Ca+snJJsLEqYTph0C4Ujh4XvmEaqzont41gkL96naodXKrGF6YSfQtUi0OXXDVlqPfJNP6usotUhYbJIUMmQb/GGrAxpRljVycDBuc1hKM2LclX8/7H9nFfB+82Cd45T2+mcspcSRmu4F);strokeColor=#000000;labelBackgroundColor=none;rounded=0;html=1;whiteSpace=wrap;" parent="h40I1kbrtRN0yZqNHY2F-540" vertex="1">
          <mxGeometry x="10" y="61" width="4" height="5" as="geometry" />
        </mxCell>
        <mxCell id="h40I1kbrtRN0yZqNHY2F-547" style="vsdxID=155;fillColor=#FFFFFF;gradientColor=#e7e4cd;gradientDirection=north;shape=stencil(xZLdDoIwDIWfZpcsowMc1wrvseiARWWkzL+3d6So+BO8Mt61PafdvuQwuewb3RkGovfotuZkN75hcsUAbNsYtD5UTBZMLiuHpkZ3aDfUd3pwDtXeHYcLZ9oTwwaIy7QryahxHRQcjaByLhS58XKbKZ7kNBttsXi+mGY8htER6bPtI3Ree+ta0pXkaUb6TmNtovBqVO10/fS9/mRM9zYuvwNBzPNkHip+Z0phlmmhuMj+x5RIrtQXJvgAlcxC3ftfIYXiEULK71R7DWwYUdhlcQU=);strokeColor=#000000;strokeWidth=2;labelBackgroundColor=none;rounded=0;html=1;whiteSpace=wrap;" parent="h40I1kbrtRN0yZqNHY2F-540" vertex="1">
          <mxGeometry x="4" y="74" width="18" height="16" as="geometry" />
        </mxCell>
        <mxCell id="h40I1kbrtRN0yZqNHY2F-548" style="vsdxID=156;fillColor=none;gradientColor=none;labelBackgroundColor=none;rounded=0;strokeColor=none;html=1;whiteSpace=wrap;" parent="h40I1kbrtRN0yZqNHY2F-540" vertex="1">
          <mxGeometry x="3" y="35" width="19" height="21" as="geometry" />
        </mxCell>
        <mxCell id="h40I1kbrtRN0yZqNHY2F-549" style="vsdxID=157;fillColor=#000000;gradientColor=none;shape=stencil(vZPdcoMgEIWfhkt3gEXQ6zR5D6ZBZWLFQfLTty8W+kPatDdt7tZzzsLHjktwswx6NoTTJXh3MGe7DwPBB8K5nQbjbYgVwS3BTee86b07Tvv0Pes1uVZP7rSecEl9CMjWJk6fk8AECHxVdimv/WN0fc5zFFAnn/rcgi0H0SYtx1oJvCnPpTQnKn2xS+Vd0MG6KbnZG7XvTRVvrLpR94W1nI2Zv8jfMgpQsiRU0Kpf+Jr4bnEvwngdsKshNgwUFpA1MFXOEFD+KSK7jYhAm5Iw4siCjwLlBV8Nqr7XCOX7tN74GANeAv7wc/8LYSw+9qyz45jW9LN/vZdRSjuN2xc=);strokeColor=#000000;labelBackgroundColor=none;rounded=0;html=1;whiteSpace=wrap;" parent="h40I1kbrtRN0yZqNHY2F-548" vertex="1">
          <mxGeometry width="19" height="11" as="geometry" />
        </mxCell>
        <mxCell id="h40I1kbrtRN0yZqNHY2F-550" style="vsdxID=158;fillColor=#FFFFFF;gradientColor=#e7e4cd;shape=stencil(pVFLDoIwED1NlzTTlmBZ+7lHIwUakZKhCt7e4mAUxZW7mffpvOYxte1r01kmoQ/oT3ZwRaiZ2jEpXVtbdCFOTO2Z2pYebYX+0ha0d2ZSTtPZX6cXRvIJgMkj4UZ7rjmIB3IgucFjZPEpl4JrRQ6cLUJonueEzTLJ083iWQkc9CxJzOj6BH0wwfmWeJ1zugqNwcom8WpSNqYido7YD9Z2X/BqTg1cZMuYWcqFXKT8/ff1kPBfwji8Wihd01CJ7/xnaxGixtX+Dg==);strokeColor=#FFFFFF;strokeWidth=0;labelBackgroundColor=none;rounded=0;html=1;whiteSpace=wrap;" parent="h40I1kbrtRN0yZqNHY2F-548" vertex="1">
          <mxGeometry x="5" y="5" width="5" height="3" as="geometry" />
        </mxCell>
        <mxCell id="h40I1kbrtRN0yZqNHY2F-551" style="vsdxID=159;fillColor=#000000;gradientColor=#e7e4cd;fillOpacity=40;shape=stencil(rVJLEoIwDD1Nl3RK4lBc+7lHRwt0rJQJVfD2lqkfQHTlLp/3krwkDDdtpRrNQLSe3El35ugrhlsGYOpKk/HBYrhjuCkc6ZLcpT5Gv1EDcrDO7jpU6CNPDAwQt7G3j0Br6q9ARC5xDFZ0CFl6gEGmHFaRQU8KZDyPoQcqFdOiL79PVG/ahJxX3rh6MoBVVOoktEsKq8pJqu20bj7Ci2rmrbOMg/yhJxcc1jM9KLmc6Fna5b+0pOPhgvG+Z2Gsje8wzs/vH0Lxd3B3Bw==);strokeColor=none;strokeWidth=0;labelBackgroundColor=none;rounded=0;html=1;whiteSpace=wrap;" parent="h40I1kbrtRN0yZqNHY2F-548" vertex="1">
          <mxGeometry y="6" width="18" height="14" as="geometry" />
        </mxCell>
        <mxCell id="h40I1kbrtRN0yZqNHY2F-552" style="vsdxID=160;fillColor=#000000;gradientColor=none;shape=stencil(rVLLEoIwDPyaHun0gRbOiP/R0QIdK2XSqvj3Fouj1UEv3pLNbpKdBPHKdXJQiBHnwR7URe99h/gGMab7ToH2IUK8RrxqLKgW7Knfx3yQE3OKjvY8dRijjkwKRq4xoxSz8o5sI1nCLlRhJrN8hVciKmCW8HKNSRGxmUbJW9dHPmZy1C4D66XXtk82MBJalYV5WWNkm5TcRanhA543NLpXy6OLAgv6xZCgOOepoZwLLMrEUNrzv2bospkftwnB86qNNiY+xWv9/QsCFD+I1zc=);strokeColor=none;labelBackgroundColor=none;rounded=0;html=1;whiteSpace=wrap;" parent="h40I1kbrtRN0yZqNHY2F-548" vertex="1">
          <mxGeometry y="7" width="18" height="10" as="geometry" />
        </mxCell>
        <mxCell id="h40I1kbrtRN0yZqNHY2F-553" style="vsdxID=161;fillColor=none;gradientColor=none;fillOpacity=40;shape=stencil(dVDRDoIwDPyaPY6M1ojviP+xyBiLuJFuCv69W4YKGt/uendtcwxr38tRMRA+kLuoybShZ3hkAMb2ikyIiGHDsO4cKU3uZtvMR5mcCV3dPW2Yc06kBIjHmp2ycTD2rxGxqHBtlnSOKi1mqMoCdjlBrwjsi0MeLa5SbJe++czlbDwnF2Qwzm4eGCRpxeM53g1SbyQ/KTX+jJcHI/h0kOtba999xVHuGpsn);strokeColor=#FFFFFF;labelBackgroundColor=none;rounded=0;html=1;whiteSpace=wrap;" parent="h40I1kbrtRN0yZqNHY2F-548" vertex="1">
          <mxGeometry y="6" width="18" height="14" as="geometry" />
        </mxCell>
        <mxCell id="h40I1kbrtRN0yZqNHY2F-554" style="vsdxID=162;fillColor=#000000;gradientColor=#e7e4cd;fillOpacity=40;shape=stencil(fVDLDsIgEPwajjR0N2n1XPU/iKUtsUKzoK1/L4QawYO3mZ0HZBh2bpKLYiCcJ3tTq+79xPDEALSZFGkfEMMzw26wpEayD9MnvsjojOhun7FhS7laiJgB8Sr5JZlnbf6Ym6aCNrdLugaVdjscRAXHlKA9gthWKfIpLSt3tnG5acfJeum1NYU2SxoVD0/xYZZjIblVqSU71/nnAviukAbMtd/Fwimtjec3);strokeColor=#000000;labelBackgroundColor=none;rounded=0;html=1;whiteSpace=wrap;" parent="h40I1kbrtRN0yZqNHY2F-548" vertex="1">
          <mxGeometry y="6" width="18" height="14" as="geometry" />
        </mxCell>
        <mxCell id="h40I1kbrtRN0yZqNHY2F-555" style="vsdxID=163;fillColor=none;gradientColor=none;labelBackgroundColor=none;rounded=0;strokeColor=none;html=1;whiteSpace=wrap;" parent="h40I1kbrtRN0yZqNHY2F-540" vertex="1">
          <mxGeometry x="36" y="71" width="25" height="35" as="geometry" />
        </mxCell>
        <mxCell id="h40I1kbrtRN0yZqNHY2F-556" value="" style="verticalAlign=middle;align=center;vsdxID=164;fillColor=#FFFFFF;gradientColor=#f0daac;shape=stencil(rVPNcoMgEH4aju4sIC2c0/Q9mAaVKRUHaWPfvlhiExJrLrkt+/2w+i2E78ZOD4YwHGPw7+ZoD7Ej/IUwZvvOBBtTRfie8F3jg2mD/+wP+TzomTlXH/5rdpiyTlKQs4jhd27UCOrpt/Oa+c72W3yloKDr8JbAcKLTGlBkflgEgHXuTH8OihaeUi0z4FTpyY5V8FFH6/uMY8acDq2p0oVV43RbQOPRmOGmvfpFt9dzCUL8LxAMRMFnCJRu8BNcCijfFKSBVMHfmh6e5bX36f+uB6KAyjIQyoDzIhEsHRHqJbG1NKh8aB73NzIV53VurHOXyPXip1Z+NHz/Aw==);strokeColor=#000000;spacingTop=-3;spacingBottom=-3;spacingLeft=-3;spacingRight=-3;labelBackgroundColor=none;rounded=0;html=1;whiteSpace=wrap;" parent="h40I1kbrtRN0yZqNHY2F-555" vertex="1">
          <mxGeometry width="23" height="35" as="geometry" />
        </mxCell>
        <mxCell id="h40I1kbrtRN0yZqNHY2F-557" value="" style="verticalAlign=middle;align=center;vsdxID=165;fillColor=#FFFFFF;gradientColor=#f3e2c0;shape=stencil(hZDdDsIgDIWfprekUlnkes73WDImRISFMX/eXpAsbibTu3Pa7zRtgepRt4MCjmMM/qLuposa6AicG6dVMDEpoAao7n1Q5+An1xU/tJnM6upvecKj5DAnOD6LqwQT/F05Fdgat4ClZAexCuwQt/G5OcO0Zyi3cWRYrfgfo/+sncTn4N5Yu+x8vyaVylupeQE=);strokeColor=#000000;spacingTop=-3;spacingBottom=-3;spacingLeft=-3;spacingRight=-3;labelBackgroundColor=none;rounded=0;html=1;whiteSpace=wrap;" parent="h40I1kbrtRN0yZqNHY2F-555" vertex="1">
          <mxGeometry y="3" width="19" height="31" as="geometry" />
        </mxCell>
        <mxCell id="h40I1kbrtRN0yZqNHY2F-558" style="vsdxID=166;fillColor=#FFFFFF;gradientColor=none;shape=stencil(hZCxDoMwDES/xity4w7NTOl/IBGaCEhQSEv79yRyEUkXtrP97qQzUL3odlYgcAneDWo1XdBAdxDCWK28CVEBNUB177x6eveyHc9zm8ikJvdOCR/2YXII/ObTg8HR2Ay8YIkSVShzvMw9xct0KavbtTDsAT88iqMCt89v/3Xjil9FzQY=);strokeColor=#d0bc9d;labelBackgroundColor=none;rounded=0;html=1;whiteSpace=wrap;" parent="h40I1kbrtRN0yZqNHY2F-555" vertex="1">
          <mxGeometry x="1" y="3" width="18" height="30" as="geometry" />
        </mxCell>
        <mxCell id="h40I1kbrtRN0yZqNHY2F-559" style="vsdxID=167;fillColor=#FFFFFF;gradientColor=none;shape=stencil(hZDNDoMgEISfZq8G2Zro2Z/3MJEWooJBqu3bC1lNoRdvs7vfTDILWK+yXwRwtjprRrGrwUnABjhXWgqrnFeALWD9NFa8rHnrgealD2RQs9lCwod8LDg4+8ZTR+CkdATmLEXxkWFMp7F3dJpdVVlZJPzlP3EvfgWoe3z7L+tX9ChsDw==);strokeColor=#FFFFFF;labelBackgroundColor=none;rounded=0;html=1;whiteSpace=wrap;" parent="h40I1kbrtRN0yZqNHY2F-555" vertex="1">
          <mxGeometry y="3" width="19" height="31" as="geometry" />
        </mxCell>
        <mxCell id="h40I1kbrtRN0yZqNHY2F-560" value="" style="verticalAlign=middle;align=center;vsdxID=168;fillColor=#000000;gradientColor=none;shape=stencil(rVPRUsMgEPwaHnMDHER4rvU/GEsTxhgyhNr49xJJa2htfPHt2Ns9ltmD4G5szWAJp2MM/s2e3SG2BJ8J565vbXAxVQT3BHdHH2wT/Kk/5PNgZuZcvfuPecKUdXRWcPqZT7UG+vSNvGRy5/oVWTFQBV9rqNd0E15TMyx0JoDKzA8XAVDMyHSdoFkxUyWkXjiVmdxYBR9NdL5fpqrFc2dCY6t0ZXXsTFM8ZzxbO9zBv77p3gAqkPKxQHKQohBwCoxtCChgwWcITGw4Aq0L/pZ7kPp2Nj5OBK9WLoEwDUIXiZQbwSgIsZHGv2bxxzKm4meN8w9Y925XPkH5u+D+Cw==);strokeColor=#000000;spacingTop=-3;spacingBottom=-3;spacingLeft=-3;spacingRight=-3;labelBackgroundColor=none;rounded=0;html=1;whiteSpace=wrap;" parent="h40I1kbrtRN0yZqNHY2F-555" vertex="1">
          <mxGeometry width="23" height="35" as="geometry" />
        </mxCell>
        <mxCell id="h40I1kbrtRN0yZqNHY2F-561" style="vsdxID=169;fillColor=none;gradientColor=none;labelBackgroundColor=none;rounded=0;strokeColor=none;html=1;whiteSpace=wrap;" parent="h40I1kbrtRN0yZqNHY2F-555" vertex="1">
          <mxGeometry x="3" y="12" width="13" height="13" as="geometry" />
        </mxCell>
        <mxCell id="h40I1kbrtRN0yZqNHY2F-562" style="vsdxID=170;fillColor=#FFFFFF;gradientColor=#0000FF;shape=stencil(vVHRDsIgDPwaHkkQsi+Y8z8a121EBFLQbX8vpEvcjE8++HbXu16bVpg2TRBRaJUyhRvOts+TMGehtfUTks0FCdMJ0w6BcKTw8D3zCNVZ0T08a8LCfap2aLUya5he2Al0LRJtTt2wldYj3+ST+hqlFgmLTZJChmyDP0x1QCPKMkYODsYth6U0I8Zd+ffF/rdWAe8zD9a5vfL5kFLiZ5ruBQ==);strokeColor=#000000;labelBackgroundColor=none;rounded=0;html=1;whiteSpace=wrap;" parent="h40I1kbrtRN0yZqNHY2F-561" vertex="1">
          <mxGeometry width="13" height="13" as="geometry" />
        </mxCell>
        <mxCell id="h40I1kbrtRN0yZqNHY2F-563" style="vsdxID=171;fillColor=#4ebd39;gradientColor=none;shape=stencil(vVjJctswDP0aH40hwf3cpv+haZxEU9fOyG6T/n2hSqQMSGYvlm42xQXLw8Mjd+bL5a15P+xQXa7d+cfho32+vu3M1x1ie3o7dO2Vfu3M0858eTl3h9fu/Ov0PPx/b/qZ/a+f59/9Dp/DOqvBmH4Vqj/DiFbq3/9vw/Rje7qdHsAENj1awHS7oOm+09duXIAB3Lh/N65AD8YPQ+MkFwD5rj4C6nHOvvlsL/vufG2u7fk0Ghk8qHGTY9O9HvZ07P7l2LwO3wcX1OXjcHifDS8aqhG854bSkNbMUHLfcUNdBGcrhqqH2mjAi2DSkLLMRhMg8ox6StGKNnKEGAdW8+MVWF9xSoFxwikFOvHAo4SpQ3C4WeBTOb7YSInncbfFoHGK9RAeaqGuFKYB7djpJkGwlQWuVGFeQHlylcRGiJEt6Au5ZhJCEguIbLAKHcOho13eYnkBsVES5JVLdtmkJMFJ9WMrJ9gIyXIfKNCVBY5KlJuEFnzFJKoOjTJKvpI47wB5ptFBCPcXBA2WkxZBI1UOSOA4Moj2Kvv3BvHSVJnzl+eHQt15gQMWUl58MXtXai+WtOcpClBwnp4oZH16UKAEhaWc9GIiQZl7HSjzZit+iLHEIwcR7zvkdGnI2SEqHcW7diIUcSBStZga4+kQM7QfFHljZuAwWFgkG2qLmMgVk4ody4YCPlRcGOoEAiBEdjrsBEJQsJmHVFNBDwaxRLDj9oUAifMIcWHw69knEKxKwKaG5d19h/xM0PkJnqNLOOuaqrDr+kVJzCyY0MoeLKhQFyWXfaKsBC4AiY+9gDsx7opkKJzCouemDmhrDS1JwYoysfOGw8Om0/9apmz7Pve4ey1K6HxbPcD5Wenmnrs8nxyU+9e0l52IYJxPG1SUlFUyB5WEUVmIwiJI1WQaQhBXRg2hAnPaT4goypeqdHxfiGaqXM8rl9S2ErJpVbUtbrWzexjdRnjTMbMU9Iwat7LQFmIrDacENTthJQhJSJrNFAnly4maCZndlhdY4LBLWQYuTtdWyFJSabXLhC4leHv7qDjQPw+IE2IG5TIz5tvPjcOuUgZUxaNIm1QYNUGuwtQMY5t1ZFdEVIYY3Vwq/lDVy7cgipiPzB8SlTzLdFFVK4JSmBjLRaKbkmT5Tb9PpHiMKI9g27wCKS1sRGkjKU5hIzXB8NhXoEocJ8ExMXjgdzZi8MTrP9iJRFcHr9XyQkRKylVciiCAMXW1m5c3XhDRFt2/QVPC/M42dSUtHqnuP/euEnL6MT08v7TH4+0X+URNQ8Pztnn6Cw==);strokeColor=#000000;labelBackgroundColor=none;rounded=0;html=1;whiteSpace=wrap;" parent="h40I1kbrtRN0yZqNHY2F-561" vertex="1">
          <mxGeometry width="13" height="12" as="geometry" />
        </mxCell>
        <mxCell id="h40I1kbrtRN0yZqNHY2F-564" value="&lt;font style=&quot;font-size: 16px ; font-family: &amp;#34;simsun&amp;#34; ; color: #000000 ; direction: ltr ; letter-spacing: 0px ; line-height: 120% ; opacity: 1&quot;&gt;基础服务FTP&lt;br&gt;10.180.5.15&lt;br&gt;10.180.5.16&lt;br&gt;&lt;/font&gt;" style="text;vsdxID=148;fillColor=none;gradientColor=none;labelBackgroundColor=none;rounded=0;strokeColor=none;html=1;whiteSpace=wrap;verticalAlign=middle;align=center;;html=1;" parent="h40I1kbrtRN0yZqNHY2F-540" vertex="1">
          <mxGeometry x="-62.78" y="112" width="197.56" height="51.93" as="geometry" />
        </mxCell>
        <mxCell id="h40I1kbrtRN0yZqNHY2F-565" style="vsdxID=333;fillColor=none;gradientColor=none;labelBackgroundColor=none;rounded=0;strokeColor=none;html=1;whiteSpace=wrap;" parent="1" vertex="1">
          <mxGeometry x="291.22" y="432" width="56" height="104" as="geometry" />
        </mxCell>
        <mxCell id="h40I1kbrtRN0yZqNHY2F-566" style="vsdxID=334;fillColor=#FF00FF;gradientColor=none;fillOpacity=0;strokeOpacity=0;shape=stencil(vVbRcoMgEPwaH70B7kB4TtP/cBqTOLWaQdukf18tsQ3QkmSm9g1h79zdg4MMV/2+PFSZYP1gu+fqWG+GfYYPmRB1u69sPYyjDNcZrradrXa2e2037vtQTshp9NK9TRlOLo4zNsUI9n7+LoDrz5lHB2/q9gJeIDDtBRhgJoEPsjNgeDNaJ1NTRIX9Dg5oIPAiAQYmPDwpMJ4ppX0aV+3MRIAkF2DPEUKAcNznpCNb5SfVIGdIXp7qPrfdUA5113qUm9Luqnz8Yb5typ231B+r6hBN36CfDMhEGSL9GgFlQr8ExEA/QiE9/UKBDHYOA8P/ywCMRRnQCRPiACOAKO2CiF0gzwUZufB1AJf3IDzrWiUdCOES523+I9wQGB8vgPE70jOgxKG82qiCvsbBSD9AA3lqg/IpUCooHwFd28SCz0djkQJGHMM+Q4Dco5gS/lcU+T2+S4JU7yzmTXKpSeEV22UBxYK9I7Kdh/2N5hvkBuGL2D4Ovu/0bd007klwuR6+AcYp937A9Qc=);labelBackgroundColor=none;rounded=0;html=1;whiteSpace=wrap;" parent="h40I1kbrtRN0yZqNHY2F-565" vertex="1">
          <mxGeometry width="56" height="104" as="geometry" />
        </mxCell>
        <mxCell id="h40I1kbrtRN0yZqNHY2F-567" style="vsdxID=335;fillColor=none;gradientColor=none;labelBackgroundColor=none;rounded=0;strokeColor=none;html=1;whiteSpace=wrap;" parent="h40I1kbrtRN0yZqNHY2F-565" vertex="1">
          <mxGeometry y="37" width="39" height="56" as="geometry" />
        </mxCell>
        <mxCell id="h40I1kbrtRN0yZqNHY2F-568" style="vsdxID=336;fillColor=#ffffff;gradientColor=#e1d8c1;gradientDirection=north;shape=stencil(fVHbEoIgEP0aHmFQvD6X/QeTqEwEzkJpfx9ETtrtbffc2GUR29mBjwKl1DowJzHJ1g2I7VGaSj0IkM5XiDWI7ToDogdz0W3sRx6UoTqba0iYo4+VpM6DK6W3iCSUPvpDlCupV/KFXMTeXlW/5UVC8mxj+JO9TfbWolyLORw9C0tyQaokGmAZPMlIWUdstV35dTs6Yz5Li8E47qTRmxEUh15g/yDuFO83lJ2EGD/g54i+eP1zJ5WKZ1rz73fxULwpa+4=);strokeColor=#ffffff;spacingTop=-3;spacingBottom=-3;spacingLeft=-3;spacingRight=-3;labelBackgroundColor=none;rounded=0;html=1;whiteSpace=wrap;" parent="h40I1kbrtRN0yZqNHY2F-567" vertex="1">
          <mxGeometry width="39" height="22" as="geometry" />
        </mxCell>
        <mxCell id="h40I1kbrtRN0yZqNHY2F-569" style="vsdxID=337;fillColor=#ffffff;gradientColor=#c9ba96;shape=stencil(rVJBEoMgDHwNRxkEHfFs7T+YisqUihNptb8vFDtVO3rqLcnuJiwJYsXQil4iSgYL5ipHVdkWsROiVHWtBGVdhFiJWFEbkA2Ye1eFvBee6aObefgOU9DFhHgNJc85zzFP35VzoAu4OBQ+9CzBMQ8KmCUpxykLpZm1bjlnUyQmNURgrLDKdCtMC2hk5EZFtRbNChpGKftFOV4+TqtO7o3lMc6SIycEp1snGWZ05eTne8h/3ZB9N3mO8+R4Ny747rVWWoezWOLbO3ClcEOsfAE=);strokeColor=#ffffff;spacingTop=-3;spacingBottom=-3;spacingLeft=-3;spacingRight=-3;labelBackgroundColor=none;rounded=0;html=1;whiteSpace=wrap;" parent="h40I1kbrtRN0yZqNHY2F-567" vertex="1">
          <mxGeometry y="13" width="14" height="43" as="geometry" />
        </mxCell>
        <mxCell id="h40I1kbrtRN0yZqNHY2F-570" style="vsdxID=338;fillColor=#ffffff;gradientColor=#b6a06d;shape=stencil(UzV2Ls5ILEhVNTIoLinKz04tz0wpyVA1dlE1MsrMy0gtyiwBslSNXVWNndPyi1LTi/JL81Ig/IJEkEoQKze/DGRCBUSfAUiHkUElhGdkoWdqBhZxgyjOyczDqdjQwAC3UpgkTLG5oZ65EfHK8ZhMwMVABsKvaZk5OZCgQpZHDxugECRcjV0B);strokeColor=#ffffff;spacingTop=-3;spacingBottom=-3;spacingLeft=-3;spacingRight=-3;labelBackgroundColor=none;rounded=0;html=1;whiteSpace=wrap;" parent="h40I1kbrtRN0yZqNHY2F-567" vertex="1">
          <mxGeometry x="14" y="8" width="24" height="48" as="geometry" />
        </mxCell>
        <mxCell id="h40I1kbrtRN0yZqNHY2F-571" value="" style="verticalAlign=middle;align=center;vsdxID=339;fillColor=#000000;gradientColor=none;shape=stencil(jZLdEoIgEIWfhksZBPzp2uw9mERlMnFWSnv7MHQSraa73bPfgV0WxLK+Fp1ElPQG9EUOqjA1YkdEqWprCcrYCLEcsazUICvQt7ZweScmcoqu+j6dMDpfSMjkoeQx5xyn7KWcHN6odoXHIY64ZyDfYf9kynHIf8CYUI9P4w0v4GyrsHRiG3U8zAbOcJQ4aWZYgg+JP94y7hiIUfUBaCOM0q3XcCOgkoG9LigbUXmlfpCy28kfB9q+bBLhNP4f3y3CBu8luv2va9uFW8l9FpY/AQ==);strokeColor=#000000;spacingTop=-3;spacingBottom=-3;spacingLeft=-3;spacingRight=-3;labelBackgroundColor=none;rounded=0;html=1;whiteSpace=wrap;" parent="h40I1kbrtRN0yZqNHY2F-567" vertex="1">
          <mxGeometry width="39" height="56" as="geometry" />
        </mxCell>
        <mxCell id="h40I1kbrtRN0yZqNHY2F-572" style="vsdxID=340;rotation=340;fillColor=#FFFFFF;gradientColor=#339966;shape=stencil(vVHLDsIgEPwajiQI6RfU+h8bu22JCGRB2/69kG1iazx58DazM/vIjjBtmiCi0CplCjecbZ8nYc5Ca+snJJsLEqYTph0C4Ujh4XvmEaqzont41gkL96naodXKrGF6YSfQtUi0OXXDVlqPfJNP6usotUhYbJIUMmQb/GGrAxpRljVycDBuc1hKM2LclX8/7H9nFfB+82Cd45T2+mcspcSRmu4F);strokeColor=#000000;labelBackgroundColor=none;rounded=0;html=1;whiteSpace=wrap;" parent="h40I1kbrtRN0yZqNHY2F-567" vertex="1">
          <mxGeometry x="5" y="34" width="2" height="3" as="geometry" />
        </mxCell>
        <mxCell id="h40I1kbrtRN0yZqNHY2F-573" style="vsdxID=341;fillColor=#FFFFFF;gradientColor=#e7e4cd;gradientDirection=north;shape=stencil(xZLdDsIgDIWfhssRKPvB67m9B1HciDqWDv/eXpYu6jRxV8a7tue08CWHqXJoTW8ZiCGg39uL24aWqTUDcF1r0YVYMVUxVe482gb9qdtS35vROVZHfx4vXGlPjBsgbq9dTUaDm6jgZFRCcklmnNxQ5HylaTa5pJgfzHIuYXIk5uqGBH0wwfmOdJ3xrCD9YLCxSXw02R1MM/vdcLG2/xjXyzwg+SpdYIJ3qOIrUaG5yP9HlCqu9QJR+kHEBXyFevS/QorFM4EU3lftPa1xRElX1R0=);strokeColor=#000000;strokeWidth=2;labelBackgroundColor=none;rounded=0;html=1;whiteSpace=wrap;" parent="h40I1kbrtRN0yZqNHY2F-567" vertex="1">
          <mxGeometry x="2" y="42" width="10" height="9" as="geometry" />
        </mxCell>
        <mxCell id="h40I1kbrtRN0yZqNHY2F-574" style="vsdxID=342;fillColor=none;gradientColor=none;labelBackgroundColor=none;rounded=0;strokeColor=none;html=1;whiteSpace=wrap;" parent="h40I1kbrtRN0yZqNHY2F-567" vertex="1">
          <mxGeometry x="2" y="20" width="10" height="11" as="geometry" />
        </mxCell>
        <mxCell id="h40I1kbrtRN0yZqNHY2F-575" style="vsdxID=343;fillColor=#000000;gradientColor=none;shape=stencil(vZPdcoMgEIWfhkt3gEXQ6zR5D6ZBZWLFQfLTty8W+kPatDdt7tZzzsLHjktwswx6NoTTJXh3MGe7DwPBB8K5nQbjbYgVwS3BTee86b07Tvv0Pes1uVZP7rSecEl9CMjWJk6fk8AECHxVdimv/WN0fc5zFFAnn/rcgi0H0SYtx1oJvCnPpTQnKn2xS+Vd0MG6KbnZG7XvTRVvrLpR94W1nI2Zv8jfMgpQsiRU0Kpf+Jr4bnEvwngdsKshNgwUFpA1MFXOEFD+KSK7jYhAm5Iw4siCjwLlBV8Nqr7XCOX7tN74GANeAv7wc/8LYSw+9qyz45jW9LN/vZdRSjuN2xc=);strokeColor=#000000;labelBackgroundColor=none;rounded=0;html=1;whiteSpace=wrap;" parent="h40I1kbrtRN0yZqNHY2F-574" vertex="1">
          <mxGeometry width="10" height="6" as="geometry" />
        </mxCell>
        <mxCell id="h40I1kbrtRN0yZqNHY2F-576" style="vsdxID=344;fillColor=#FFFFFF;gradientColor=#e7e4cd;shape=stencil(pVFLDoIwED1NlzTTliCs/dyjkQKNSMlQBW9vcWoUxZW7mfeZvuYxtR0a3RsmYfDoTma0pW+Y2jEpbdcYtD5MTO2Z2lYOTY3u0pW093pWztPZXecLE/kEwOyRcKO9yDmIB3IgucZjYPEplxkvUnJgtAiRcklQVEmebhZXJXDIoyTRkx0SdF576zri84KL6Gg11iYJryZVq2uiY8RhNKb/gldz5sBFtoyZpVwsY/7++3pK+C9hGF4tVLZtqcR3/rO1AFHjan8H);strokeColor=#FFFFFF;strokeWidth=0;labelBackgroundColor=none;rounded=0;html=1;whiteSpace=wrap;" parent="h40I1kbrtRN0yZqNHY2F-574" vertex="1">
          <mxGeometry x="3" y="3" width="3" height="2" as="geometry" />
        </mxCell>
        <mxCell id="h40I1kbrtRN0yZqNHY2F-577" style="vsdxID=345;fillColor=#000000;gradientColor=#e7e4cd;fillOpacity=40;shape=stencil(rVJLEoIwDD1Nl3RK4lBc+7lHRwt0rJQJVfD2lqkfQHTlLp/3krwkDDdtpRrNQLSe3El35ugrhlsGYOpKk/HBYrhjuCkc6ZLcpT5Gv1EDcrDO7jpU6CNPDAwQt7G3j0Br6q9ARC5xDFZ0CFl6gEGmHFaRQU8KZDyPoQcqFdOiL79PVG/ahJxX3rh6MoBVVOoktEsKq8pJqu20bj7Ci2rmrbOMg/yhJxcc1jM9KLmc6Fna5b+0pOPhgvG+Z2Gsje8wzs/vH0Lxd3B3Bw==);strokeColor=none;strokeWidth=0;labelBackgroundColor=none;rounded=0;html=1;whiteSpace=wrap;" parent="h40I1kbrtRN0yZqNHY2F-574" vertex="1">
          <mxGeometry y="3" width="10" height="8" as="geometry" />
        </mxCell>
        <mxCell id="h40I1kbrtRN0yZqNHY2F-578" style="vsdxID=346;fillColor=#000000;gradientColor=none;shape=stencil(rVLLEoIwDPyaHun0gRbOiP/R0QIdK2XSqvj3Fouj1UEv3pLNbpKdBPHKdXJQiBHnwR7URe99h/gGMab7ToH2IUK8RrxqLKgW7Knfx3yQE3OKjvY8dRijjkwKRq4xoxSz8o5sI1nCLlRhJrN8hVciKmCW8HKNSRGxmUbJW9dHPmZy1C4D66XXtk82MBJalYV5WWNkm5TcRanhA543NLpXy6OLAgv6xZCgOOepoZwLLMrEUNrzv2bospkftwnB86qNNiY+xWv9/QsCFD+I1zc=);strokeColor=none;labelBackgroundColor=none;rounded=0;html=1;whiteSpace=wrap;" parent="h40I1kbrtRN0yZqNHY2F-574" vertex="1">
          <mxGeometry y="4" width="10" height="6" as="geometry" />
        </mxCell>
        <mxCell id="h40I1kbrtRN0yZqNHY2F-579" style="vsdxID=347;fillColor=none;gradientColor=none;fillOpacity=40;shape=stencil(dVDRDoIwDPyaPY6M1ojviP+xyBiLuJFuCv69W4YKGt/uendtcwxr38tRMRA+kLuoybShZ3hkAMb2ikyIiGHDsO4cKU3uZtvMR5mcCV3dPW2Yc06kBIjHmp2ycTD2rxGxqHBtlnSOKi1mqMoCdjlBrwjsi0MeLa5SbJe++czlbDwnF2Qwzm4eGCRpxeM53g1SbyQ/KTX+jJcHI/h0kOtba999xVHuGpsn);strokeColor=#FFFFFF;labelBackgroundColor=none;rounded=0;html=1;whiteSpace=wrap;" parent="h40I1kbrtRN0yZqNHY2F-574" vertex="1">
          <mxGeometry y="3" width="10" height="8" as="geometry" />
        </mxCell>
        <mxCell id="h40I1kbrtRN0yZqNHY2F-580" style="vsdxID=348;fillColor=#000000;gradientColor=#e7e4cd;fillOpacity=40;shape=stencil(fVDLDsIgEPwajjR0N2n1XPU/iKUtsUKzoK1/L4QawYO3mZ0HZBh2bpKLYiCcJ3tTq+79xPDEALSZFGkfEMMzw26wpEayD9MnvsjojOhun7FhS7laiJgB8Sr5JZlnbf6Ym6aCNrdLugaVdjscRAXHlKA9gthWKfIpLSt3tnG5acfJeum1NYU2SxoVD0/xYZZjIblVqSU71/nnAviukAbMtd/Fwimtjec3);strokeColor=#000000;labelBackgroundColor=none;rounded=0;html=1;whiteSpace=wrap;" parent="h40I1kbrtRN0yZqNHY2F-574" vertex="1">
          <mxGeometry y="3" width="10" height="8" as="geometry" />
        </mxCell>
        <mxCell id="h40I1kbrtRN0yZqNHY2F-581" style="vsdxID=349;fillColor=none;gradientColor=none;labelBackgroundColor=none;rounded=0;strokeColor=none;html=1;whiteSpace=wrap;" parent="h40I1kbrtRN0yZqNHY2F-565" vertex="1">
          <mxGeometry width="39" height="56" as="geometry" />
        </mxCell>
        <mxCell id="h40I1kbrtRN0yZqNHY2F-582" style="vsdxID=350;fillColor=#ffffff;gradientColor=#e1d8c1;gradientDirection=north;shape=stencil(fVHbEoIgEP0aHmFQvD6X/QeTqEwEzkJpfx9ETtrtbffc2GUR29mBjwKl1DowJzHJ1g2I7VGaSj0IkM5XiDWI7ToDogdz0W3sRx6UoTqba0iYo4+VpM6DK6W3iCSUPvpDlCupV/KFXMTeXlW/5UVC8mxj+JO9TfbWolyLORw9C0tyQaokGmAZPMlIWUdstV35dTs6Yz5Li8E47qTRmxEUh15g/yDuFO83lJ2EGD/g54i+eP1zJ5WKZ1rz73fxULwpa+4=);strokeColor=#ffffff;spacingTop=-3;spacingBottom=-3;spacingLeft=-3;spacingRight=-3;labelBackgroundColor=none;rounded=0;html=1;whiteSpace=wrap;" parent="h40I1kbrtRN0yZqNHY2F-581" vertex="1">
          <mxGeometry width="39" height="22" as="geometry" />
        </mxCell>
        <mxCell id="h40I1kbrtRN0yZqNHY2F-583" style="vsdxID=351;fillColor=#ffffff;gradientColor=#c9ba96;shape=stencil(rVJBEoMgDHwNRxkEHfFs7T+YisqUihNptb8vFDtVO3rqLcnuJiwJYsXQil4iSgYL5ipHVdkWsROiVHWtBGVdhFiJWFEbkA2Ye1eFvBee6aObefgOU9DFhHgNJc85zzFP35VzoAu4OBQ+9CzBMQ8KmCUpxykLpZm1bjlnUyQmNURgrLDKdCtMC2hk5EZFtRbNChpGKftFOV4+TqtO7o3lMc6SIycEp1snGWZ05eTne8h/3ZB9N3mO8+R4Ny747rVWWoezWOLbO3ClcEOsfAE=);strokeColor=#ffffff;spacingTop=-3;spacingBottom=-3;spacingLeft=-3;spacingRight=-3;labelBackgroundColor=none;rounded=0;html=1;whiteSpace=wrap;" parent="h40I1kbrtRN0yZqNHY2F-581" vertex="1">
          <mxGeometry y="13" width="14" height="43" as="geometry" />
        </mxCell>
        <mxCell id="h40I1kbrtRN0yZqNHY2F-584" style="vsdxID=352;fillColor=#ffffff;gradientColor=#b6a06d;shape=stencil(UzV2Ls5ILEhVNTIoLinKz04tz0wpyVA1dlE1MsrMy0gtyiwBslSNXVWNndPyi1LTi/JL81Ig/IJEkEoQKze/DGRCBUSfAUiHkUElhGdkoWdqBhZxgyjOyczDqdjQwAC3UpgkTLG5oZ65EfHK8ZhMwMVABsKvaZk5OZCgQpZHDxugECRcjV0B);strokeColor=#ffffff;spacingTop=-3;spacingBottom=-3;spacingLeft=-3;spacingRight=-3;labelBackgroundColor=none;rounded=0;html=1;whiteSpace=wrap;" parent="h40I1kbrtRN0yZqNHY2F-581" vertex="1">
          <mxGeometry x="14" y="8" width="24" height="48" as="geometry" />
        </mxCell>
        <mxCell id="h40I1kbrtRN0yZqNHY2F-585" value="" style="verticalAlign=middle;align=center;vsdxID=353;fillColor=#000000;gradientColor=none;shape=stencil(jZLdEoIgEIWfhksZBPzp2uw9mERlMnFWSnv7MHQSraa73bPfgV0WxLK+Fp1ElPQG9EUOqjA1YkdEqWprCcrYCLEcsazUICvQt7ZweScmcoqu+j6dMDpfSMjkoeQx5xyn7KWcHN6odoXHIY64ZyDfYf9kynHIf8CYUI9P4w0v4GyrsHRiG3U8zAbOcJQ4aWZYgg+JP94y7hiIUfUBaCOM0q3XcCOgkoG9LigbUXmlfpCy28kfB9q+bBLhNP4f3y3CBu8luv2va9uFW8l9FpY/AQ==);strokeColor=#000000;spacingTop=-3;spacingBottom=-3;spacingLeft=-3;spacingRight=-3;labelBackgroundColor=none;rounded=0;html=1;whiteSpace=wrap;" parent="h40I1kbrtRN0yZqNHY2F-581" vertex="1">
          <mxGeometry width="39" height="56" as="geometry" />
        </mxCell>
        <mxCell id="h40I1kbrtRN0yZqNHY2F-586" style="vsdxID=354;rotation=340;fillColor=#FFFFFF;gradientColor=#339966;shape=stencil(vVHLDsIgEPwajiQI6RfU+h8bu22JCGRB2/69kG1iazx58DazM/vIjjBtmiCi0CplCjecbZ8nYc5Ca+snJJsLEqYTph0C4Ujh4XvmEaqzont41gkL96naodXKrGF6YSfQtUi0OXXDVlqPfJNP6usotUhYbJIUMmQb/GGrAxpRljVycDBuc1hKM2LclX8/7H9nFfB+82Cd45T2+mcspcSRmu4F);strokeColor=#000000;labelBackgroundColor=none;rounded=0;html=1;whiteSpace=wrap;" parent="h40I1kbrtRN0yZqNHY2F-581" vertex="1">
          <mxGeometry x="5" y="34" width="2" height="3" as="geometry" />
        </mxCell>
        <mxCell id="h40I1kbrtRN0yZqNHY2F-587" style="vsdxID=355;fillColor=#FFFFFF;gradientColor=#e7e4cd;gradientDirection=north;shape=stencil(xZLdDsIgDIWfhssRKPvB67m9B1HciDqWDv/eXpYu6jRxV8a7tue08CWHqXJoTW8ZiCGg39uL24aWqTUDcF1r0YVYMVUxVe482gb9qdtS35vROVZHfx4vXGlPjBsgbq9dTUaDm6jgZFRCcklmnNxQ5HylaTa5pJgfzHIuYXIk5uqGBH0wwfmOdJ3xrCD9YLCxSXw02R1MM/vdcLG2/xjXyzwg+SpdYIJ3qOIrUaG5yP9HlCqu9QJR+kHEBXyFevS/QorFM4EU3lftPa1xRElX1R0=);strokeColor=#000000;strokeWidth=2;labelBackgroundColor=none;rounded=0;html=1;whiteSpace=wrap;" parent="h40I1kbrtRN0yZqNHY2F-581" vertex="1">
          <mxGeometry x="2" y="42" width="10" height="9" as="geometry" />
        </mxCell>
        <mxCell id="h40I1kbrtRN0yZqNHY2F-588" style="vsdxID=356;fillColor=none;gradientColor=none;labelBackgroundColor=none;rounded=0;strokeColor=none;html=1;whiteSpace=wrap;" parent="h40I1kbrtRN0yZqNHY2F-581" vertex="1">
          <mxGeometry x="2" y="20" width="10" height="11" as="geometry" />
        </mxCell>
        <mxCell id="h40I1kbrtRN0yZqNHY2F-589" style="vsdxID=357;fillColor=#000000;gradientColor=none;shape=stencil(vZPdcoMgEIWfhkt3gEXQ6zR5D6ZBZWLFQfLTty8W+kPatDdt7tZzzsLHjktwswx6NoTTJXh3MGe7DwPBB8K5nQbjbYgVwS3BTee86b07Tvv0Pes1uVZP7rSecEl9CMjWJk6fk8AECHxVdimv/WN0fc5zFFAnn/rcgi0H0SYtx1oJvCnPpTQnKn2xS+Vd0MG6KbnZG7XvTRVvrLpR94W1nI2Zv8jfMgpQsiRU0Kpf+Jr4bnEvwngdsKshNgwUFpA1MFXOEFD+KSK7jYhAm5Iw4siCjwLlBV8Nqr7XCOX7tN74GANeAv7wc/8LYSw+9qyz45jW9LN/vZdRSjuN2xc=);strokeColor=#000000;labelBackgroundColor=none;rounded=0;html=1;whiteSpace=wrap;" parent="h40I1kbrtRN0yZqNHY2F-588" vertex="1">
          <mxGeometry width="10" height="6" as="geometry" />
        </mxCell>
        <mxCell id="h40I1kbrtRN0yZqNHY2F-590" style="vsdxID=358;fillColor=#FFFFFF;gradientColor=#e7e4cd;shape=stencil(pVFLDoIwED1NlzTTliCs/dyjkQKNSMlQBW9vcWoUxZW7mfeZvuYxtR0a3RsmYfDoTma0pW+Y2jEpbdcYtD5MTO2Z2lYOTY3u0pW093pWztPZXecLE/kEwOyRcKO9yDmIB3IgucZjYPEplxkvUnJgtAiRcklQVEmebhZXJXDIoyTRkx0SdF576zri84KL6Gg11iYJryZVq2uiY8RhNKb/gldz5sBFtoyZpVwsY/7++3pK+C9hGF4tVLZtqcR3/rO1AFHjan8H);strokeColor=#FFFFFF;strokeWidth=0;labelBackgroundColor=none;rounded=0;html=1;whiteSpace=wrap;" parent="h40I1kbrtRN0yZqNHY2F-588" vertex="1">
          <mxGeometry x="3" y="3" width="3" height="2" as="geometry" />
        </mxCell>
        <mxCell id="h40I1kbrtRN0yZqNHY2F-591" style="vsdxID=359;fillColor=#000000;gradientColor=#e7e4cd;fillOpacity=40;shape=stencil(rVJLEoIwDD1Nl3RK4lBc+7lHRwt0rJQJVfD2lqkfQHTlLp/3krwkDDdtpRrNQLSe3El35ugrhlsGYOpKk/HBYrhjuCkc6ZLcpT5Gv1EDcrDO7jpU6CNPDAwQt7G3j0Br6q9ARC5xDFZ0CFl6gEGmHFaRQU8KZDyPoQcqFdOiL79PVG/ahJxX3rh6MoBVVOoktEsKq8pJqu20bj7Ci2rmrbOMg/yhJxcc1jM9KLmc6Fna5b+0pOPhgvG+Z2Gsje8wzs/vH0Lxd3B3Bw==);strokeColor=none;strokeWidth=0;labelBackgroundColor=none;rounded=0;html=1;whiteSpace=wrap;" parent="h40I1kbrtRN0yZqNHY2F-588" vertex="1">
          <mxGeometry y="3" width="10" height="8" as="geometry" />
        </mxCell>
        <mxCell id="h40I1kbrtRN0yZqNHY2F-592" style="vsdxID=360;fillColor=#000000;gradientColor=none;shape=stencil(rVLLEoIwDPyaHun0gRbOiP/R0QIdK2XSqvj3Fouj1UEv3pLNbpKdBPHKdXJQiBHnwR7URe99h/gGMab7ToH2IUK8RrxqLKgW7Knfx3yQE3OKjvY8dRijjkwKRq4xoxSz8o5sI1nCLlRhJrN8hVciKmCW8HKNSRGxmUbJW9dHPmZy1C4D66XXtk82MBJalYV5WWNkm5TcRanhA543NLpXy6OLAgv6xZCgOOepoZwLLMrEUNrzv2bospkftwnB86qNNiY+xWv9/QsCFD+I1zc=);strokeColor=none;labelBackgroundColor=none;rounded=0;html=1;whiteSpace=wrap;" parent="h40I1kbrtRN0yZqNHY2F-588" vertex="1">
          <mxGeometry y="4" width="10" height="6" as="geometry" />
        </mxCell>
        <mxCell id="h40I1kbrtRN0yZqNHY2F-593" style="vsdxID=361;fillColor=none;gradientColor=none;fillOpacity=40;shape=stencil(dVDRDoIwDPyaPY6M1ojviP+xyBiLuJFuCv69W4YKGt/uendtcwxr38tRMRA+kLuoybShZ3hkAMb2ikyIiGHDsO4cKU3uZtvMR5mcCV3dPW2Yc06kBIjHmp2ycTD2rxGxqHBtlnSOKi1mqMoCdjlBrwjsi0MeLa5SbJe++czlbDwnF2Qwzm4eGCRpxeM53g1SbyQ/KTX+jJcHI/h0kOtba999xVHuGpsn);strokeColor=#FFFFFF;labelBackgroundColor=none;rounded=0;html=1;whiteSpace=wrap;" parent="h40I1kbrtRN0yZqNHY2F-588" vertex="1">
          <mxGeometry y="3" width="10" height="8" as="geometry" />
        </mxCell>
        <mxCell id="h40I1kbrtRN0yZqNHY2F-594" style="vsdxID=362;fillColor=#000000;gradientColor=#e7e4cd;fillOpacity=40;shape=stencil(fVDLDsIgEPwajjR0N2n1XPU/iKUtsUKzoK1/L4QawYO3mZ0HZBh2bpKLYiCcJ3tTq+79xPDEALSZFGkfEMMzw26wpEayD9MnvsjojOhun7FhS7laiJgB8Sr5JZlnbf6Ym6aCNrdLugaVdjscRAXHlKA9gthWKfIpLSt3tnG5acfJeum1NYU2SxoVD0/xYZZjIblVqSU71/nnAviukAbMtd/Fwimtjec3);strokeColor=#000000;labelBackgroundColor=none;rounded=0;html=1;whiteSpace=wrap;" parent="h40I1kbrtRN0yZqNHY2F-588" vertex="1">
          <mxGeometry y="3" width="10" height="8" as="geometry" />
        </mxCell>
        <mxCell id="h40I1kbrtRN0yZqNHY2F-595" style="vsdxID=363;fillColor=none;gradientColor=none;labelBackgroundColor=none;rounded=0;strokeColor=none;html=1;whiteSpace=wrap;" parent="h40I1kbrtRN0yZqNHY2F-565" vertex="1">
          <mxGeometry x="16" y="47" width="39" height="56" as="geometry" />
        </mxCell>
        <mxCell id="h40I1kbrtRN0yZqNHY2F-596" style="vsdxID=364;fillColor=#ffffff;gradientColor=#e1d8c1;gradientDirection=north;shape=stencil(fVHbEoIgEP0aHmFQvD6X/QeTqEwEzkJpfx9ETtrtbffc2GUR29mBjwKl1DowJzHJ1g2I7VGaSj0IkM5XiDWI7ToDogdz0W3sRx6UoTqba0iYo4+VpM6DK6W3iCSUPvpDlCupV/KFXMTeXlW/5UVC8mxj+JO9TfbWolyLORw9C0tyQaokGmAZPMlIWUdstV35dTs6Yz5Li8E47qTRmxEUh15g/yDuFO83lJ2EGD/g54i+eP1zJ5WKZ1rz73fxULwpa+4=);strokeColor=#ffffff;spacingTop=-3;spacingBottom=-3;spacingLeft=-3;spacingRight=-3;labelBackgroundColor=none;rounded=0;html=1;whiteSpace=wrap;" parent="h40I1kbrtRN0yZqNHY2F-595" vertex="1">
          <mxGeometry width="39" height="22" as="geometry" />
        </mxCell>
        <mxCell id="h40I1kbrtRN0yZqNHY2F-597" style="vsdxID=365;fillColor=#ffffff;gradientColor=#c9ba96;shape=stencil(rVJBEoMgDHwNRxkEHfFs7T+YisqUihNptb8vFDtVO3rqLcnuJiwJYsXQil4iSgYL5ipHVdkWsROiVHWtBGVdhFiJWFEbkA2Ye1eFvBee6aObefgOU9DFhHgNJc85zzFP35VzoAu4OBQ+9CzBMQ8KmCUpxykLpZm1bjlnUyQmNURgrLDKdCtMC2hk5EZFtRbNChpGKftFOV4+TqtO7o3lMc6SIycEp1snGWZ05eTne8h/3ZB9N3mO8+R4Ny747rVWWoezWOLbO3ClcEOsfAE=);strokeColor=#ffffff;spacingTop=-3;spacingBottom=-3;spacingLeft=-3;spacingRight=-3;labelBackgroundColor=none;rounded=0;html=1;whiteSpace=wrap;" parent="h40I1kbrtRN0yZqNHY2F-595" vertex="1">
          <mxGeometry y="13" width="14" height="43" as="geometry" />
        </mxCell>
        <mxCell id="h40I1kbrtRN0yZqNHY2F-598" style="vsdxID=366;fillColor=#ffffff;gradientColor=#b6a06d;shape=stencil(UzV2Ls5ILEhVNTIoLinKz04tz0wpyVA1dlE1MsrMy0gtyiwBslSNXVWNndPyi1LTi/JL81Ig/IJEkEoQKze/DGRCBUSfAUiHkUElhGdkoWdqBhZxgyjOyczDqdjQwAC3UpgkTLG5oZ65EfHK8ZhMwMVABsKvaZk5OZCgQpZHDxugECRcjV0B);strokeColor=#ffffff;spacingTop=-3;spacingBottom=-3;spacingLeft=-3;spacingRight=-3;labelBackgroundColor=none;rounded=0;html=1;whiteSpace=wrap;" parent="h40I1kbrtRN0yZqNHY2F-595" vertex="1">
          <mxGeometry x="14" y="8" width="24" height="48" as="geometry" />
        </mxCell>
        <mxCell id="h40I1kbrtRN0yZqNHY2F-599" value="" style="verticalAlign=middle;align=center;vsdxID=367;fillColor=#000000;gradientColor=none;shape=stencil(jZLdEoIgEIWfhksZBPzp2uw9mERlMnFWSnv7MHQSraa73bPfgV0WxLK+Fp1ElPQG9EUOqjA1YkdEqWprCcrYCLEcsazUICvQt7ZweScmcoqu+j6dMDpfSMjkoeQx5xyn7KWcHN6odoXHIY64ZyDfYf9kynHIf8CYUI9P4w0v4GyrsHRiG3U8zAbOcJQ4aWZYgg+JP94y7hiIUfUBaCOM0q3XcCOgkoG9LigbUXmlfpCy28kfB9q+bBLhNP4f3y3CBu8luv2va9uFW8l9FpY/AQ==);strokeColor=#000000;spacingTop=-3;spacingBottom=-3;spacingLeft=-3;spacingRight=-3;labelBackgroundColor=none;rounded=0;html=1;whiteSpace=wrap;" parent="h40I1kbrtRN0yZqNHY2F-595" vertex="1">
          <mxGeometry width="39" height="56" as="geometry" />
        </mxCell>
        <mxCell id="h40I1kbrtRN0yZqNHY2F-600" style="vsdxID=368;rotation=340;fillColor=#FFFFFF;gradientColor=#339966;shape=stencil(vVHLDsIgEPwajiQI6RfU+h8bu22JCGRB2/69kG1iazx58DazM/vIjjBtmiCi0CplCjecbZ8nYc5Ca+snJJsLEqYTph0C4Ujh4XvmEaqzont41gkL96naodXKrGF6YSfQtUi0OXXDVlqPfJNP6usotUhYbJIUMmQb/GGrAxpRljVycDBuc1hKM2LclX8/7H9nFfB+82Cd45T2+mcspcSRmu4F);strokeColor=#000000;labelBackgroundColor=none;rounded=0;html=1;whiteSpace=wrap;" parent="h40I1kbrtRN0yZqNHY2F-595" vertex="1">
          <mxGeometry x="5" y="34" width="2" height="3" as="geometry" />
        </mxCell>
        <mxCell id="h40I1kbrtRN0yZqNHY2F-601" style="vsdxID=369;fillColor=#FFFFFF;gradientColor=#e7e4cd;gradientDirection=north;shape=stencil(xZLdDsIgDIWfhssRKPvB67m9B1HciDqWDv/eXpYu6jRxV8a7tue08CWHqXJoTW8ZiCGg39uL24aWqTUDcF1r0YVYMVUxVe482gb9qdtS35vROVZHfx4vXGlPjBsgbq9dTUaDm6jgZFRCcklmnNxQ5HylaTa5pJgfzHIuYXIk5uqGBH0wwfmOdJ3xrCD9YLCxSXw02R1MM/vdcLG2/xjXyzwg+SpdYIJ3qOIrUaG5yP9HlCqu9QJR+kHEBXyFevS/QorFM4EU3lftPa1xRElX1R0=);strokeColor=#000000;strokeWidth=2;labelBackgroundColor=none;rounded=0;html=1;whiteSpace=wrap;" parent="h40I1kbrtRN0yZqNHY2F-595" vertex="1">
          <mxGeometry x="2" y="42" width="10" height="9" as="geometry" />
        </mxCell>
        <mxCell id="h40I1kbrtRN0yZqNHY2F-602" style="vsdxID=370;fillColor=none;gradientColor=none;labelBackgroundColor=none;rounded=0;strokeColor=none;html=1;whiteSpace=wrap;" parent="h40I1kbrtRN0yZqNHY2F-595" vertex="1">
          <mxGeometry x="2" y="20" width="10" height="11" as="geometry" />
        </mxCell>
        <mxCell id="h40I1kbrtRN0yZqNHY2F-603" style="vsdxID=371;fillColor=#000000;gradientColor=none;shape=stencil(vZPdcoMgEIWfhkt3gEXQ6zR5D6ZBZWLFQfLTty8W+kPatDdt7tZzzsLHjktwswx6NoTTJXh3MGe7DwPBB8K5nQbjbYgVwS3BTee86b07Tvv0Pes1uVZP7rSecEl9CMjWJk6fk8AECHxVdimv/WN0fc5zFFAnn/rcgi0H0SYtx1oJvCnPpTQnKn2xS+Vd0MG6KbnZG7XvTRVvrLpR94W1nI2Zv8jfMgpQsiRU0Kpf+Jr4bnEvwngdsKshNgwUFpA1MFXOEFD+KSK7jYhAm5Iw4siCjwLlBV8Nqr7XCOX7tN74GANeAv7wc/8LYSw+9qyz45jW9LN/vZdRSjuN2xc=);strokeColor=#000000;labelBackgroundColor=none;rounded=0;html=1;whiteSpace=wrap;" parent="h40I1kbrtRN0yZqNHY2F-602" vertex="1">
          <mxGeometry width="10" height="6" as="geometry" />
        </mxCell>
        <mxCell id="h40I1kbrtRN0yZqNHY2F-604" style="vsdxID=372;fillColor=#FFFFFF;gradientColor=#e7e4cd;shape=stencil(pVFLDoIwED1NlzTTliCs/dyjkQKNSMlQBW9vcWoUxZW7mfeZvuYxtR0a3RsmYfDoTma0pW+Y2jEpbdcYtD5MTO2Z2lYOTY3u0pW093pWztPZXecLE/kEwOyRcKO9yDmIB3IgucZjYPEplxkvUnJgtAiRcklQVEmebhZXJXDIoyTRkx0SdF576zri84KL6Gg11iYJryZVq2uiY8RhNKb/gldz5sBFtoyZpVwsY/7++3pK+C9hGF4tVLZtqcR3/rO1AFHjan8H);strokeColor=#FFFFFF;strokeWidth=0;labelBackgroundColor=none;rounded=0;html=1;whiteSpace=wrap;" parent="h40I1kbrtRN0yZqNHY2F-602" vertex="1">
          <mxGeometry x="3" y="3" width="3" height="2" as="geometry" />
        </mxCell>
        <mxCell id="h40I1kbrtRN0yZqNHY2F-605" style="vsdxID=373;fillColor=#000000;gradientColor=#e7e4cd;fillOpacity=40;shape=stencil(rVJLEoIwDD1Nl3RK4lBc+7lHRwt0rJQJVfD2lqkfQHTlLp/3krwkDDdtpRrNQLSe3El35ugrhlsGYOpKk/HBYrhjuCkc6ZLcpT5Gv1EDcrDO7jpU6CNPDAwQt7G3j0Br6q9ARC5xDFZ0CFl6gEGmHFaRQU8KZDyPoQcqFdOiL79PVG/ahJxX3rh6MoBVVOoktEsKq8pJqu20bj7Ci2rmrbOMg/yhJxcc1jM9KLmc6Fna5b+0pOPhgvG+Z2Gsje8wzs/vH0Lxd3B3Bw==);strokeColor=none;strokeWidth=0;labelBackgroundColor=none;rounded=0;html=1;whiteSpace=wrap;" parent="h40I1kbrtRN0yZqNHY2F-602" vertex="1">
          <mxGeometry y="3" width="10" height="8" as="geometry" />
        </mxCell>
        <mxCell id="h40I1kbrtRN0yZqNHY2F-606" style="vsdxID=374;fillColor=#000000;gradientColor=none;shape=stencil(rVLLEoIwDPyaHun0gRbOiP/R0QIdK2XSqvj3Fouj1UEv3pLNbpKdBPHKdXJQiBHnwR7URe99h/gGMab7ToH2IUK8RrxqLKgW7Knfx3yQE3OKjvY8dRijjkwKRq4xoxSz8o5sI1nCLlRhJrN8hVciKmCW8HKNSRGxmUbJW9dHPmZy1C4D66XXtk82MBJalYV5WWNkm5TcRanhA543NLpXy6OLAgv6xZCgOOepoZwLLMrEUNrzv2bospkftwnB86qNNiY+xWv9/QsCFD+I1zc=);strokeColor=none;labelBackgroundColor=none;rounded=0;html=1;whiteSpace=wrap;" parent="h40I1kbrtRN0yZqNHY2F-602" vertex="1">
          <mxGeometry y="4" width="10" height="6" as="geometry" />
        </mxCell>
        <mxCell id="h40I1kbrtRN0yZqNHY2F-607" style="vsdxID=375;fillColor=none;gradientColor=none;fillOpacity=40;shape=stencil(dVDRDoIwDPyaPY6M1ojviP+xyBiLuJFuCv69W4YKGt/uendtcwxr38tRMRA+kLuoybShZ3hkAMb2ikyIiGHDsO4cKU3uZtvMR5mcCV3dPW2Yc06kBIjHmp2ycTD2rxGxqHBtlnSOKi1mqMoCdjlBrwjsi0MeLa5SbJe++czlbDwnF2Qwzm4eGCRpxeM53g1SbyQ/KTX+jJcHI/h0kOtba999xVHuGpsn);strokeColor=#FFFFFF;labelBackgroundColor=none;rounded=0;html=1;whiteSpace=wrap;" parent="h40I1kbrtRN0yZqNHY2F-602" vertex="1">
          <mxGeometry y="3" width="10" height="8" as="geometry" />
        </mxCell>
        <mxCell id="h40I1kbrtRN0yZqNHY2F-608" style="vsdxID=376;fillColor=#000000;gradientColor=#e7e4cd;fillOpacity=40;shape=stencil(fVDLDsIgEPwajjR0N2n1XPU/iKUtsUKzoK1/L4QawYO3mZ0HZBh2bpKLYiCcJ3tTq+79xPDEALSZFGkfEMMzw26wpEayD9MnvsjojOhun7FhS7laiJgB8Sr5JZlnbf6Ym6aCNrdLugaVdjscRAXHlKA9gthWKfIpLSt3tnG5acfJeum1NYU2SxoVD0/xYZZjIblVqSU71/nnAviukAbMtd/Fwimtjec3);strokeColor=#000000;labelBackgroundColor=none;rounded=0;html=1;whiteSpace=wrap;" parent="h40I1kbrtRN0yZqNHY2F-602" vertex="1">
          <mxGeometry y="3" width="10" height="8" as="geometry" />
        </mxCell>
        <mxCell id="h40I1kbrtRN0yZqNHY2F-609" style="vsdxID=377;fillColor=none;gradientColor=none;labelBackgroundColor=none;rounded=0;strokeColor=none;html=1;whiteSpace=wrap;" parent="h40I1kbrtRN0yZqNHY2F-565" vertex="1">
          <mxGeometry x="16" y="9" width="39" height="56" as="geometry" />
        </mxCell>
        <mxCell id="h40I1kbrtRN0yZqNHY2F-610" style="vsdxID=378;fillColor=#ffffff;gradientColor=#e1d8c1;gradientDirection=north;shape=stencil(fVHbEoIgEP0aHmFQvD6X/QeTqEwEzkJpfx9ETtrtbffc2GUR29mBjwKl1DowJzHJ1g2I7VGaSj0IkM5XiDWI7ToDogdz0W3sRx6UoTqba0iYo4+VpM6DK6W3iCSUPvpDlCupV/KFXMTeXlW/5UVC8mxj+JO9TfbWolyLORw9C0tyQaokGmAZPMlIWUdstV35dTs6Yz5Li8E47qTRmxEUh15g/yDuFO83lJ2EGD/g54i+eP1zJ5WKZ1rz73fxULwpa+4=);strokeColor=#ffffff;spacingTop=-3;spacingBottom=-3;spacingLeft=-3;spacingRight=-3;labelBackgroundColor=none;rounded=0;html=1;whiteSpace=wrap;" parent="h40I1kbrtRN0yZqNHY2F-609" vertex="1">
          <mxGeometry width="39" height="22" as="geometry" />
        </mxCell>
        <mxCell id="h40I1kbrtRN0yZqNHY2F-611" style="vsdxID=379;fillColor=#ffffff;gradientColor=#c9ba96;shape=stencil(rVJBEoMgDHwNRxkEHfFs7T+YisqUihNptb8vFDtVO3rqLcnuJiwJYsXQil4iSgYL5ipHVdkWsROiVHWtBGVdhFiJWFEbkA2Ye1eFvBee6aObefgOU9DFhHgNJc85zzFP35VzoAu4OBQ+9CzBMQ8KmCUpxykLpZm1bjlnUyQmNURgrLDKdCtMC2hk5EZFtRbNChpGKftFOV4+TqtO7o3lMc6SIycEp1snGWZ05eTne8h/3ZB9N3mO8+R4Ny747rVWWoezWOLbO3ClcEOsfAE=);strokeColor=#ffffff;spacingTop=-3;spacingBottom=-3;spacingLeft=-3;spacingRight=-3;labelBackgroundColor=none;rounded=0;html=1;whiteSpace=wrap;" parent="h40I1kbrtRN0yZqNHY2F-609" vertex="1">
          <mxGeometry y="13" width="14" height="43" as="geometry" />
        </mxCell>
        <mxCell id="h40I1kbrtRN0yZqNHY2F-612" style="vsdxID=380;fillColor=#ffffff;gradientColor=#b6a06d;shape=stencil(UzV2Ls5ILEhVNTIoLinKz04tz0wpyVA1dlE1MsrMy0gtyiwBslSNXVWNndPyi1LTi/JL81Ig/IJEkEoQKze/DGRCBUSfAUiHkUElhGdkoWdqBhZxgyjOyczDqdjQwAC3UpgkTLG5oZ65EfHK8ZhMwMVABsKvaZk5OZCgQpZHDxugECRcjV0B);strokeColor=#ffffff;spacingTop=-3;spacingBottom=-3;spacingLeft=-3;spacingRight=-3;labelBackgroundColor=none;rounded=0;html=1;whiteSpace=wrap;" parent="h40I1kbrtRN0yZqNHY2F-609" vertex="1">
          <mxGeometry x="14" y="8" width="24" height="48" as="geometry" />
        </mxCell>
        <mxCell id="h40I1kbrtRN0yZqNHY2F-613" value="" style="verticalAlign=middle;align=center;vsdxID=381;fillColor=#000000;gradientColor=none;shape=stencil(jZLdEoIgEIWfhksZBPzp2uw9mERlMnFWSnv7MHQSraa73bPfgV0WxLK+Fp1ElPQG9EUOqjA1YkdEqWprCcrYCLEcsazUICvQt7ZweScmcoqu+j6dMDpfSMjkoeQx5xyn7KWcHN6odoXHIY64ZyDfYf9kynHIf8CYUI9P4w0v4GyrsHRiG3U8zAbOcJQ4aWZYgg+JP94y7hiIUfUBaCOM0q3XcCOgkoG9LigbUXmlfpCy28kfB9q+bBLhNP4f3y3CBu8luv2va9uFW8l9FpY/AQ==);strokeColor=#000000;spacingTop=-3;spacingBottom=-3;spacingLeft=-3;spacingRight=-3;labelBackgroundColor=none;rounded=0;html=1;whiteSpace=wrap;" parent="h40I1kbrtRN0yZqNHY2F-609" vertex="1">
          <mxGeometry width="39" height="56" as="geometry" />
        </mxCell>
        <mxCell id="h40I1kbrtRN0yZqNHY2F-614" style="vsdxID=382;rotation=340;fillColor=#FFFFFF;gradientColor=#339966;shape=stencil(vVHLDsIgEPwajiQI6RfU+h8bu22JCGRB2/69kG1iazx58DazM/vIjjBtmiCi0CplCjecbZ8nYc5Ca+snJJsLEqYTph0C4Ujh4XvmEaqzont41gkL96naodXKrGF6YSfQtUi0OXXDVlqPfJNP6usotUhYbJIUMmQb/GGrAxpRljVycDBuc1hKM2LclX8/7H9nFfB+82Cd45T2+mcspcSRmu4F);strokeColor=#000000;labelBackgroundColor=none;rounded=0;html=1;whiteSpace=wrap;" parent="h40I1kbrtRN0yZqNHY2F-609" vertex="1">
          <mxGeometry x="5" y="34" width="2" height="3" as="geometry" />
        </mxCell>
        <mxCell id="h40I1kbrtRN0yZqNHY2F-615" style="vsdxID=383;fillColor=#FFFFFF;gradientColor=#e7e4cd;gradientDirection=north;shape=stencil(xZLdDsIgDIWfhssRKPvB67m9B1HciDqWDv/eXpYu6jRxV8a7tue08CWHqXJoTW8ZiCGg39uL24aWqTUDcF1r0YVYMVUxVe482gb9qdtS35vROVZHfx4vXGlPjBsgbq9dTUaDm6jgZFRCcklmnNxQ5HylaTa5pJgfzHIuYXIk5uqGBH0wwfmOdJ3xrCD9YLCxSXw02R1MM/vdcLG2/xjXyzwg+SpdYIJ3qOIrUaG5yP9HlCqu9QJR+kHEBXyFevS/QorFM4EU3lftPa1xRElX1R0=);strokeColor=#000000;strokeWidth=2;labelBackgroundColor=none;rounded=0;html=1;whiteSpace=wrap;" parent="h40I1kbrtRN0yZqNHY2F-609" vertex="1">
          <mxGeometry x="2" y="42" width="10" height="9" as="geometry" />
        </mxCell>
        <mxCell id="h40I1kbrtRN0yZqNHY2F-616" style="vsdxID=384;fillColor=none;gradientColor=none;labelBackgroundColor=none;rounded=0;strokeColor=none;html=1;whiteSpace=wrap;" parent="h40I1kbrtRN0yZqNHY2F-609" vertex="1">
          <mxGeometry x="2" y="20" width="10" height="11" as="geometry" />
        </mxCell>
        <mxCell id="h40I1kbrtRN0yZqNHY2F-617" style="vsdxID=385;fillColor=#000000;gradientColor=none;shape=stencil(vZPdcoMgEIWfhkt3gEXQ6zR5D6ZBZWLFQfLTty8W+kPatDdt7tZzzsLHjktwswx6NoTTJXh3MGe7DwPBB8K5nQbjbYgVwS3BTee86b07Tvv0Pes1uVZP7rSecEl9CMjWJk6fk8AECHxVdimv/WN0fc5zFFAnn/rcgi0H0SYtx1oJvCnPpTQnKn2xS+Vd0MG6KbnZG7XvTRVvrLpR94W1nI2Zv8jfMgpQsiRU0Kpf+Jr4bnEvwngdsKshNgwUFpA1MFXOEFD+KSK7jYhAm5Iw4siCjwLlBV8Nqr7XCOX7tN74GANeAv7wc/8LYSw+9qyz45jW9LN/vZdRSjuN2xc=);strokeColor=#000000;labelBackgroundColor=none;rounded=0;html=1;whiteSpace=wrap;" parent="h40I1kbrtRN0yZqNHY2F-616" vertex="1">
          <mxGeometry width="10" height="6" as="geometry" />
        </mxCell>
        <mxCell id="h40I1kbrtRN0yZqNHY2F-618" style="vsdxID=386;fillColor=#FFFFFF;gradientColor=#e7e4cd;shape=stencil(pVFLDoIwED1NlzTTliCs/dyjkQKNSMlQBW9vcWoUxZW7mfeZvuYxtR0a3RsmYfDoTma0pW+Y2jEpbdcYtD5MTO2Z2lYOTY3u0pW093pWztPZXecLE/kEwOyRcKO9yDmIB3IgucZjYPEplxkvUnJgtAiRcklQVEmebhZXJXDIoyTRkx0SdF576zri84KL6Gg11iYJryZVq2uiY8RhNKb/gldz5sBFtoyZpVwsY/7++3pK+C9hGF4tVLZtqcR3/rO1AFHjan8H);strokeColor=#FFFFFF;strokeWidth=0;labelBackgroundColor=none;rounded=0;html=1;whiteSpace=wrap;" parent="h40I1kbrtRN0yZqNHY2F-616" vertex="1">
          <mxGeometry x="3" y="3" width="3" height="2" as="geometry" />
        </mxCell>
        <mxCell id="h40I1kbrtRN0yZqNHY2F-619" style="vsdxID=387;fillColor=#000000;gradientColor=#e7e4cd;fillOpacity=40;shape=stencil(rVJLEoIwDD1Nl3RK4lBc+7lHRwt0rJQJVfD2lqkfQHTlLp/3krwkDDdtpRrNQLSe3El35ugrhlsGYOpKk/HBYrhjuCkc6ZLcpT5Gv1EDcrDO7jpU6CNPDAwQt7G3j0Br6q9ARC5xDFZ0CFl6gEGmHFaRQU8KZDyPoQcqFdOiL79PVG/ahJxX3rh6MoBVVOoktEsKq8pJqu20bj7Ci2rmrbOMg/yhJxcc1jM9KLmc6Fna5b+0pOPhgvG+Z2Gsje8wzs/vH0Lxd3B3Bw==);strokeColor=none;strokeWidth=0;labelBackgroundColor=none;rounded=0;html=1;whiteSpace=wrap;" parent="h40I1kbrtRN0yZqNHY2F-616" vertex="1">
          <mxGeometry y="3" width="10" height="8" as="geometry" />
        </mxCell>
        <mxCell id="h40I1kbrtRN0yZqNHY2F-620" style="vsdxID=388;fillColor=#000000;gradientColor=none;shape=stencil(rVLLEoIwDPyaHun0gRbOiP/R0QIdK2XSqvj3Fouj1UEv3pLNbpKdBPHKdXJQiBHnwR7URe99h/gGMab7ToH2IUK8RrxqLKgW7Knfx3yQE3OKjvY8dRijjkwKRq4xoxSz8o5sI1nCLlRhJrN8hVciKmCW8HKNSRGxmUbJW9dHPmZy1C4D66XXtk82MBJalYV5WWNkm5TcRanhA543NLpXy6OLAgv6xZCgOOepoZwLLMrEUNrzv2bospkftwnB86qNNiY+xWv9/QsCFD+I1zc=);strokeColor=none;labelBackgroundColor=none;rounded=0;html=1;whiteSpace=wrap;" parent="h40I1kbrtRN0yZqNHY2F-616" vertex="1">
          <mxGeometry y="4" width="10" height="6" as="geometry" />
        </mxCell>
        <mxCell id="h40I1kbrtRN0yZqNHY2F-621" style="vsdxID=389;fillColor=none;gradientColor=none;fillOpacity=40;shape=stencil(dVDRDoIwDPyaPY6M1ojviP+xyBiLuJFuCv69W4YKGt/uendtcwxr38tRMRA+kLuoybShZ3hkAMb2ikyIiGHDsO4cKU3uZtvMR5mcCV3dPW2Yc06kBIjHmp2ycTD2rxGxqHBtlnSOKi1mqMoCdjlBrwjsi0MeLa5SbJe++czlbDwnF2Qwzm4eGCRpxeM53g1SbyQ/KTX+jJcHI/h0kOtba999xVHuGpsn);strokeColor=#FFFFFF;labelBackgroundColor=none;rounded=0;html=1;whiteSpace=wrap;" parent="h40I1kbrtRN0yZqNHY2F-616" vertex="1">
          <mxGeometry y="3" width="10" height="8" as="geometry" />
        </mxCell>
        <mxCell id="h40I1kbrtRN0yZqNHY2F-622" style="vsdxID=390;fillColor=#000000;gradientColor=#e7e4cd;fillOpacity=40;shape=stencil(fVDLDsIgEPwajjR0N2n1XPU/iKUtsUKzoK1/L4QawYO3mZ0HZBh2bpKLYiCcJ3tTq+79xPDEALSZFGkfEMMzw26wpEayD9MnvsjojOhun7FhS7laiJgB8Sr5JZlnbf6Ym6aCNrdLugaVdjscRAXHlKA9gthWKfIpLSt3tnG5acfJeum1NYU2SxoVD0/xYZZjIblVqSU71/nnAviukAbMtd/Fwimtjec3);strokeColor=#000000;labelBackgroundColor=none;rounded=0;html=1;whiteSpace=wrap;" parent="h40I1kbrtRN0yZqNHY2F-616" vertex="1">
          <mxGeometry y="3" width="10" height="8" as="geometry" />
        </mxCell>
        <mxCell id="h40I1kbrtRN0yZqNHY2F-623" value="&lt;font style=&quot;font-size: 16px ; font-family: &amp;#34;simsun&amp;#34; ; color: #000000 ; direction: ltr ; letter-spacing: 0px ; line-height: 120% ; opacity: 1&quot;&gt;DataFeed&lt;br&gt;10.180.6.4&lt;br&gt;10.180.6.5&lt;br&gt;10.180.6.6&lt;br&gt;&lt;/font&gt;" style="text;vsdxID=333;fillColor=none;gradientColor=none;labelBackgroundColor=none;rounded=0;strokeColor=none;html=1;whiteSpace=wrap;verticalAlign=middle;align=center;;html=1;" parent="1" vertex="1">
          <mxGeometry x="249.00000000000003" y="531.16" width="112.9" height="92.57" as="geometry" />
        </mxCell>
        <mxCell id="h40I1kbrtRN0yZqNHY2F-624" value="&lt;font style=&quot;font-size: 11px ; font-family: &amp;#34;simsun&amp;#34; ; color: #000000 ; direction: ltr ; letter-spacing: 0px ; line-height: 120% ; opacity: 1&quot;&gt;19058&lt;br&gt;&lt;/font&gt;" style="vsdxID=766;edgeStyle=none;startArrow=none;endArrow=block;startSize=5;endSize=5;strokeColor=#000000;spacingTop=0;spacingBottom=0;spacingLeft=0;spacingRight=0;verticalAlign=middle;html=1;labelBackgroundColor=#ffffff;rounded=0;align=center;exitX=0.02;exitY=0.857;exitDx=0;exitDy=0;exitPerimeter=0;entryX=1.085;entryY=0.433;entryDx=0;entryDy=0;entryPerimeter=0;" parent="1" source="135" target="h40I1kbrtRN0yZqNHY2F-565" edge="1">
          <mxGeometry relative="1" as="geometry">
            <mxPoint x="10" y="-14" as="offset" />
            <Array as="points" />
            <mxPoint x="385.22000000000025" y="236" as="sourcePoint" />
            <mxPoint x="540.23" y="374" as="targetPoint" />
          </mxGeometry>
        </mxCell>
        <mxCell id="173" value="&lt;font style=&quot;font-size: 16px ; font-family: &amp;#34;simsun&amp;#34; ; color: #000000 ; direction: ltr ; letter-spacing: 0px ; line-height: 120% ; opacity: 1&quot;&gt;CBroker-&lt;span style=&quot;text-align: left&quot;&gt;FxOption&lt;/span&gt;&lt;br&gt;10.180.x.x&lt;br&gt;10.180.x.x&lt;br&gt;&lt;/font&gt;" style="text;vsdxID=333;fillColor=none;gradientColor=none;labelBackgroundColor=none;rounded=0;strokeColor=none;html=1;whiteSpace=wrap;verticalAlign=middle;align=center;;html=1;" parent="1" vertex="1">
          <mxGeometry x="481.28" y="269.43" width="128.72" height="92.57" as="geometry" />
        </mxCell>
        <mxCell id="2" value="连接线" parent="0" />
        <mxCell id="446" value="&lt;font style=&quot;font-size:11px;font-family:SimSun;color:#000000;direction:ltr;letter-spacing:0px;line-height:120%;opacity:1&quot;&gt;3306&lt;br/&gt;&lt;/font&gt;" style="vsdxID=1713;edgeStyle=none;startArrow=none;endArrow=block;startSize=5;endSize=5;strokeColor=#000000;spacingTop=0;spacingBottom=0;spacingLeft=0;spacingRight=0;verticalAlign=middle;html=1;labelBackgroundColor=#ffffff;rounded=0;align=center;exitX=0.8928571428571429;exitY=0.8942307692307693;exitDx=0;exitDy=0;exitPerimeter=0;entryX=0.24888888888888888;entryY=0;entryDx=0;entryDy=0;entryPerimeter=0;" parent="2" source="115" target="21" edge="1">
          <mxGeometry relative="1" as="geometry">
            <mxPoint x="8" y="7" as="offset" />
            <Array as="points" />
          </mxGeometry>
        </mxCell>
        <mxCell id="447" value="&lt;font style=&quot;font-size:11px;font-family:SimSun;color:#000000;direction:ltr;letter-spacing:0px;line-height:120%;opacity:1&quot;&gt;3306&lt;br/&gt;&lt;/font&gt;" style="vsdxID=1711;edgeStyle=none;startArrow=none;endArrow=block;startSize=5;endSize=5;strokeColor=#000000;spacingTop=0;spacingBottom=0;spacingLeft=0;spacingRight=0;verticalAlign=middle;html=1;labelBackgroundColor=#ffffff;rounded=0;align=center;exitX=1;exitY=0.5;exitDx=0;exitDy=0;exitPerimeter=0;entryX=0;entryY=0.5;entryDx=0;entryDy=0;entryPerimeter=0;" parent="2" source="405" target="425" edge="1">
          <mxGeometry relative="1" as="geometry">
            <mxPoint y="-1" as="offset" />
            <Array as="points" />
          </mxGeometry>
        </mxCell>
        <mxCell id="448" value="&lt;font style=&quot;font-size:11px;font-family:SimSun;color:#000000;direction:ltr;letter-spacing:0px;line-height:120%;opacity:1&quot;&gt;20/21&lt;br/&gt;21000-21110&lt;br/&gt;&lt;/font&gt;" style="vsdxID=1548;edgeStyle=none;startArrow=none;endArrow=block;startSize=5;endSize=5;strokeColor=#000000;spacingTop=0;spacingBottom=0;spacingLeft=0;spacingRight=0;verticalAlign=middle;html=1;labelBackgroundColor=#ffffff;rounded=0;align=center;exitX=0.25;exitY=0.9134615384615384;exitDx=0;exitDy=0;exitPerimeter=0;entryX=0.833;entryY=0.07;entryDx=0;entryDy=0;entryPerimeter=0;" parent="2" source="115" target="h40I1kbrtRN0yZqNHY2F-545" edge="1">
          <mxGeometry relative="1" as="geometry">
            <mxPoint x="6" y="-18" as="offset" />
            <Array as="points" />
            <mxPoint x="439" y="665" as="targetPoint" />
          </mxGeometry>
        </mxCell>
        <mxCell id="456" value="&lt;font style=&quot;font-size:11px;font-family:SimSun;color:#000000;direction:ltr;letter-spacing:0px;line-height:120%;opacity:1&quot;&gt;8888&lt;br/&gt;&lt;/font&gt;" style="vsdxID=832;edgeStyle=none;startArrow=none;endArrow=block;startSize=5;endSize=5;strokeColor=#000000;spacingTop=0;spacingBottom=0;spacingLeft=0;spacingRight=0;verticalAlign=middle;html=1;labelBackgroundColor=#ffffff;rounded=0;align=center;exitX=0.12;exitY=0.85;exitDx=0;exitDy=0;exitPerimeter=0;entryX=1;entryY=0.16883116883116883;entryDx=0;entryDy=0;entryPerimeter=0;" parent="2" source="27" target="174" edge="1">
          <mxGeometry relative="1" as="geometry">
            <mxPoint x="-2" y="6" as="offset" />
            <Array as="points" />
          </mxGeometry>
        </mxCell>
        <mxCell id="458" value="&lt;font style=&quot;font-size:11px;font-family:SimSun;color:#000000;direction:ltr;letter-spacing:0px;line-height:120%;opacity:1&quot;&gt;8080&lt;br/&gt;&lt;/font&gt;" style="vsdxID=766;edgeStyle=none;startArrow=none;endArrow=block;startSize=5;endSize=5;strokeColor=#000000;spacingTop=0;spacingBottom=0;spacingLeft=0;spacingRight=0;verticalAlign=middle;html=1;labelBackgroundColor=#ffffff;rounded=0;align=center;exitX=0.5;exitY=1.0129870129870129;exitDx=0;exitDy=0;exitPerimeter=0;entryX=0.02;entryY=0.232;entryDx=0;entryDy=0;entryPerimeter=0;" parent="2" source="174" target="135" edge="1">
          <mxGeometry relative="1" as="geometry">
            <mxPoint x="10" y="-14" as="offset" />
            <Array as="points" />
          </mxGeometry>
        </mxCell>
        <mxCell id="459" value="&lt;font style=&quot;font-size:11px;font-family:SimSun;color:#000000;direction:ltr;letter-spacing:0px;line-height:120%;opacity:1&quot;&gt;19018&lt;br/&gt;&lt;/font&gt;" style="vsdxID=466;edgeStyle=none;startArrow=none;endArrow=block;startSize=5;endSize=5;strokeColor=#000000;spacingTop=0;spacingBottom=0;spacingLeft=0;spacingRight=0;verticalAlign=middle;html=1;labelBackgroundColor=#ffffff;rounded=0;align=center;exitX=1;exitY=0.4807692307692308;exitDx=0;exitDy=0;exitPerimeter=0;entryX=0;entryY=0.52;entryDx=0;entryDy=0;entryPerimeter=0;" parent="2" source="115" target="54" edge="1">
          <mxGeometry relative="1" as="geometry">
            <mxPoint x="24" y="-6" as="offset" />
            <Array as="points" />
          </mxGeometry>
        </mxCell>
        <mxCell id="460" value="&lt;font style=&quot;font-size:11px;font-family:SimSun;color:#000000;direction:ltr;letter-spacing:0px;line-height:120%;opacity:1&quot;&gt;19019&lt;br/&gt;&lt;/font&gt;" style="vsdxID=459;edgeStyle=none;startArrow=none;endArrow=block;startSize=5;endSize=5;strokeColor=#000000;spacingTop=0;spacingBottom=0;spacingLeft=0;spacingRight=0;verticalAlign=middle;html=1;labelBackgroundColor=#ffffff;rounded=0;align=center;exitX=0.77;exitY=0.73;exitDx=0;exitDy=0;exitPerimeter=0;entryX=0.05555555555555555;entryY=0.22;entryDx=0;entryDy=0;entryPerimeter=0;" parent="2" source="27" target="95" edge="1">
          <mxGeometry relative="1" as="geometry">
            <mxPoint x="8" y="2" as="offset" />
            <Array as="points" />
          </mxGeometry>
        </mxCell>
        <mxCell id="461" value="&lt;font style=&quot;font-size:11px;font-family:SimSun;color:#000000;direction:ltr;letter-spacing:0px;line-height:120%;opacity:1&quot;&gt;19018&lt;br/&gt;&lt;/font&gt;" style="vsdxID=460;edgeStyle=none;startArrow=none;endArrow=block;startSize=5;endSize=5;strokeColor=#000000;spacingTop=0;spacingBottom=0;spacingLeft=0;spacingRight=0;verticalAlign=middle;html=1;labelBackgroundColor=#ffffff;rounded=0;align=center;exitX=0.8333333333333334;exitY=0.83;exitDx=0;exitDy=0;exitPerimeter=0;entryX=0.18055555555555555;entryY=0.17;entryDx=0;entryDy=0;entryPerimeter=0;" parent="2" source="95" target="54" edge="1">
          <mxGeometry relative="1" as="geometry">
            <mxPoint x="7" y="3" as="offset" />
            <Array as="points" />
          </mxGeometry>
        </mxCell>
        <mxCell id="463" value="&lt;font style=&quot;font-size:11px;font-family:SimSun;color:#000000;direction:ltr;letter-spacing:0px;line-height:120%;opacity:1&quot;&gt;20/21&lt;br/&gt;21000-21110&lt;br/&gt;&lt;/font&gt;" style="vsdxID=463;edgeStyle=none;startArrow=none;endArrow=block;startSize=5;endSize=5;strokeColor=#000000;spacingTop=0;spacingBottom=0;spacingLeft=0;spacingRight=0;verticalAlign=middle;html=1;labelBackgroundColor=#ffffff;rounded=0;align=center;exitX=1;exitY=0.5;exitDx=0;exitDy=0;exitPerimeter=0;entryX=0;entryY=0.5;entryDx=0;entryDy=0;entryPerimeter=0;" parent="2" source="27" target="70" edge="1">
          <mxGeometry relative="1" as="geometry">
            <mxPoint x="26" y="-4" as="offset" />
            <Array as="points" />
          </mxGeometry>
        </mxCell>
      </root>
    </mxGraphModel>
  </diagram>
</mxfile>
